<?xml version="1.0" standalone="no"?>
<!DOCTYPE svg PUBLIC "-//W3C//DTD SVG 20010904//EN"
 "http://www.w3.org/TR/2001/REC-SVG-20010904/DTD/svg10.dtd">
<svg version="1.0" xmlns="http://www.w3.org/2000/svg"
 width="2000.000000pt" height="2000.000000pt" viewBox="0 0 2000.000000 2000.000000"
 preserveAspectRatio="xMidYMid meet">
<metadata>
Created by potrace 1.13, written by Peter Selinger 2001-2015
</metadata>
<g transform="translate(0.000000,2000.000000) scale(0.100000,-0.100000)"
fill="#000000" stroke="none">
<path d="M4940 18093 c-113 -9 -335 -70 -467 -128 -48 -22 -128 -66 -296 -167
-26 -15 -50 -28 -53 -28 -3 0 -28 -15 -57 -33 -29 -18 -77 -46 -107 -62 -30
-16 -62 -34 -70 -41 -8 -6 -49 -29 -90 -51 -42 -23 -93 -52 -113 -66 -21 -14
-43 -28 -50 -30 -7 -2 -9 -7 -6 -11 3 -3 37 5 76 18 214 73 638 73 1001 0 25
-5 32 -3 32 9 0 19 -25 29 -56 21 -17 -4 -24 -2 -24 9 0 8 9 17 20 20 11 3 20
12 20 21 0 9 8 16 20 16 11 0 20 5 20 11 0 7 12 10 30 7 20 -3 30 0 30 9 0 7
11 13 26 13 22 0 25 -4 21 -21 -4 -16 -3 -18 8 -9 7 6 10 20 7 32 -4 18 -2 20
26 16 23 -3 32 -1 32 10 0 10 10 13 40 10 28 -2 40 0 40 9 0 8 14 13 40 13 22
0 40 5 40 10 0 6 50 10 130 10 80 0 130 4 130 10 0 6 11 10 25 10 14 0 25 -4
25 -10 0 -5 18 -10 39 -10 22 0 43 -4 46 -10 3 -5 15 -10 26 -10 10 0 19 5 19
10 0 19 48 11 55 -10 3 -11 13 -20 21 -20 21 0 29 4 26 13 -1 4 18 7 43 7 30
0 45 -4 45 -13 0 -9 12 -11 40 -9 29 3 40 0 40 -10 0 -10 11 -12 40 -10 30 3
40 0 40 -10 0 -10 9 -13 30 -10 21 3 30 0 30 -10 0 -10 9 -13 30 -10 21 3 30
0 30 -10 0 -10 9 -13 30 -10 22 3 30 0 30 -11 0 -10 6 -13 20 -10 13 4 20 0
20 -9 0 -10 8 -13 30 -10 22 3 30 0 30 -11 0 -10 6 -13 20 -10 14 4 20 0 20
-11 0 -10 5 -14 11 -11 10 7 181 -73 187 -87 2 -5 13 -8 25 -8 18 0 19 -2 7
-10 -13 -8 -12 -12 7 -31 l22 -22 -6 21 c-8 33 30 29 69 -8 17 -16 37 -30 44
-30 8 0 14 -7 14 -15 0 -8 6 -12 14 -9 8 3 25 -4 37 -15 13 -12 29 -21 36 -21
7 0 13 -4 13 -8 0 -5 12 -15 28 -23 15 -8 36 -22 46 -31 11 -10 26 -18 33 -18
7 0 13 -4 13 -8 0 -5 12 -15 28 -23 15 -7 39 -26 55 -41 15 -16 32 -28 37 -28
6 0 24 -13 42 -30 17 -16 36 -30 41 -30 6 0 28 -18 49 -40 22 -22 44 -40 50
-40 5 0 27 -18 49 -40 22 -22 45 -40 50 -40 6 0 38 -27 71 -60 34 -33 65 -60
71 -60 5 0 41 -31 80 -70 39 -38 74 -70 79 -70 5 0 59 -49 120 -110 61 -60
115 -110 120 -110 18 0 80 -71 74 -85 -7 -20 40 -66 59 -58 18 6 245 -215 245
-240 0 -8 6 -18 13 -20 6 -3 0 -6 -15 -6 -20 -1 -27 4 -30 22 -2 17 -5 18 -10
6 -4 -9 5 -28 22 -48 31 -34 30 -61 -1 -61 -20 0 -27 -26 -9 -32 16 -5 23 -95
8 -104 -8 -5 -6 -10 8 -15 16 -6 16 -8 2 -8 -25 -1 -11 -31 16 -32 18 -1 18
-2 3 -6 -13 -3 -17 -11 -14 -24 4 -16 -1 -19 -36 -20 -23 0 -36 -3 -29 -6 6
-2 12 -17 11 -31 0 -15 -3 -21 -6 -14 -10 25 -64 12 -76 -18 -5 -13 -6 -13 -6
0 -1 17 -60 62 -72 54 -10 -6 0 -34 11 -34 5 0 6 -9 3 -20 -4 -15 0 -20 13
-21 16 0 15 -2 -3 -9 -13 -5 -23 -15 -23 -22 -1 -8 -5 -7 -14 4 -17 24 -27 12
-15 -19 5 -13 9 -35 9 -49 0 -13 5 -24 10 -24 6 0 10 -7 10 -15 0 -8 -4 -15
-10 -15 -5 0 -10 -9 -10 -21 0 -14 -5 -19 -18 -17 -28 5 -30 -15 -4 -27 18 -8
23 -16 19 -37 -2 -19 1 -28 10 -28 7 0 13 -4 13 -9 0 -5 7 -11 15 -15 10 -4
15 1 15 14 0 13 -7 20 -20 20 -11 0 -20 7 -20 15 0 8 5 15 11 15 15 0 39 -26
39 -42 0 -16 60 -58 83 -58 9 0 17 -4 17 -9 0 -10 6 -9 60 4 17 5 21 4 12 -3
-8 -5 -12 -18 -10 -27 3 -17 5 -17 18 -3 13 12 18 13 28 2 7 -7 12 -17 12 -23
0 -5 9 -7 20 -4 14 4 20 0 20 -11 0 -10 -4 -14 -10 -11 -5 3 -10 -1 -10 -9 0
-22 25 -9 39 20 6 14 16 22 21 19 6 -3 10 -1 10 5 0 6 4 9 9 5 5 -3 11 3 13
12 3 16 6 15 28 -7 22 -22 23 -25 7 -28 -9 -2 -15 -8 -12 -13 4 -5 -1 -9 -9
-9 -9 0 -13 -6 -10 -15 7 -18 24 -15 44 6 14 14 17 14 38 -8 12 -12 19 -23 13
-23 -5 0 -12 -7 -15 -16 -5 -13 -1 -15 19 -10 20 5 27 2 37 -19 6 -14 15 -25
20 -25 4 0 8 -6 8 -14 0 -7 14 -27 30 -44 17 -18 30 -38 30 -46 0 -8 7 -16 15
-20 8 -3 23 -21 32 -41 9 -19 20 -35 25 -35 4 0 8 -6 8 -13 0 -7 8 -22 19 -33
11 -12 18 -34 17 -55 0 -19 4 -36 9 -37 6 -2 16 -9 24 -15 12 -10 12 -9 1 9
-16 27 -7 56 15 48 12 -5 16 -17 14 -44 -2 -21 1 -44 7 -52 5 -7 16 -25 24
-40 7 -16 17 -28 22 -28 4 0 8 -9 8 -20 0 -11 3 -20 8 -20 11 0 32 -51 32 -80
0 -14 -5 -31 -11 -37 -9 -9 -6 -10 10 -6 19 5 22 2 19 -18 -2 -20 1 -24 22
-21 19 2 22 1 10 -7 -12 -8 -12 -13 -2 -23 13 -13 17 -40 4 -35 -7 2 -12 -6
-12 -23 0 -14 27 -12 33 3 3 6 6 2 6 -10 1 -13 6 -23 11 -23 23 0 8 -29 -17
-32 -25 -3 -26 -4 -10 -20 21 -20 21 -32 2 -48 -11 -9 -15 -10 -15 -1 0 7 -9
11 -20 9 -31 -5 -25 -22 10 -29 20 -4 36 -2 45 7 18 18 35 18 35 -1 0 -8 5
-15 10 -15 19 0 10 -29 -11 -35 l-21 -7 22 -15 c16 -12 19 -18 9 -29 -6 -8
-17 -14 -25 -14 -24 0 -26 -20 -2 -29 27 -10 39 -4 18 9 -11 7 -8 10 13 10 17
0 27 -5 27 -15 0 -8 -4 -15 -10 -15 -5 0 -10 -7 -10 -15 0 -13 4 -14 21 -4 20
10 21 9 16 -10 -3 -14 0 -21 9 -21 25 0 15 -20 -31 -66 -27 -27 -42 -50 -38
-59 7 -19 23 -20 23 -2 0 8 14 26 30 40 l30 27 0 -30 c0 -16 5 -30 10 -30 6 0
10 -8 9 -17 0 -11 -3 -13 -6 -5 -7 17 -38 15 -53 -3 -10 -12 -9 -15 6 -16 18
0 18 -1 -1 -9 -13 -6 -15 -9 -5 -9 15 -1 44 -36 46 -56 0 -5 4 -18 9 -28 4 -9
5 -25 3 -35 -4 -13 3 -22 23 -31 30 -13 37 -39 17 -59 -9 -9 -8 -12 6 -12 14
0 17 -6 14 -29 -3 -20 0 -27 8 -24 16 6 27 -14 17 -29 -13 -22 -12 -38 4 -38
9 0 13 -8 11 -22 -2 -16 1 -22 12 -20 8 2 12 0 8 -3 -4 -4 0 -21 8 -38 9 -16
14 -40 11 -53 -3 -17 0 -24 11 -24 9 0 13 -7 9 -20 -3 -12 0 -20 7 -20 11 0
14 -14 21 -95 1 -16 5 -38 9 -47 4 -9 5 -21 2 -27 -3 -5 1 -16 9 -24 8 -9 15
-23 15 -31 0 -9 5 -16 11 -16 7 0 10 -12 7 -30 -3 -20 0 -30 9 -30 8 0 13 -12
13 -30 0 -17 5 -30 13 -31 6 0 -3 -5 -22 -12 -34 -12 -53 -47 -25 -47 19 0 18
-39 -1 -61 -14 -15 -14 -18 0 -32 26 -26 15 -71 -17 -72 -5 0 -8 -4 -7 -10 1
-5 5 -9 10 -7 5 1 9 -11 9 -28 0 -16 5 -30 10 -30 6 0 10 -18 10 -40 0 -22 5
-40 10 -40 6 0 10 -11 10 -25 0 -18 -5 -25 -19 -25 -11 0 -21 -5 -23 -12 -6
-18 3 -58 13 -58 5 0 9 -29 9 -64 l0 -63 -60 -13 c-33 -7 -60 -17 -61 -21 -6
-62 -1 -85 19 -94 12 -5 22 -14 22 -20 0 -13 -57 -38 -69 -31 -15 10 -40 -22
-34 -43 7 -27 -24 -34 -123 -27 -44 2 -94 5 -111 5 -32 0 -33 1 -33 46 0 41 2
45 25 45 22 0 25 -4 25 -37 0 -47 7 -40 11 12 4 39 3 40 -24 37 -15 -2 -33 1
-40 6 -9 8 -11 -1 -9 -37 3 -33 -1 -51 -11 -60 -13 -10 -17 -9 -25 6 -13 24
-21 133 -10 133 4 0 8 7 8 15 0 8 -4 15 -10 15 -16 0 -12 27 8 46 20 20 25 54
8 54 -7 0 -17 -5 -24 -12 -6 -6 -15 -8 -19 -4 -13 12 -20 179 -9 201 8 18 7
19 -7 6 -15 -12 -17 -10 -17 20 0 19 -7 68 -16 109 -8 41 -19 95 -24 120 -4
25 -15 65 -24 90 -9 25 -16 57 -16 72 0 24 -15 46 -25 36 -2 -2 5 -48 16 -103
11 -55 27 -136 35 -180 8 -44 17 -87 20 -95 7 -16 14 -69 37 -295 37 -349 40
-413 28 -620 -8 -136 -22 -252 -42 -365 -29 -155 -37 -191 -73 -322 -27 -95
-133 -392 -170 -473 -14 -30 -26 -64 -26 -74 0 -15 -66 -150 -167 -346 -6 -11
-22 -42 -35 -70 -14 -27 -43 -84 -65 -125 -22 -41 -42 -84 -46 -95 -4 -11 -31
-58 -60 -105 -30 -47 -90 -143 -133 -215 -103 -172 -169 -275 -359 -556 -47
-69 -85 -134 -85 -144 0 -10 -21 -42 -47 -72 -27 -30 -59 -70 -73 -88 -14 -18
-110 -144 -215 -279 -104 -136 -203 -264 -218 -284 -58 -76 -314 -387 -487
-591 -239 -282 -724 -796 -741 -785 -15 9 -10 34 7 34 9 0 14 7 12 18 -2 11
-11 16 -26 14 -12 -2 -22 2 -22 7 0 6 -11 11 -25 11 -14 0 -25 -5 -25 -10 0
-6 -10 0 -23 12 l-23 23 24 24 c31 31 11 43 -21 13 l-22 -21 -33 33 c-17 18
-32 38 -32 44 0 6 -5 12 -10 14 -6 2 -11 14 -11 28 -2 60 -11 100 -25 100 -8
0 -23 9 -34 20 -11 11 -24 20 -30 20 -5 0 -10 7 -10 15 0 8 -9 34 -19 58 -11
23 -24 59 -30 81 -5 21 -17 46 -26 56 -9 9 -17 27 -20 39 -2 12 -13 34 -24 50
-12 16 -21 41 -21 54 0 14 -4 28 -9 31 -10 7 -34 56 -76 156 -37 87 -52 119
-75 155 -10 17 -19 37 -19 46 -1 8 -10 34 -21 57 -11 22 -20 50 -20 60 0 11
-7 25 -15 32 -8 7 -15 18 -15 25 0 7 -6 18 -14 24 -7 6 -16 27 -19 46 -3 18
-22 66 -41 106 -20 40 -36 81 -36 91 0 10 -9 27 -20 38 -11 11 -20 31 -20 44
0 13 -7 29 -15 36 -8 7 -15 18 -15 25 0 7 -7 18 -16 26 -8 7 -13 21 -11 30 3
10 -1 23 -9 30 -8 6 -14 20 -14 30 0 11 -4 19 -10 19 -5 0 -10 8 -10 19 0 10
-11 39 -25 64 -14 25 -28 56 -30 69 -3 13 -9 33 -15 46 -5 12 -15 34 -21 50
-6 15 -15 35 -20 44 -5 10 -9 23 -9 29 0 6 -7 17 -15 25 -8 9 -15 27 -15 41 0
25 -28 85 -42 91 -5 2 -8 9 -8 16 0 7 -9 21 -20 31 -11 10 -18 21 -15 25 2 3
-3 19 -11 34 -7 16 -14 37 -14 47 0 10 -4 21 -10 24 -5 3 -10 18 -10 33 0 15
-13 54 -30 85 -16 32 -30 64 -30 72 0 7 -6 26 -14 42 -8 15 -22 46 -31 68 -9
22 -20 48 -25 57 -6 10 -10 24 -10 31 0 7 -12 37 -26 67 -14 29 -23 61 -21 71
3 11 -3 30 -14 43 -10 13 -19 31 -19 40 0 8 -9 31 -20 51 -11 20 -20 46 -20
58 0 12 -4 28 -9 36 -6 9 -3 21 10 34 25 27 25 47 -1 40 -16 -4 -20 0 -20 19
0 13 5 29 11 35 7 7 8 20 5 30 -7 16 -9 16 -21 -7 l-13 -25 -9 35 c-8 29 -13
34 -33 32 -19 -3 -22 -1 -13 10 17 22 21 67 7 79 -8 6 -14 24 -14 40 0 16 -4
29 -9 29 -5 0 -9 38 -8 84 0 71 -3 88 -21 111 -17 21 -19 31 -11 41 14 17 5
44 -16 44 -11 0 -15 11 -15 40 0 22 -4 40 -10 40 -6 0 -10 27 -10 60 0 33 -4
60 -10 60 -5 0 -10 23 -10 50 0 28 -4 50 -10 50 -6 0 -10 75 -10 205 0 130 4
205 10 205 6 0 10 9 10 20 0 11 5 20 10 20 6 0 10 7 10 15 0 9 16 31 35 50 34
35 35 35 125 35 53 0 90 -4 90 -10 0 -5 14 -10 30 -10 17 0 30 -4 30 -10 0 -5
14 -10 30 -10 17 0 30 -4 30 -10 0 -5 10 -10 23 -11 12 0 16 -3 10 -6 -15 -6
-17 -33 -3 -33 6 0 10 -8 9 -17 0 -11 -3 -13 -6 -5 -2 6 -9 12 -15 12 -6 0 -3
-9 7 -20 17 -19 41 -19 30 0 -3 5 9 13 27 18 24 6 34 5 36 -4 2 -6 11 -10 20
-7 10 2 29 -8 46 -26 17 -17 36 -31 43 -31 15 0 18 -27 3 -32 -6 -2 -6 -9 0
-18 8 -13 13 -13 30 -2 22 13 41 2 112 -64 9 -9 28 -14 43 -12 l27 3 -24 25
c-14 14 -54 47 -89 75 -35 27 -85 70 -112 94 -26 25 -60 54 -75 65 -15 11 -65
61 -112 111 -47 50 -112 120 -146 155 -131 141 -332 407 -470 625 -109 173
-335 605 -359 685 -4 14 -13 39 -20 55 -53 118 -134 346 -155 435 -5 19 -23
89 -40 155 -36 138 -33 124 -59 275 -25 145 -30 216 -36 520 -5 253 -2 293 34
445 63 263 137 424 272 590 93 115 159 169 314 257 50 28 104 59 120 68 17 9
98 57 180 106 191 113 256 145 358 177 125 39 236 51 379 43 181 -12 179 -11
228 -25 25 -7 70 -20 100 -28 321 -89 672 -296 1000 -590 297 -266 496 -499
755 -886 91 -136 225 -380 324 -587 83 -174 101 -220 174 -435 22 -66 46 -133
53 -150 16 -39 50 -164 65 -235 6 -30 15 -73 21 -95 34 -141 70 -539 64 -715
-2 -80 -7 -152 -11 -161 -3 -9 -10 -56 -15 -105 -12 -121 -17 -143 -56 -266
-32 -102 -54 -159 -77 -203 -6 -11 -24 -45 -39 -75 -16 -30 -40 -66 -54 -81
-13 -14 -24 -31 -24 -37 0 -7 -20 -34 -44 -60 -24 -26 -48 -57 -55 -69 -6 -13
-16 -23 -21 -23 -5 0 -39 -22 -76 -50 -37 -27 -72 -50 -79 -50 -7 0 -23 -8
-36 -19 -13 -10 -44 -29 -69 -42 -25 -13 -62 -37 -82 -53 -24 -17 -44 -26 -54
-22 -15 6 -14 9 6 31 13 14 31 25 41 25 9 0 19 7 22 15 4 8 25 26 47 40 39 25
41 28 26 44 -20 22 -20 31 -2 31 8 0 13 11 13 28 0 15 3 43 7 62 l7 35 -21
-25 c-12 -14 -33 -47 -47 -75 -34 -66 -122 -191 -170 -238 -45 -45 -272 -197
-323 -217 -19 -7 -42 -19 -50 -26 -8 -7 -41 -15 -73 -19 -55 -7 -87 -24 -50
-26 39 -3 88 3 98 12 5 5 18 9 30 9 12 0 25 4 30 9 16 14 136 43 152 37 9 -4
22 -1 29 5 9 7 30 9 59 5 34 -6 45 -4 45 6 0 9 14 13 47 12 56 -1 113 12 113
27 0 17 23 35 63 48 20 7 39 17 42 22 3 4 39 34 80 64 41 31 84 73 97 93 12
20 44 60 71 89 37 40 47 57 42 72 -7 24 -2 26 26 11 14 -8 27 -7 47 4 15 7 47
19 72 26 64 18 108 41 128 69 9 13 22 28 27 35 24 26 45 67 45 85 0 11 4 23
10 26 5 3 10 15 10 26 0 11 9 29 20 41 11 12 20 35 20 52 0 16 8 39 18 50 10
12 24 46 31 76 7 30 17 68 23 83 8 21 8 34 -2 51 -9 19 -9 28 0 46 11 21 43
286 41 335 -1 11 -4 74 -8 140 -3 66 -7 165 -9 220 -2 117 -12 216 -23 230
-15 20 -30 92 -29 139 0 27 -5 51 -11 55 -6 4 -11 21 -10 37 1 28 -19 94 -32
104 -4 3 -12 39 -19 80 -14 86 -47 168 -84 205 -14 14 -32 46 -41 72 -9 26
-20 52 -25 58 -5 6 -10 28 -12 50 -3 34 -6 40 -25 39 -26 -1 -28 8 -11 36 10
15 8 38 -11 117 -13 54 -32 114 -42 133 -9 19 -23 52 -29 73 -6 20 -15 37 -20
37 -5 0 -16 20 -26 45 -9 26 -28 54 -41 64 -12 11 -23 26 -23 35 0 8 -8 30
-18 48 -44 78 -94 177 -96 190 -5 31 -62 138 -73 138 -7 0 -13 7 -13 16 0 9
-13 32 -30 51 -16 18 -30 38 -30 44 0 19 -62 98 -82 104 -10 4 -18 15 -18 26
0 10 -9 24 -20 31 -11 7 -20 18 -20 23 0 6 -18 29 -40 50 -24 23 -40 48 -40
62 0 15 -8 27 -21 31 -11 5 -21 12 -22 17 -1 6 -6 8 -12 7 -5 -2 -7 0 -3 3 11
11 -20 65 -37 65 -7 0 -22 14 -32 30 -9 17 -24 32 -33 35 -8 3 -25 26 -37 53
-14 29 -33 54 -50 62 -36 19 -93 72 -87 82 3 4 -1 5 -8 3 -17 -7 -73 50 -64
64 4 6 1 11 -7 11 -8 0 -29 16 -47 36 -17 20 -38 37 -46 38 -9 1 -27 14 -42
29 -57 55 -71 66 -77 57 -10 -15 -35 -12 -35 5 0 8 -13 24 -30 37 -16 12 -30
29 -30 39 0 10 -11 19 -31 23 -17 3 -40 17 -51 31 -11 14 -24 23 -29 20 -5 -4
-9 -1 -9 4 0 6 -8 11 -18 11 -10 0 -28 10 -40 23 -17 17 -30 22 -52 19 -26 -4
-29 -2 -23 14 5 13 3 16 -9 11 -10 -3 -19 0 -22 9 -3 8 -11 14 -18 13 -25 -3
-58 14 -58 29 0 8 -3 13 -6 9 -4 -3 -19 0 -34 8 -15 8 -37 11 -50 8 -19 -5
-22 -3 -17 12 6 14 3 16 -12 12 -14 -3 -25 3 -36 19 -8 13 -25 24 -37 24 -12
0 -39 12 -60 26 -30 22 -41 24 -52 14 -12 -9 -23 -9 -53 1 -21 7 -42 17 -48
21 -5 4 -23 8 -40 8 -18 0 -35 3 -39 7 -17 17 -454 74 -462 61 -3 -4 -27 -8
-54 -8 -60 0 -189 -19 -212 -31 -10 -5 -29 -9 -42 -9 -14 0 -28 -4 -31 -10 -3
-5 -19 -10 -35 -10 -15 0 -30 -3 -32 -7 -1 -5 -30 -21 -63 -38 -33 -16 -86
-44 -118 -62 -63 -35 -99 -44 -78 -19 10 12 9 14 -6 11 -10 -2 -21 -4 -25 -4
-13 -2 -9 -31 5 -31 6 0 -1 -7 -18 -16 -16 -8 -40 -13 -53 -11 -17 3 -26 -2
-34 -18 -6 -13 -23 -25 -39 -29 -18 -3 -29 -12 -29 -22 0 -12 -6 -14 -30 -9
-23 5 -30 3 -30 -9 0 -9 -8 -16 -17 -16 -10 0 -29 -14 -42 -31 -24 -30 -27
-31 -82 -25 -61 7 -79 -2 -54 -27 13 -13 12 -16 -8 -23 -22 -7 -39 -11 -64
-13 -7 -1 -13 -8 -13 -16 0 -23 -48 -68 -65 -61 -8 3 -15 1 -15 -5 0 -18 -51
-61 -65 -55 -8 3 -15 1 -15 -5 0 -18 -51 -61 -65 -55 -8 3 -15 1 -15 -5 0 -14
-46 -59 -61 -59 -6 0 -24 -13 -39 -30 -17 -18 -38 -30 -54 -30 -14 0 -26 -4
-26 -10 0 -5 -9 -10 -20 -10 -11 0 -20 -4 -20 -10 0 -5 -16 -10 -35 -10 -19 0
-35 5 -35 10 0 6 -7 10 -15 10 -19 0 -85 64 -85 82 0 8 -9 20 -20 28 -12 8
-20 26 -20 42 0 15 -4 28 -10 28 -5 0 -10 14 -10 30 0 17 -4 30 -10 30 -6 0
-10 27 -10 60 0 33 -4 60 -10 60 -6 0 -10 58 -10 155 0 97 4 155 10 155 6 0
10 27 10 60 0 33 4 60 10 60 6 0 10 23 10 50 0 28 5 50 10 50 6 0 10 18 10 40
0 27 4 40 13 40 9 0 12 10 9 30 -3 18 0 30 7 30 6 0 11 8 11 19 0 10 6 24 14
30 8 7 12 21 9 31 -4 14 0 20 10 20 10 0 13 6 10 20 -4 14 0 20 10 20 10 0 13
6 10 18 -2 10 2 24 11 31 8 7 12 19 10 26 -3 8 4 24 15 36 12 13 21 27 21 31
0 5 11 21 24 35 13 14 22 32 19 39 -5 14 19 44 36 44 6 0 8 6 5 14 -3 8 8 29
25 47 17 17 31 36 31 41 0 5 23 31 50 59 28 27 50 54 50 60 0 12 147 159 159
159 6 0 32 22 58 48 27 27 61 52 76 56 15 3 27 11 27 17 0 23 30 40 67 37 36
-3 38 -2 39 27 0 38 10 55 31 55 9 0 23 8 32 18 22 24 57 42 80 42 25 0 82 33
100 58 7 11 21 17 31 15 9 -3 24 3 33 11 11 11 35 16 79 17 35 0 83 4 108 8
34 6 19 8 -63 8 -59 0 -110 -4 -113 -9 -3 -4 -17 -8 -32 -8 -49 0 -259 -48
-324 -74 -36 -14 -69 -26 -74 -26 -16 0 -247 -134 -299 -174 -432 -331 -701
-930 -745 -1660 -15 -247 -12 -403 11 -591 11 -88 22 -168 25 -178 3 -9 14
-68 24 -130 23 -137 35 -196 54 -267 9 -30 27 -109 42 -175 30 -136 102 -411
138 -530 14 -44 32 -107 41 -140 61 -220 288 -914 430 -1310 26 -71 64 -182
86 -245 22 -63 45 -126 53 -140 7 -14 26 -61 41 -105 33 -96 122 -342 135
-370 22 -50 70 -178 70 -186 0 -5 8 -28 19 -52 10 -23 24 -58 32 -77 7 -19 25
-62 39 -95 15 -33 42 -100 59 -150 18 -49 41 -112 53 -140 11 -27 24 -59 28
-70 4 -11 26 -64 49 -118 22 -54 41 -103 41 -108 0 -9 32 -86 50 -121 5 -9 23
-54 40 -100 17 -45 40 -101 50 -123 10 -22 28 -67 40 -100 12 -33 25 -69 30
-80 15 -36 72 -160 81 -177 5 -10 9 -22 9 -28 0 -5 13 -38 28 -72 16 -35 48
-112 72 -173 24 -60 51 -121 60 -135 9 -14 27 -59 40 -100 13 -41 27 -79 32
-84 4 -6 8 -18 8 -27 0 -9 6 -19 14 -22 7 -3 16 -17 20 -32 4 -15 15 -46 25
-69 10 -22 24 -57 31 -76 7 -19 26 -64 42 -100 16 -36 33 -74 38 -85 4 -11 15
-36 23 -55 8 -19 32 -78 52 -130 45 -117 55 -138 76 -170 9 -14 24 -47 33 -74
16 -46 42 -107 72 -170 8 -16 14 -33 14 -39 0 -5 20 -50 44 -101 24 -50 47
-102 51 -116 4 -14 16 -43 27 -65 11 -22 24 -48 29 -57 5 -10 9 -24 9 -31 0
-8 17 -45 38 -83 37 -68 82 -169 82 -185 0 -4 14 -39 31 -76 17 -37 36 -79 41
-93 6 -14 22 -47 35 -75 14 -27 31 -65 38 -85 15 -42 49 -118 80 -180 12 -25
53 -117 90 -205 37 -88 73 -166 80 -174 11 -11 22 -7 66 21 30 18 67 39 82 46
15 7 54 29 85 49 31 20 75 46 97 58 65 35 90 50 95 56 3 3 21 13 40 22 19 10
75 42 124 72 49 30 91 55 93 55 2 0 22 12 46 27 64 42 80 51 105 63 13 5 42
23 65 38 23 16 58 36 77 45 31 14 231 215 330 330 19 23 67 75 105 117 79 86
287 322 385 439 179 213 269 321 344 416 31 39 74 93 96 120 23 28 62 77 88
109 26 33 58 71 71 85 13 14 49 64 81 111 31 47 81 115 111 151 111 136 167
213 198 270 11 19 39 60 64 90 24 30 70 92 102 139 32 47 82 119 110 160 29
41 60 91 70 110 10 19 32 53 50 76 18 22 43 57 54 77 51 90 59 104 85 141 14
21 26 45 26 52 0 7 13 28 28 46 16 18 35 47 44 63 19 38 50 93 81 142 13 21
35 61 49 88 14 28 45 86 68 130 76 144 118 231 219 447 17 37 31 73 31 80 0 7
12 36 26 63 14 28 29 64 34 80 5 17 25 75 45 130 63 170 126 406 151 565 8 52
17 102 19 110 4 12 15 221 18 320 0 8 -3 41 -7 72 -6 50 -5 57 8 52 18 -7 21
7 6 22 -10 10 -23 122 -50 409 -11 112 -26 212 -45 290 -8 33 -26 121 -41 195
-15 74 -31 146 -36 160 -5 14 -13 43 -17 65 -5 22 -25 96 -46 165 -21 69 -41
141 -46 160 -4 19 -12 51 -18 70 -5 19 -14 51 -20 70 -11 42 -48 143 -66 185
-7 17 -20 50 -28 75 -30 87 -132 324 -215 500 -38 78 -188 357 -276 510 -53
92 -213 329 -247 365 -15 17 -51 72 -78 123 -58 105 -201 327 -252 388 -19 23
-50 63 -69 89 -135 184 -286 353 -547 610 -193 191 -285 276 -382 352 -36 29
-83 67 -104 84 -58 47 -256 191 -323 234 -140 90 -167 107 -197 124 -18 10
-66 38 -107 61 -76 44 -292 150 -305 150 -4 0 -37 14 -73 31 -37 17 -78 35
-92 39 -14 5 -56 20 -95 34 -129 48 -378 107 -540 126 -71 9 -351 10 -445 3z
m3947 -3905 c-3 -8 -6 -5 -6 6 -1 11 2 17 5 13 3 -3 4 -12 1 -19z m120 -455
c-3 -10 -5 -4 -5 12 0 17 2 24 5 18 2 -7 2 -21 0 -30z m20 -45 c-3 -8 -6 -5
-6 6 -1 11 2 17 5 13 3 -3 4 -12 1 -19z m63 -1813 c0 -8 -7 -15 -15 -15 -8 0
-15 7 -15 15 0 8 7 15 15 15 8 0 15 -7 15 -15z"/>
<path d="M4730 17551 c0 -12 32 -31 54 -31 9 0 16 7 16 15 0 8 -9 15 -19 15
-11 0 -26 3 -35 6 -9 3 -16 1 -16 -5z"/>
<path d="M4796 17472 c5 -5 25 -14 44 -21 19 -7 44 -17 55 -21 44 -17 105 -33
110 -28 6 6 -47 28 -136 57 -72 23 -88 26 -73 13z"/>
<path d="M5040 17386 c0 -2 14 -9 31 -15 27 -9 30 -9 19 4 -11 13 -50 22 -50
11z"/>
<path d="M5130 17350 c0 -5 10 -10 23 -10 18 0 19 2 7 10 -19 13 -30 13 -30 0z"/>
<path d="M3470 17169 c0 -5 5 -7 10 -4 6 3 10 8 10 11 0 2 -4 4 -10 4 -5 0
-10 -5 -10 -11z"/>
<path d="M12495 16450 c-3 -6 1 -7 9 -4 18 7 21 14 7 14 -6 0 -13 -4 -16 -10z"/>
<path d="M7755 16340 c10 -11 20 -18 23 -16 5 6 -23 36 -34 36 -4 0 1 -9 11
-20z"/>
<path d="M12325 16325 c-15 -14 -26 -27 -24 -30 3 -2 18 7 34 20 15 14 26 27
24 30 -3 2 -18 -7 -34 -20z"/>
<path d="M12253 16275 c-19 -21 -16 -27 7 -13 11 7 20 16 20 20 0 12 -14 9
-27 -7z"/>
<path d="M12160 16199 c0 -5 5 -7 10 -4 6 3 10 8 10 11 0 2 -4 4 -10 4 -5 0
-10 -5 -10 -11z"/>
<path d="M12092 16155 c-7 -8 -9 -15 -4 -15 5 0 15 7 22 15 16 19 -1 19 -18 0z"/>
<path d="M12554 16147 c-3 -8 1 -64 8 -124 12 -101 14 -108 37 -111 23 -4 23
-3 20 77 -2 45 -2 81 0 81 3 0 101 -79 111 -90 17 -19 123 -100 131 -100 17 0
22 29 7 42 -7 7 -38 33 -68 58 -30 25 -61 51 -69 58 -8 7 -24 20 -37 29 -38
25 -28 31 34 20 92 -16 107 -15 107 8 0 21 -17 26 -135 45 -36 5 -82 13 -102
16 -29 5 -39 3 -44 -9z"/>
<path d="M7966 16122 c-5 -9 18 -42 30 -42 8 0 4 16 -9 35 -9 11 -16 14 -21 7z"/>
<path d="M8045 16041 c-3 -5 -1 -12 5 -16 5 -3 10 1 10 9 0 18 -6 21 -15 7z"/>
<path d="M14203 15948 c-77 -79 -87 -99 -86 -173 0 -45 6 -73 26 -112 30 -59
51 -78 422 -384 121 -100 209 -173 255 -212 71 -61 128 -107 134 -107 22 0
-10 32 -131 132 -515 423 -614 509 -635 557 -11 25 -26 58 -33 73 -12 24 -11
32 5 65 10 21 43 67 74 101 105 118 92 137 -17 24 -31 -33 -57 -55 -57 -48 0
6 18 30 41 51 47 46 84 95 72 95 -5 0 -36 -28 -70 -62z"/>
<path d="M14445 15739 c-26 -23 -35 -39 -35 -63 0 -54 17 -64 25 -15 10 59 34
80 106 93 73 13 143 -44 139 -112 -3 -44 0 -48 15 -22 17 30 10 67 -19 98 -34
38 -71 52 -135 52 -53 0 -64 -4 -96 -31z"/>
<path d="M3585 15680 c-8 -13 9 -20 24 -11 10 6 9 10 -3 14 -8 3 -18 2 -21 -3z"/>
<path d="M3404 15635 c-4 -9 -3 -19 0 -23 9 -8 42 12 39 24 -4 16 -33 16 -39
-1z"/>
<path d="M7845 15501 c-3 -5 -1 -12 5 -16 5 -3 10 1 10 9 0 18 -6 21 -15 7z"/>
<path d="M2730 15480 c0 -5 5 -10 11 -10 5 0 7 5 4 10 -3 6 -8 10 -11 10 -2 0
-4 -4 -4 -10z"/>
<path d="M2750 15420 c0 -5 5 -10 11 -10 5 0 7 5 4 10 -3 6 -8 10 -11 10 -2 0
-4 -4 -4 -10z"/>
<path d="M3200 15415 c-11 -13 -10 -14 4 -9 9 3 16 10 16 15 0 13 -6 11 -20
-6z"/>
<path d="M2770 15382 c0 -7 4 -12 9 -12 5 0 11 -8 13 -17 2 -12 6 -14 10 -7 4
6 -1 19 -12 29 -12 10 -20 13 -20 7z"/>
<path d="M11730 15383 c-8 -3 -23 -16 -33 -27 -25 -28 -16 -68 28 -125 39 -50
42 -62 18 -86 -12 -12 -26 -15 -51 -11 -58 9 -116 80 -82 101 16 10 12 42 -6
49 -25 9 -54 -22 -54 -57 0 -101 155 -178 238 -119 44 32 42 64 -8 138 -22 33
-40 64 -40 70 0 6 12 16 26 23 22 10 31 9 57 -6 44 -26 54 -46 40 -82 -20 -55
34 -70 59 -16 25 56 -54 144 -135 151 -23 2 -49 1 -57 -3z"/>
<path d="M14935 15376 c-43 -19 -67 -58 -56 -90 14 -35 36 -46 27 -13 -8 34 8
67 47 95 35 25 28 28 -18 8z"/>
<path d="M14998 15383 c7 -3 16 -2 19 1 4 3 -2 6 -13 5 -11 0 -14 -3 -6 -6z"/>
<path d="M7627 15365 c-4 -8 -2 -17 2 -20 5 -2 11 4 14 15 6 23 -8 27 -16 5z"/>
<path d="M7719 15353 c-20 -40 -36 -54 -56 -51 -15 2 -17 -3 -15 -32 1 -19 7
-36 12 -38 5 -2 15 -22 21 -45 14 -54 25 -66 51 -59 18 4 20 2 16 -16 -4 -15
-2 -22 8 -22 8 0 14 -4 14 -8 0 -5 11 -14 25 -20 14 -6 25 -18 25 -26 0 -8 12
-24 28 -36 15 -12 25 -23 22 -25 -3 -2 -2 -7 3 -11 4 -4 7 1 7 12 0 10 3 30 7
43 5 20 3 23 -11 18 -13 -5 -19 -1 -23 13 -3 11 -11 20 -18 20 -8 0 -24 15
-36 33 -13 17 -27 34 -31 35 -4 2 -8 12 -8 22 0 10 -6 21 -12 23 -10 4 -10 6
0 6 6 1 12 10 12 21 0 11 5 20 10 20 6 0 10 7 10 15 0 8 -4 15 -10 15 -5 0
-10 9 -10 20 0 14 -7 20 -22 20 -13 0 -18 3 -12 8 13 8 34 46 34 61 0 22 -27
10 -41 -16z"/>
<path d="M3021 15356 c-4 -6 -14 -25 -22 -43 -13 -30 -17 -32 -74 -36 -57 -3
-56 -3 18 -5 l77 -2 0 41 c0 22 4 38 9 35 5 -3 14 0 20 7 8 10 7 14 -4 14 -9
0 -19 -5 -24 -11z"/>
<path d="M3120 15355 c-11 -13 -10 -14 4 -9 9 3 16 10 16 15 0 13 -6 11 -20
-6z"/>
<path d="M7660 15360 c-12 -8 -10 -10 8 -10 13 0 20 4 17 10 -7 12 -6 12 -25
0z"/>
<path d="M15061 15351 c13 -11 26 -18 28 -15 7 7 -21 34 -36 34 -10 0 -8 -6 8
-19z"/>
<path d="M2820 15320 c-12 -8 -11 -10 7 -10 12 0 23 -6 26 -12 2 -7 7 -10 11
-7 12 12 -29 38 -44 29z"/>
<path d="M3065 15320 c-3 -5 -1 -10 4 -10 6 0 11 5 11 10 0 6 -2 10 -4 10 -3
0 -8 -4 -11 -10z"/>
<path d="M7775 15320 c-19 -8 -19 -9 3 -9 12 -1 22 4 22 9 0 6 -1 10 -2 9 -2
0 -12 -4 -23 -9z"/>
<path d="M7803 15303 c-7 -3 -13 -15 -13 -28 0 -22 2 -22 29 -12 39 14 23 53
-16 40z"/>
<path d="M15101 15284 c0 -11 3 -14 6 -6 3 7 2 16 -1 19 -3 4 -6 -2 -5 -13z"/>
<path d="M7866 15225 c-15 -11 -16 -15 -5 -16 8 -1 3 -5 -11 -9 -24 -8 -24 -8
-2 -9 12 -1 25 -2 29 -3 3 -2 7 9 7 25 1 15 2 27 1 27 0 0 -9 -7 -19 -15z"/>
<path d="M7825 15220 c-3 -5 -1 -10 4 -10 6 0 11 5 11 10 0 6 -2 10 -4 10 -3
0 -8 -4 -11 -10z"/>
<path d="M7926 15221 c-4 -5 -2 -12 3 -15 5 -4 12 -2 15 3 4 5 2 12 -3 15 -5
4 -12 2 -15 -3z"/>
<path d="M8010 15212 c0 -7 -7 -12 -16 -12 -8 0 -12 -5 -8 -11 4 -7 11 -6 22
5 9 8 13 19 9 22 -4 4 -7 2 -7 -4z"/>
<path d="M7790 15156 c0 -16 7 -27 20 -31 11 -3 20 -11 20 -16 0 -5 7 -9 16
-9 17 0 17 1 -11 47 -24 39 -45 43 -45 9z"/>
<path d="M8085 15150 c10 -11 20 -20 23 -20 3 0 -3 9 -13 20 -10 11 -20 20
-23 20 -3 0 3 -9 13 -20z"/>
<path d="M11844 15110 c-65 -46 -79 -104 -36 -153 42 -48 147 -63 147 -22 0
17 -8 21 -45 23 -45 3 -80 24 -80 47 0 7 8 23 18 35 l17 21 25 -21 c57 -50
108 -90 114 -90 10 0 29 20 50 52 25 38 15 91 -23 118 -46 32 -134 27 -187
-10z m144 -16 c29 -8 40 -50 19 -71 -14 -14 -20 -12 -61 23 -32 26 -42 40 -33
46 14 9 44 10 75 2z"/>
<path d="M8210 15105 c0 -8 4 -15 8 -15 5 0 9 7 9 15 0 8 -4 15 -9 15 -4 0 -8
-7 -8 -15z"/>
<path d="M8150 15107 c0 -2 14 -16 31 -33 16 -16 28 -22 24 -14 -5 13 -55 56
-55 47z"/>
<path d="M8253 15081 c-18 -5 -20 -9 -10 -26 18 -30 43 -30 42 0 -2 31 -5 33
-32 26z"/>
<path d="M7760 15056 c0 -2 7 -9 15 -16 13 -11 14 -10 9 4 -5 14 -24 23 -24
12z"/>
<path d="M11365 14964 c-38 -30 -78 -61 -87 -68 -48 -41 -86 -46 -113 -16 -18
20 -18 21 4 44 20 22 21 25 6 40 -9 9 -20 16 -25 16 -13 0 -60 -60 -60 -76 0
-8 18 -32 40 -54 34 -34 46 -40 83 -40 35 0 52 8 107 50 36 28 86 65 112 83
50 33 56 45 36 65 -19 19 -28 15 -103 -44z"/>
<path d="M12049 14938 c-52 -39 -94 -78 -94 -87 0 -30 35 -23 83 17 60 50 84
62 120 62 32 0 65 -30 57 -51 -3 -8 -37 -36 -75 -64 -69 -50 -84 -77 -45 -83
24 -3 154 98 173 135 12 23 12 29 -5 52 -11 14 -34 30 -51 36 -18 5 -34 17
-37 26 -11 34 -34 26 -126 -43z"/>
<path d="M7750 14986 c0 -2 8 -10 18 -17 15 -13 16 -12 3 4 -13 16 -21 21 -21
13z"/>
<path d="M7887 14950 c-3 -11 -2 -22 3 -25 4 -3 10 4 13 15 3 11 2 22 -3 25
-4 3 -10 -4 -13 -15z"/>
<path d="M7820 14945 c0 -8 7 -15 15 -15 8 0 15 7 15 15 0 8 -7 15 -15 15 -8
0 -15 -7 -15 -15z"/>
<path d="M7923 14922 c-6 -4 -13 -27 -14 -51 -3 -35 0 -45 13 -47 13 -1 17 9
20 48 3 52 0 61 -19 50z m4 -64 c-2 -13 -4 -5 -4 17 -1 22 1 32 4 23 2 -10 2
-28 0 -40z"/>
<path d="M11382 14858 c-93 -45 -119 -120 -60 -177 31 -30 52 -37 113 -33 39
3 73 19 113 56 56 52 37 130 -41 164 -39 17 -75 14 -125 -10z m130 -45 c26
-23 22 -45 -14 -80 -42 -40 -98 -52 -133 -29 -40 27 -31 59 30 103 36 27 91
29 117 6z"/>
<path d="M12259 14800 c-89 -47 -115 -126 -58 -174 17 -14 37 -26 44 -26 8 0
19 -9 25 -20 6 -11 16 -20 23 -20 7 0 53 32 102 71 50 39 102 78 117 87 15 9
30 22 33 30 13 35 -31 44 -60 12 -25 -27 -38 -25 -53 8 -23 53 -105 68 -173
32z m135 -52 c25 -36 -15 -87 -86 -109 -31 -10 -41 -9 -63 5 -31 20 -32 43 -2
77 31 36 56 48 99 49 27 0 41 -6 52 -22z"/>
<path d="M11705 14771 c-7 -12 -206 -162 -222 -168 -19 -8 -16 -53 3 -53 9 0
48 23 86 52 71 52 113 63 144 37 27 -22 14 -45 -56 -98 -43 -33 -70 -61 -70
-72 0 -23 32 -25 57 -5 10 8 44 36 75 61 32 26 61 57 64 71 8 31 -22 76 -56
84 -22 5 -41 30 -23 30 4 0 19 9 33 19 20 16 22 21 11 35 -15 18 -37 21 -46 7z"/>
<path d="M12580 14705 c-16 -19 -4 -35 26 -35 26 0 32 18 12 38 -16 16 -23 15
-38 -3z"/>
<path d="M12519 14658 c-8 -7 -49 -40 -91 -72 -77 -58 -93 -81 -63 -92 21 -8
207 134 203 155 -4 20 -32 26 -49 9z"/>
<path d="M12588 14592 c-1 -4 -32 -30 -68 -57 -82 -63 -102 -83 -95 -95 12
-19 39 -9 105 40 71 53 109 62 143 35 29 -22 17 -44 -53 -98 -78 -59 -87 -72
-62 -86 32 -17 192 114 192 156 0 22 -55 73 -79 73 -11 0 -22 9 -26 20 -6 20
-50 29 -57 12z"/>
<path d="M11761 14495 c-108 -83 -107 -81 -92 -99 13 -15 34 -12 61 10 100 83
129 95 169 73 42 -24 32 -48 -44 -106 -68 -51 -87 -84 -54 -91 15 -3 128 78
163 116 28 32 24 72 -10 99 -16 13 -37 23 -47 23 -11 0 -21 9 -24 20 -9 33
-33 23 -122 -45z"/>
<path d="M12761 14403 c-32 -6 -111 -87 -111 -114 0 -30 35 -74 71 -89 l31
-13 -26 -14 c-44 -23 -106 12 -106 61 0 21 -5 26 -25 26 -21 0 -25 -5 -25 -29
0 -31 50 -84 97 -102 49 -18 113 11 223 104 8 7 30 23 48 35 35 26 41 48 15
56 -10 3 -26 20 -35 36 -25 44 -76 58 -157 43z m106 -55 c31 -29 29 -38 -11
-77 -44 -42 -100 -52 -136 -23 -24 20 -24 21 -8 49 18 31 82 73 112 73 11 0
30 -10 43 -22z"/>
<path d="M12100 14264 c-68 -52 -128 -100 -132 -108 -11 -20 113 -121 166
-135 103 -26 246 73 246 170 0 19 -51 77 -130 146 l-25 22 -125 -95z m184 -14
c46 -51 47 -82 4 -124 -39 -38 -117 -71 -150 -62 -13 3 -41 22 -63 41 l-40 35
39 32 c73 61 151 118 162 118 7 0 28 -18 48 -40z"/>
<path d="M16142 14270 c0 -14 2 -19 5 -12 2 6 2 18 0 25 -3 6 -5 1 -5 -13z"/>
<path d="M8769 14273 c0 -5 -2 -16 -4 -25 -2 -9 3 -22 10 -28 11 -9 12 -7 8 9
-3 12 -1 21 6 21 6 0 11 7 11 15 0 15 -29 22 -31 8z"/>
<path d="M10236 14268 c-22 -77 -32 -99 -58 -118 -28 -20 -30 -40 -4 -40 7 0
21 8 32 18 10 9 50 23 87 29 76 13 86 18 69 35 -8 8 -23 8 -58 -1 -25 -7 -49
-10 -51 -7 -3 3 0 19 6 37 6 18 11 38 11 45 0 17 -29 18 -34 2z"/>
<path d="M13119 14164 c-11 -13 -8 -19 15 -38 l29 -22 -31 -25 c-16 -13 -55
-44 -87 -68 -57 -44 -57 -44 -37 -64 20 -19 20 -19 64 14 23 19 45 36 48 39 3
3 40 32 83 64 42 32 77 65 77 73 0 20 -25 26 -50 13 -17 -9 -28 -7 -56 9 -42
25 -38 25 -55 5z"/>
<path d="M10283 14120 c-17 -10 -37 -28 -43 -40 -9 -17 -6 -25 20 -52 27 -26
36 -30 67 -25 77 13 100 81 41 117 -41 25 -45 25 -85 0z m72 -26 c24 -18 12
-44 -29 -58 -52 -19 -73 38 -23 62 29 14 29 14 52 -4z"/>
<path d="M8848 14095 c-3 -14 -1 -28 3 -31 5 -3 9 9 9 25 0 38 -6 40 -12 6z"/>
<path d="M8790 14085 c-8 -9 -8 -15 -2 -15 12 0 26 19 19 26 -2 2 -10 -2 -17
-11z"/>
<path d="M12335 14048 c-38 -20 -84 -71 -90 -98 -21 -96 116 -158 214 -96 46
29 81 71 81 98 0 32 -29 77 -60 93 -34 17 -116 19 -145 3z m132 -52 c25 -21
26 -26 15 -48 -16 -30 -69 -66 -109 -74 -25 -5 -37 -1 -57 19 -38 38 -22 74
49 111 42 22 69 20 102 -8z"/>
<path d="M10389 14001 c-47 -42 -47 -61 -4 -85 11 -6 24 -17 30 -24 9 -11 22
-5 68 29 40 30 54 46 47 53 -7 7 -17 6 -33 -4 -57 -36 -75 -43 -90 -37 -27 10
-19 30 23 61 38 28 44 46 16 46 -8 0 -33 -18 -57 -39z"/>
<path d="M8827 13983 c-4 -4 5 -19 19 -34 15 -16 24 -34 21 -42 -8 -22 35 -31
50 -10 16 21 0 43 -32 43 -21 0 -55 27 -47 37 6 8 -4 13 -11 6z"/>
<path d="M16561 13954 c0 -11 3 -14 6 -6 3 7 2 16 -1 19 -3 4 -6 -2 -5 -13z"/>
<path d="M10511 13911 c-68 -51 -67 -49 -48 -56 8 -4 33 5 55 20 28 18 47 24
65 20 29 -8 47 12 20 22 -10 4 -23 13 -28 20 -8 11 -21 6 -64 -26z"/>
<path d="M13395 13918 c-48 -24 -111 -83 -131 -120 -12 -24 -12 -32 0 -62 42
-102 184 -89 291 25 60 64 62 104 8 148 -46 38 -107 41 -168 9z m143 -40 c22
-22 13 -46 -35 -92 -76 -75 -172 -97 -188 -45 -9 27 17 62 81 111 38 29 58 38
90 38 22 0 45 -5 52 -12z"/>
<path d="M12534 13874 c-116 -57 -119 -176 -6 -213 53 -18 86 -11 90 17 3 20
-1 22 -42 22 -36 0 -48 5 -65 26 -15 20 -18 31 -11 45 19 34 30 31 94 -25 35
-31 67 -56 71 -56 16 0 75 73 75 92 0 82 -118 135 -206 92z m132 -49 c20 -20
23 -28 14 -45 -15 -28 -29 -25 -75 15 -33 29 -37 37 -25 45 26 17 60 11 86
-15z"/>
<path d="M13142 13868 c-7 -7 -12 -18 -12 -24 0 -7 -10 -14 -22 -16 -26 -4
-35 -26 -14 -34 24 -9 63 4 86 28 18 20 19 23 3 40 -19 21 -25 22 -41 6z"/>
<path d="M10702 13843 c-7 -3 -36 -27 -65 -55 -49 -47 -51 -50 -33 -64 20 -14
36 -10 36 10 0 18 47 56 69 56 19 0 31 18 31 46 0 14 -14 17 -38 7z"/>
<path d="M10709 13757 c-15 -12 -36 -30 -48 -40 -20 -16 -21 -37 -1 -37 5 0
23 12 40 27 22 18 42 26 66 25 40 -2 43 9 9 32 -31 20 -35 20 -66 -7z"/>
<path d="M13640 13766 c-73 -23 -168 -103 -184 -154 -16 -49 57 -122 119 -122
31 0 115 40 156 75 73 61 89 123 42 166 -57 50 -74 55 -133 35z m88 -52 c33
-23 27 -47 -26 -97 -85 -78 -155 -99 -186 -55 -14 19 -13 24 7 52 27 39 58 65
111 93 49 27 64 28 94 7z"/>
<path d="M10794 13695 c-4 -8 -16 -15 -29 -15 -12 0 -30 -9 -40 -20 -18 -20
-18 -21 5 -45 13 -14 28 -25 33 -25 5 0 16 -9 25 -19 16 -19 18 -18 66 29 l49
48 -31 31 c-33 33 -69 40 -78 16z m40 -21 c20 -8 21 -34 2 -34 -17 0 -38 24
-29 33 8 8 8 8 27 1z m-24 -56 c0 -17 -45 -3 -48 15 -3 15 0 16 22 6 14 -7 26
-16 26 -21z"/>
<path d="M8315 13660 c4 -14 15 -47 25 -75 9 -27 23 -70 31 -95 14 -51 29 -74
29 -44 0 23 -53 172 -75 211 -15 27 -15 27 -10 3z"/>
<path d="M10905 13597 c-54 -39 -78 -65 -71 -76 5 -7 22 -1 51 19 49 34 73 38
82 13 4 -11 -5 -26 -33 -49 -30 -26 -36 -36 -27 -45 9 -9 23 -2 62 31 28 23
51 46 51 51 0 5 -10 18 -22 29 -13 12 -30 27 -39 35 -20 19 -18 19 -54 -8z"/>
<path d="M13790 13574 c-56 -32 -115 -88 -130 -124 -9 -23 -8 -34 4 -59 23
-43 58 -63 114 -64 58 -1 126 34 185 95 30 31 37 46 37 78 0 32 -6 43 -37 69
-49 40 -108 42 -173 5z m154 -46 c15 -25 -8 -61 -70 -109 -62 -48 -120 -61
-147 -34 -9 9 -17 22 -17 29 0 21 39 65 89 102 38 28 53 34 90 32 28 -2 48 -9
55 -20z"/>
<path d="M11021 13503 c-20 -17 -20 -20 -6 -47 16 -31 20 -56 7 -56 -14 0 -32
23 -32 42 0 22 -28 24 -37 2 -8 -20 44 -74 72 -74 12 0 30 9 40 19 16 19 16
21 -5 51 -12 17 -20 33 -18 36 10 9 37 -8 43 -27 8 -25 35 -25 35 0 0 17 -55
71 -72 71 -3 0 -15 -8 -27 -17z"/>
<path d="M11168 13437 c-16 -6 -28 -16 -28 -21 0 -6 -18 -24 -40 -40 -38 -29
-52 -56 -29 -56 6 0 30 15 52 32 23 18 49 31 59 30 11 -2 18 3 18 12 0 9 9 16
20 16 24 0 27 25 4 34 -19 7 -21 7 -56 -7z"/>
<path d="M11149 13331 c-34 -35 -35 -41 -9 -73 23 -30 66 -41 85 -22 7 8 21
14 29 14 9 0 23 11 32 25 16 25 16 27 -11 55 -39 41 -86 41 -126 1z m98 -16
c9 -25 -2 -27 -28 -6 l-24 20 23 1 c12 0 25 -7 29 -15z m-44 -31 l30 -26 -34
4 c-26 2 -35 8 -37 26 -4 28 3 28 41 -4z"/>
<path d="M8424 13334 c4 -11 15 -41 23 -69 8 -27 19 -60 24 -73 5 -13 9 -38 9
-57 0 -19 5 -35 10 -35 6 0 10 -13 10 -28 0 -15 4 -32 9 -37 4 -6 14 -32 21
-58 9 -33 16 -45 23 -38 8 8 4 27 -11 63 -12 29 -27 76 -33 103 -30 124 -67
239 -79 243 -9 3 -11 -1 -6 -14z"/>
<path d="M14073 13301 c-94 -61 -125 -117 -98 -174 20 -43 56 -62 114 -61 55
1 98 22 157 76 54 50 71 95 50 136 -22 42 -58 62 -114 62 -40 0 -60 -7 -109
-39z m177 -32 c15 -27 -4 -56 -71 -109 -78 -61 -150 -66 -157 -8 -3 28 43 84
98 117 47 28 115 29 130 0z"/>
<path d="M11278 13232 c-45 -35 -61 -62 -37 -62 6 0 31 14 56 31 33 23 48 28
56 20 14 -14 37 -14 37 0 0 13 -41 48 -55 48 -5 0 -31 -17 -57 -37z"/>
<path d="M13851 13256 c-9 -11 -8 -18 4 -30 21 -21 41 -20 49 1 5 11 1 22 -10
30 -23 16 -29 16 -43 -1z"/>
<path d="M14365 13160 c-92 -21 -195 -117 -195 -181 0 -12 16 -37 36 -55 31
-30 42 -34 88 -34 44 0 63 6 113 39 94 61 129 118 102 168 -27 49 -88 77 -144
63z m85 -58 c31 -25 21 -50 -41 -106 -63 -57 -120 -76 -158 -55 -14 8 -27 22
-29 31 -5 24 71 102 121 127 52 26 78 26 107 3z"/>
<path d="M11429 13141 l-22 -18 21 -31 c24 -33 28 -52 11 -52 -15 0 -39 26
-39 43 0 21 -12 28 -26 17 -17 -15 -6 -47 24 -70 31 -25 54 -25 77 0 16 18 17
21 1 44 -9 14 -16 30 -16 36 0 19 20 10 32 -15 11 -26 32 -33 43 -15 9 14 -18
49 -50 66 -33 17 -28 18 -56 -5z"/>
<path d="M11553 13063 c-2 -10 -22 -31 -44 -47 -43 -33 -49 -50 -19 -66 16 -9
20 -7 25 13 7 25 58 64 79 59 12 -2 25 25 26 51 0 4 -14 7 -31 7 -21 0 -32 -6
-36 -17z"/>
<path d="M11600 12985 c-7 -8 -17 -12 -22 -9 -13 8 -48 -26 -48 -47 0 -10 12
-27 27 -36 15 -10 36 -27 47 -37 18 -18 19 -18 30 2 6 11 23 30 39 42 31 25
35 59 9 83 -23 21 -65 22 -82 2z m58 -27 c31 -31 2 -38 -35 -8 l-26 20 25 0
c13 0 29 -5 36 -12z m-38 -43 c10 -12 9 -15 -6 -15 -11 0 -28 7 -38 15 -19 14
-19 15 6 15 14 0 31 -7 38 -15z"/>
<path d="M11762 12923 c-30 -12 -114 -103 -109 -118 9 -23 36 -18 46 8 10 25
51 57 75 57 14 0 26 20 26 46 0 14 -14 17 -38 7z"/>
<path d="M14639 12877 c-90 -34 -147 -108 -134 -175 9 -46 66 -102 123 -121
29 -10 42 -20 42 -33 0 -10 7 -18 15 -18 23 0 135 92 134 110 0 16 -100 100
-118 100 -23 0 -9 -36 24 -63 20 -16 33 -32 30 -37 -9 -15 -82 -31 -108 -24
-14 3 -39 18 -57 33 -45 37 -44 80 2 129 51 53 102 73 160 61 62 -14 92 -49
85 -101 -4 -27 0 -41 13 -53 17 -15 19 -15 34 7 22 32 20 63 -8 104 -52 77
-154 112 -237 81z"/>
<path d="M9709 12841 c-22 -21 -39 -43 -39 -48 0 -24 47 -77 75 -85 39 -11 75
-2 75 18 0 12 -7 14 -28 9 -33 -7 -82 25 -82 55 0 27 47 60 85 60 39 0 71 -32
67 -67 -3 -19 0 -24 15 -21 33 6 29 55 -7 88 -26 24 -41 30 -77 30 -39 0 -51
-5 -84 -39z"/>
<path d="M11785 12849 c-5 -6 -26 -23 -45 -38 -33 -27 -34 -30 -21 -55 8 -14
20 -26 26 -26 7 0 19 -9 26 -21 14 -20 15 -20 71 23 53 40 73 68 47 68 -6 0
-30 -13 -54 -30 -50 -34 -58 -36 -75 -15 -9 11 -4 21 29 51 38 35 45 55 18 54
-7 -1 -16 -6 -22 -11z"/>
<path d="M11891 12741 l-24 -18 21 -31 c24 -33 28 -52 11 -52 -16 0 -39 26
-39 44 0 9 -7 16 -15 16 -23 0 -18 -44 8 -68 27 -26 69 -29 88 -6 11 14 10 21
-4 46 -19 34 -21 48 -7 48 6 0 16 -11 22 -25 11 -26 48 -35 48 -12 -1 17 -31
53 -57 66 -27 14 -23 14 -52 -8z"/>
<path d="M9839 12701 c-36 -36 -36 -51 -3 -85 34 -33 68 -33 111 0 41 31 43
64 7 93 -38 30 -80 27 -115 -8z m95 -16 c19 -19 12 -38 -20 -56 -45 -23 -88
29 -48 58 24 17 49 16 68 -2z"/>
<path d="M14910 12628 c-41 -33 -93 -75 -115 -94 -22 -19 -43 -34 -47 -34 -15
0 -8 -29 11 -42 10 -7 39 -32 65 -55 52 -46 111 -68 157 -58 37 8 82 61 74 86
-5 15 -1 19 19 19 34 0 86 46 86 76 0 13 -14 38 -33 56 -47 48 -122 108 -133
107 -5 0 -43 -27 -84 -61z m149 -36 c38 -33 43 -43 37 -65 -9 -39 -56 -37
-112 6 -24 17 -44 36 -44 40 0 11 52 56 65 57 6 0 30 -17 54 -38z m-104 -93
c48 -44 55 -68 29 -93 -27 -28 -76 -20 -127 20 -26 20 -47 40 -47 44 0 12 73
69 88 70 7 0 33 -19 57 -41z"/>
<path d="M9986 12609 c-67 -54 -85 -79 -55 -79 17 0 159 121 154 131 -10 16
-21 10 -99 -52z"/>
<path d="M10056 12589 c-27 -22 -61 -48 -75 -59 -19 -14 -23 -22 -15 -30 9 -9
31 3 88 46 70 54 94 85 64 84 -7 -1 -35 -19 -62 -41z"/>
<path d="M8701 12594 c0 -11 3 -14 6 -6 3 7 2 16 -1 19 -3 4 -6 -2 -5 -13z"/>
<path d="M10061 12514 c-38 -32 -40 -65 -5 -93 27 -21 74 -29 74 -12 0 5 -16
18 -35 30 -35 20 -46 41 -22 41 7 0 24 -11 39 -25 15 -14 32 -25 38 -25 13 0
13 -6 -2 -46 -9 -26 -9 -36 2 -49 19 -23 53 -35 79 -28 33 8 25 31 -11 35 -43
4 -51 38 -14 57 31 17 54 9 66 -25 12 -29 33 -28 38 3 7 47 -69 79 -120 52
-20 -11 -20 -10 -4 12 23 33 20 54 -10 78 -36 28 -76 26 -113 -5z m89 -19 c21
-25 1 -31 -22 -7 -18 18 -19 22 -6 22 8 0 21 -7 28 -15z"/>
<path d="M15112 12367 c-123 -100 -123 -100 -103 -120 20 -20 20 -20 74 21 30
23 59 42 66 42 7 0 26 -14 44 -31 76 -72 137 -83 197 -32 41 34 40 72 -3 115
-55 55 -123 108 -138 107 -8 0 -69 -46 -137 -102z m206 7 c52 -45 56 -76 11
-99 -28 -15 -33 -15 -63 3 -18 11 -45 30 -60 43 l-27 23 38 33 c21 18 43 32
48 33 6 0 29 -16 53 -36z"/>
<path d="M18120 12274 c-30 -62 -57 -114 -61 -114 -3 0 -11 -11 -17 -24 -6
-13 -20 -35 -31 -47 -36 -43 -285 -293 -326 -328 -23 -20 -35 -36 -27 -39 23
-7 12 -22 -13 -16 -18 4 -27 1 -31 -10 -3 -9 -13 -16 -21 -16 -10 0 -12 -6 -8
-22 6 -16 4 -20 -8 -15 -11 4 -14 2 -10 -9 3 -7 1 -14 -5 -14 -6 0 -12 5 -14
11 -2 7 -9 5 -17 -5 -12 -14 -12 -16 3 -10 9 3 16 3 16 0 0 -11 -48 -56 -60
-56 -5 0 -10 -4 -10 -10 0 -5 -5 -10 -11 -10 -6 0 -28 -18 -49 -40 -21 -22
-42 -40 -47 -40 -4 0 -31 -22 -58 -48 -28 -26 -66 -59 -85 -73 -19 -14 -49
-39 -66 -55 -18 -16 -51 -45 -74 -63 -23 -19 -48 -40 -54 -45 -6 -6 -28 -24
-49 -39 -20 -16 -47 -38 -60 -50 -12 -13 -36 -33 -54 -45 -17 -12 -34 -30 -38
-40 -3 -9 -25 -31 -48 -49 -23 -18 -55 -45 -72 -60 -46 -43 -212 -181 -240
-199 -14 -9 -33 -13 -44 -9 -15 4 -19 2 -16 -7 6 -17 -1 -26 -55 -68 -51 -40
-66 -51 -125 -100 -24 -19 -86 -70 -139 -113 -53 -44 -103 -93 -111 -111 -8
-17 -46 -59 -84 -91 -135 -117 -175 -150 -195 -165 -12 -8 -38 -30 -58 -49
-21 -18 -48 -41 -60 -50 -20 -13 -76 -62 -114 -98 -7 -7 -15 -13 -19 -13 -3 0
-24 -16 -45 -36 -22 -20 -50 -44 -62 -53 -13 -8 -40 -31 -61 -51 -22 -19 -47
-38 -58 -42 -24 -9 -49 0 -49 18 0 23 -19 16 -26 -10 -5 -21 -64 -86 -79 -86
-11 0 -45 -35 -45 -48 0 -28 -49 -83 -150 -168 -58 -48 -107 -91 -110 -94 -3
-3 -15 -13 -28 -22 -12 -8 -39 -31 -60 -49 -20 -19 -47 -42 -60 -50 -12 -9
-39 -32 -60 -50 -20 -19 -47 -42 -60 -50 -12 -9 -39 -32 -60 -50 -20 -19 -47
-42 -60 -50 -12 -9 -40 -33 -62 -53 -21 -20 -43 -36 -49 -36 -5 0 -11 -5 -13
-11 -2 -7 -17 -4 -40 9 -40 23 -48 20 -48 -14 0 -14 -16 -36 -46 -61 -25 -21
-60 -51 -77 -66 -18 -16 -54 -45 -82 -66 -27 -21 -61 -50 -74 -65 -14 -14 -30
-26 -37 -26 -7 0 -14 -4 -16 -8 -3 -7 -129 -115 -244 -209 -22 -17 -49 -39
-61 -50 -11 -10 -40 -34 -63 -52 -24 -19 -48 -40 -54 -46 -6 -6 -21 -18 -34
-26 -12 -9 -39 -31 -60 -50 -21 -19 -58 -50 -82 -69 -47 -37 -68 -53 -103 -83
-12 -11 -39 -33 -60 -50 -22 -18 -49 -40 -60 -50 -12 -11 -40 -33 -61 -50 -22
-18 -55 -46 -75 -63 -20 -17 -47 -39 -60 -50 -13 -10 -43 -35 -66 -54 -23 -19
-60 -49 -81 -67 -22 -17 -49 -39 -61 -50 -11 -10 -40 -34 -63 -52 -24 -19 -48
-40 -54 -46 -6 -6 -20 -17 -32 -25 -11 -8 -43 -34 -70 -57 -53 -45 -115 -97
-184 -152 -23 -19 -48 -40 -54 -46 -6 -6 -21 -18 -34 -26 -12 -9 -39 -31 -60
-50 -20 -19 -54 -47 -75 -62 -20 -16 -47 -38 -60 -50 -12 -13 -32 -30 -45 -38
-12 -9 -39 -31 -60 -50 -20 -19 -53 -46 -72 -60 -19 -15 -45 -35 -57 -45 -11
-11 -40 -35 -63 -53 -24 -19 -48 -40 -54 -45 -6 -6 -28 -24 -49 -39 -20 -16
-47 -38 -60 -50 -12 -13 -38 -33 -57 -47 -19 -14 -44 -34 -56 -45 -11 -11 -36
-31 -54 -45 -18 -14 -43 -34 -54 -45 -12 -11 -38 -33 -59 -48 -21 -16 -48 -38
-60 -50 -12 -12 -39 -35 -60 -50 -21 -16 -48 -39 -62 -53 -13 -13 -26 -24 -29
-24 -6 0 -37 -25 -70 -55 -12 -11 -37 -32 -56 -46 -19 -14 -49 -39 -66 -55
-17 -16 -46 -40 -64 -54 -19 -14 -43 -34 -54 -45 -12 -11 -38 -33 -59 -48 -21
-16 -48 -39 -62 -53 -13 -13 -26 -24 -29 -24 -8 0 -41 -28 -82 -68 -18 -17
-36 -32 -39 -32 -4 0 -42 -31 -79 -65 -6 -6 -27 -22 -46 -35 -19 -13 -46 -36
-60 -50 -14 -14 -42 -38 -63 -53 -20 -16 -47 -38 -60 -50 -12 -13 -38 -33 -57
-47 -19 -13 -47 -37 -62 -52 -14 -15 -30 -28 -35 -28 -4 0 -26 -17 -48 -38
-22 -20 -56 -48 -75 -62 -19 -13 -46 -36 -60 -50 -14 -14 -42 -38 -63 -53 -20
-16 -48 -38 -60 -50 -12 -12 -39 -35 -60 -50 -21 -16 -48 -39 -62 -53 -13 -13
-26 -24 -29 -24 -6 0 -30 -19 -76 -60 -46 -41 -70 -60 -76 -60 -3 0 -23 -18
-44 -40 -21 -22 -42 -40 -47 -40 -5 0 -34 -22 -63 -50 -29 -28 -58 -50 -63
-50 -5 0 -26 -18 -47 -40 -21 -22 -41 -40 -44 -40 -8 0 -41 -27 -82 -67 -18
-18 -36 -33 -39 -33 -6 0 -38 -26 -69 -55 -11 -11 -37 -31 -56 -45 -19 -13
-43 -33 -52 -43 -9 -10 -22 -16 -27 -12 -6 3 -9 0 -6 -7 3 -8 -7 -21 -22 -30
-16 -9 -45 -33 -66 -52 -20 -20 -39 -36 -42 -36 -6 0 -38 -26 -69 -55 -11 -11
-37 -31 -56 -45 -19 -13 -47 -37 -62 -52 -14 -15 -29 -28 -32 -28 -8 0 -40
-27 -82 -67 -18 -18 -38 -33 -44 -33 -5 0 -10 -4 -10 -10 0 -5 -5 -10 -11 -10
-6 0 -24 -13 -39 -30 -15 -16 -31 -30 -34 -30 -8 0 -40 -27 -82 -67 -18 -18
-36 -33 -39 -33 -5 0 -30 -20 -75 -60 -47 -42 -70 -60 -76 -60 -3 0 -19 -13
-34 -30 -15 -16 -32 -30 -37 -30 -4 0 -27 -18 -51 -40 -23 -22 -47 -40 -52
-40 -6 0 -10 -4 -10 -10 0 -5 -7 -10 -15 -10 -8 0 -15 -5 -15 -11 0 -6 -10 -8
-22 -5 -13 3 -17 3 -10 0 17 -8 15 -24 -3 -24 -8 0 -15 -5 -15 -11 0 -7 -10
-9 -27 -5 -20 5 -24 4 -13 -3 8 -6 12 -11 10 -13 -30 -19 -52 -27 -65 -22 -10
4 -15 0 -15 -10 0 -9 -7 -16 -15 -16 -8 0 -15 -4 -15 -10 0 -5 -11 -10 -25
-10 -14 0 -25 -4 -25 -10 0 -5 -11 -10 -25 -10 -14 0 -25 -4 -25 -10 0 -5 -13
-10 -29 -10 -17 0 -33 -5 -36 -10 -3 -6 -19 -10 -35 -10 -16 0 -32 -4 -35 -10
-3 -5 -21 -10 -40 -10 -19 0 -46 -5 -61 -11 -16 -5 -109 -12 -209 -14 -210 -4
-206 -4 -180 -14 32 -13 304 -13 375 0 36 6 92 18 125 26 33 8 72 17 88 20 15
3 30 9 33 14 3 5 12 9 21 9 21 0 181 78 223 109 19 14 89 69 154 121 65 52
136 109 157 125 49 38 223 179 270 220 20 16 55 46 80 65 24 19 102 83 174
143 71 59 159 131 194 160 35 28 85 70 111 92 26 22 102 85 169 140 67 55 143
118 168 140 25 22 55 47 67 55 18 12 109 87 401 330 125 104 185 153 350 290
94 77 197 162 230 190 33 28 137 113 230 190 200 165 283 234 333 276 21 17
46 38 57 47 11 9 70 57 130 107 61 50 119 98 130 107 11 9 36 30 57 47 52 45
140 117 333 276 94 77 192 159 219 182 27 24 59 50 71 58 12 8 43 33 68 55 25
22 74 63 109 92 35 29 113 93 173 143 61 50 119 98 130 107 11 9 36 30 57 47
47 40 136 114 273 226 61 50 132 110 159 133 27 23 59 48 70 56 12 8 42 33 67
55 47 41 85 73 284 236 61 50 132 110 159 133 27 23 59 48 70 56 12 8 42 33
67 55 25 23 77 66 115 96 37 30 89 73 114 95 26 22 75 63 110 90 34 28 86 70
115 95 29 25 82 69 117 98 34 28 115 95 178 147 108 90 140 109 140 84 0 -13
48 20 112 75 101 89 152 132 173 146 12 8 43 33 68 55 26 22 76 65 112 95 37
30 90 75 119 100 29 25 73 61 97 80 73 58 116 107 129 144 6 20 15 36 19 36 5
0 28 18 52 39 35 31 53 39 82 39 30 0 47 9 86 44 27 23 79 68 116 98 37 30 90
75 119 100 29 25 63 53 76 63 274 223 420 356 420 383 0 7 13 23 29 36 15 12
46 37 67 55 22 17 49 39 61 50 12 10 47 38 79 63 31 25 73 59 93 75 62 52 120
95 126 95 7 0 75 52 110 83 11 11 77 66 148 124 70 59 127 111 128 117 0 6 36
40 81 76 44 36 105 86 137 113 31 26 61 51 66 55 12 8 138 115 145 122 6 6
263 226 298 256 51 41 68 57 104 90 20 19 40 34 43 34 4 0 14 7 22 16 14 13
14 17 2 26 -11 7 -9 8 6 4 15 -4 35 9 75 47 31 28 71 66 91 82 19 17 55 55 79
85 25 30 48 57 53 58 4 2 7 9 7 16 0 7 8 21 18 32 24 27 68 119 91 193 13 39
15 91 4 90 -5 0 -33 -52 -63 -115z m-470 -584 c0 -5 -4 -10 -10 -10 -5 0 -10
5 -10 10 0 6 5 10 10 10 6 0 10 -4 10 -10z"/>
<path d="M9748 12369 c-9 -5 -15 -16 -12 -24 5 -13 8 -13 21 0 19 20 13 37 -9
24z"/>
<path d="M10352 12373 c-12 -2 -27 -13 -33 -24 -5 -11 -27 -35 -47 -53 -31
-29 -34 -36 -23 -50 17 -21 30 -20 38 2 11 31 46 62 70 62 23 0 29 7 35 44 3
21 -6 25 -40 19z"/>
<path d="M10433 12320 c-3 -11 -12 -20 -20 -20 -15 0 -89 -54 -110 -80 -7 -9
-8 -19 -3 -24 8 -8 49 19 144 98 16 13 25 29 22 35 -11 17 -27 13 -33 -9z"/>
<path d="M9800 12321 c0 -5 -10 -12 -22 -14 -22 -4 -22 -4 -2 -6 12 0 27 6 34
14 9 10 9 15 1 15 -6 0 -11 -4 -11 -9z"/>
<path d="M9716 12295 c-3 -9 0 -15 9 -15 9 0 12 6 9 15 -4 8 -7 15 -9 15 -2 0
-5 -7 -9 -15z"/>
<path d="M8701 12284 c0 -11 3 -14 6 -6 3 7 2 16 -1 19 -3 4 -6 -2 -5 -13z"/>
<path d="M10398 12233 c-15 -9 -32 -27 -39 -40 -11 -20 -10 -27 8 -51 29 -39
98 -43 136 -8 15 14 27 34 27 44 0 55 -80 88 -132 55z m87 -44 c11 -32 -30
-58 -69 -43 -19 7 -21 50 -3 57 31 13 66 6 72 -14z"/>
<path d="M9837 12212 c-10 -10 -17 -24 -17 -31 0 -22 29 -43 52 -38 l23 4 -22
2 c-32 2 -47 34 -25 53 9 9 24 18 32 21 10 4 9 6 -6 6 -11 1 -28 -7 -37 -17z"/>
<path d="M9918 12224 c6 -3 12 -14 12 -25 0 -10 5 -19 11 -19 20 0 5 45 -16
47 -11 2 -14 0 -7 -3z"/>
<path d="M9069 12187 c-4 -34 -1 -77 6 -77 10 0 11 67 2 77 -4 3 -7 3 -8 0z"/>
<path d="M15558 12154 c-12 -13 -20 -14 -37 -5 -17 10 -22 9 -27 -3 -3 -7 -4
-21 -2 -29 2 -8 -25 -38 -60 -67 -83 -69 -88 -81 -55 -114 37 -37 59 -33 43 9
-8 20 -1 29 56 74 56 45 66 50 84 39 28 -18 50 4 33 31 -10 16 -9 22 9 33 14
10 19 20 15 31 -8 21 -38 22 -59 1z"/>
<path d="M10516 12114 c-31 -26 -56 -50 -56 -55 0 -17 32 -9 66 17 24 19 41
25 59 20 35 -9 31 -26 -15 -61 -38 -28 -46 -45 -24 -52 13 -4 100 63 108 83 7
18 -14 54 -31 54 -7 0 -17 9 -23 20 -6 11 -15 20 -19 20 -5 0 -34 -21 -65 -46z"/>
<path d="M9924 12125 c-9 -14 -14 -31 -11 -39 7 -19 47 -41 47 -26 0 5 -5 10
-10 10 -20 0 -22 31 -5 50 22 24 73 27 82 4 3 -9 -6 -27 -23 -45 -21 -22 -24
-29 -11 -29 20 0 57 38 57 60 0 27 -22 40 -67 40 -34 0 -46 -5 -59 -25z"/>
<path d="M10057 12052 c-32 -25 -54 -48 -48 -50 12 -4 130 78 131 91 0 17 -29
3 -83 -41z"/>
<path d="M10101 12018 c-35 -29 -59 -54 -53 -56 13 -4 132 85 132 99 0 17 -14
9 -79 -43z"/>
<path d="M10780 12020 c0 -6 -8 -14 -18 -18 -31 -12 -121 -86 -122 -99 0 -26
35 -12 89 35 31 27 64 51 74 55 10 4 17 13 15 20 -6 15 -38 22 -38 7z"/>
<path d="M15558 12004 c-44 -23 -88 -81 -88 -115 0 -66 83 -128 153 -115 45 8
110 52 132 88 30 52 5 112 -62 147 -29 15 -102 12 -135 -5z m141 -51 c18 -18
17 -58 -1 -77 -27 -26 -82 -56 -106 -56 -32 0 -72 29 -72 52 0 73 128 132 179
81z"/>
<path d="M10142 11985 c-26 -11 -52 -41 -52 -59 0 -13 46 -46 64 -46 18 1 17
3 -6 16 -16 8 -28 23 -28 34 0 26 12 25 48 -5 37 -31 45 -31 62 0 11 21 11 27
-4 44 -24 26 -48 31 -84 16z m52 -11 c19 -7 21 -44 3 -44 -18 0 -49 34 -40 43
8 9 17 9 37 1z"/>
<path d="M10768 11939 c-22 -12 -23 -39 -3 -65 19 -25 19 -34 -1 -34 -8 0 -20
14 -26 30 -11 33 -25 35 -42 6 -9 -14 -5 -23 22 -47 35 -31 52 -35 83 -19 23
13 25 47 2 72 -9 10 -14 21 -10 24 10 10 28 -6 38 -34 10 -25 11 -26 24 -9 14
19 10 50 -9 66 -19 16 -60 21 -78 10z"/>
<path d="M10221 11876 c-17 -18 -22 -32 -17 -50 7 -28 50 -46 67 -29 7 7 0 12
-20 16 -37 8 -40 29 -9 51 33 23 57 20 68 -10 10 -25 30 -25 30 1 0 47 -82 61
-119 21z"/>
<path d="M10384 11844 c-25 -10 -94 -82 -94 -97 0 -25 15 -21 35 9 9 14 32 32
51 40 22 9 34 21 34 34 0 20 -5 23 -26 14z"/>
<path d="M10450 11800 c0 -5 5 -10 10 -10 6 0 10 5 10 10 0 6 -4 10 -10 10 -5
0 -10 -4 -10 -10z"/>
<path d="M10937 11794 c-3 -3 -3 -12 0 -20 4 -10 -3 -14 -25 -14 -16 0 -35 -7
-42 -16 -19 -22 -1 -68 29 -72 13 -2 26 -12 28 -23 5 -19 43 -27 43 -9 0 5 16
24 35 41 20 19 35 42 35 55 0 37 -79 82 -103 58z m49 -48 c10 -8 16 -17 12
-21 -7 -7 -48 16 -48 27 0 12 14 9 36 -6z m-36 -48 c0 -11 -7 -10 -31 2 -28
16 -23 32 6 18 14 -6 25 -15 25 -20z"/>
<path d="M10377 11754 c-46 -36 -58 -54 -36 -54 13 0 99 71 99 82 0 15 -17 8
-63 -28z"/>
<path d="M10425 11728 c-47 -25 -56 -57 -25 -88 28 -28 75 -26 105 5 30 29 31
49 5 75 -22 22 -54 25 -85 8z m65 -23 c16 -20 6 -43 -25 -57 -21 -9 -29 -9
-42 4 -19 20 -11 45 19 58 32 12 34 12 48 -5z"/>
<path d="M11070 11705 c-13 -16 -41 -63 -62 -103 -19 -38 2 -48 64 -28 87 28
108 38 108 52 0 16 -32 18 -60 4 -11 -5 -29 -15 -40 -20 -26 -13 -26 6 0 40
21 27 26 55 11 64 -5 3 -14 -1 -21 -9z"/>
<path d="M10518 11624 c-72 -54 -62 -77 12 -28 68 45 99 8 34 -41 -25 -19 -32
-31 -25 -38 12 -12 101 56 101 77 0 11 -61 67 -72 66 -2 0 -24 -17 -50 -36z"/>
<path d="M6967 11623 c-11 -10 -8 -53 3 -53 6 0 10 14 10 30 0 31 -2 35 -13
23z"/>
<path d="M11170 11575 c0 -9 -9 -15 -22 -15 -58 -1 -77 -57 -30 -87 15 -9 37
-28 49 -42 21 -25 22 -25 29 -6 4 11 26 36 48 56 39 36 40 38 26 64 -22 40
-100 64 -100 30z m58 -42 c5 -18 -19 -16 -43 3 -19 15 -19 15 9 12 16 -2 31
-9 34 -15z m-43 -43 c8 -13 -1 -13 -26 0 -10 6 -19 15 -19 21 0 11 35 -5 45
-21z"/>
<path d="M10756 11541 c-4 -7 -5 -15 -2 -18 9 -9 19 4 14 18 -4 11 -6 11 -12
0z"/>
<path d="M11344 11516 c-3 -9 -10 -16 -16 -16 -19 0 -117 -86 -117 -104 -1
-11 4 -16 12 -13 28 11 117 83 117 95 0 6 9 12 21 12 14 0 19 5 17 17 -4 22
-27 28 -34 9z"/>
<path d="M6940 11488 c0 -25 3 -29 10 -18 13 20 13 50 0 50 -5 0 -10 -15 -10
-32z"/>
<path d="M10672 11482 c-42 -37 -51 -52 -31 -52 14 0 99 70 99 81 0 18 -26 7
-68 -29z"/>
<path d="M10720 11453 c-40 -31 -63 -63 -45 -63 4 0 27 14 51 32 42 30 45 31
62 14 16 -17 15 -19 -22 -50 -23 -20 -36 -38 -32 -45 8 -12 90 49 100 74 3 8
-10 26 -32 43 l-37 30 -45 -35z"/>
<path d="M11328 11428 c-73 -56 -96 -88 -64 -88 15 0 166 118 166 130 0 24
-34 11 -102 -42z"/>
<path d="M11393 11380 c-4 -14 -14 -20 -32 -20 -32 0 -51 -16 -51 -43 0 -19
22 -47 38 -47 5 0 24 -18 43 -40 19 -22 37 -40 41 -40 4 0 19 -12 33 -26 35
-35 88 -28 128 16 34 38 34 52 -2 83 -29 24 -30 25 -11 42 11 10 17 22 14 26
-9 15 -36 10 -53 -9 -28 -30 -114 -92 -120 -86 -3 3 14 23 37 44 23 22 42 44
42 49 0 18 -61 71 -82 71 -11 0 -22 -8 -25 -20z m57 -45 c0 -19 -9 -19 -34 0
-19 14 -19 15 7 15 17 0 27 -5 27 -15z m-56 -31 c22 -22 20 -25 -9 -12 -14 6
-25 15 -25 20 0 13 17 9 34 -8z m169 -75 c8 -13 6 -21 -6 -34 -20 -20 -56 -16
-71 7 -8 14 -6 21 9 33 24 18 54 16 68 -6z"/>
<path d="M10833 11364 c-3 -9 -1 -25 5 -35 16 -25 15 -52 0 -47 -7 3 -17 14
-23 26 -13 29 -37 29 -33 0 2 -12 17 -30 34 -40 30 -18 32 -18 54 0 21 17 22
20 7 49 -9 17 -13 33 -10 37 9 8 33 -14 33 -30 0 -19 19 -18 27 1 3 9 -3 25
-12 35 -22 24 -73 27 -82 4z"/>
<path d="M4088 11313 c23 -2 59 -2 80 0 20 2 1 4 -43 4 -44 0 -61 -2 -37 -4z"/>
<path d="M10916 11271 c-26 -27 -45 -54 -42 -60 11 -18 30 -13 41 11 6 11 25
29 44 39 37 19 53 38 45 51 -12 19 -42 4 -88 -41z"/>
<path d="M4030 11291 c0 -5 -10 -11 -22 -13 -19 -3 -20 -4 -6 -10 10 -4 23 1
34 13 10 11 12 19 6 19 -7 0 -12 -4 -12 -9z"/>
<path d="M4225 11290 c4 -6 11 -8 16 -5 14 9 11 15 -7 15 -8 0 -12 -5 -9 -10z"/>
<path d="M3970 11249 c0 -5 5 -7 10 -4 6 3 10 8 10 11 0 2 -4 4 -10 4 -5 0
-10 -5 -10 -11z"/>
<path d="M10962 11222 c-23 -20 -42 -40 -42 -44 0 -15 27 -8 49 14 16 14 35
21 57 20 38 -2 43 7 16 31 -25 23 -31 22 -80 -21z"/>
<path d="M3950 11219 c0 -11 4 -18 10 -14 5 3 7 12 3 20 -7 21 -13 19 -13 -6z"/>
<path d="M11664 11205 c-16 -14 -50 -42 -76 -62 -27 -21 -48 -41 -48 -45 0
-21 33 -19 58 4 15 13 48 40 74 59 45 32 57 58 32 66 -6 2 -24 -8 -40 -22z"/>
<path d="M9500 11190 c0 -18 3 -19 20 -10 11 6 20 15 20 20 0 6 -9 10 -20 10
-13 0 -20 -7 -20 -20z"/>
<path d="M11031 11174 c-49 -43 -51 -63 -11 -93 36 -26 52 -23 103 24 50 46
38 65 -16 25 -70 -52 -117 -31 -53 24 34 30 47 56 27 56 -4 0 -27 -16 -50 -36z"/>
<path d="M3930 11179 c0 -11 4 -18 10 -14 5 3 7 12 3 20 -7 21 -13 19 -13 -6z"/>
<path d="M4460 11175 c-10 -12 -8 -17 11 -24 28 -10 40 -6 33 14 -8 20 -31 26
-44 10z"/>
<path d="M11675 11128 c-66 -36 -81 -79 -42 -116 24 -22 87 -31 87 -12 0 6 10
10 21 10 25 0 48 26 49 53 0 23 -56 77 -79 77 -9 0 -25 -6 -36 -12z m70 -49
c12 -19 -5 -23 -22 -6 -16 16 -16 17 -1 17 9 0 20 -5 23 -11z m-40 -57 c-19
-4 -45 15 -45 35 0 10 8 7 31 -9 24 -18 27 -24 14 -26z"/>
<path d="M11137 11089 c-28 -16 -47 -62 -34 -80 18 -23 53 -40 72 -33 20 8 14
30 -7 26 -9 -1 -21 5 -28 13 -11 13 -10 19 5 35 10 11 29 20 42 20 18 0 23 -5
23 -25 0 -28 24 -34 34 -9 18 46 -56 83 -107 53z"/>
<path d="M9583 11055 c-33 -33 -40 -64 -16 -72 7 -3 10 3 7 14 -6 23 42 71 82
83 l29 8 -33 1 c-26 1 -42 -7 -69 -34z"/>
<path d="M9701 11054 c-2 -22 -75 -84 -100 -85 -23 -2 -23 -2 -4 -6 43 -8 119
49 110 84 -3 10 -5 13 -6 7z"/>
<path d="M9488 11043 c7 -3 16 -2 19 1 4 3 -2 6 -13 5 -11 0 -14 -3 -6 -6z"/>
<path d="M11237 10997 c-46 -42 -58 -69 -37 -82 6 -3 13 2 17 12 9 22 50 56
77 63 12 3 22 16 24 28 5 36 -28 27 -81 -21z"/>
<path d="M4760 11012 c0 -10 21 -31 53 -50 87 -54 91 -57 105 -69 7 -7 25 -16
40 -19 15 -4 39 -15 54 -25 14 -11 31 -19 37 -19 5 0 14 -7 19 -16 5 -9 15
-15 23 -12 7 2 53 -15 100 -39 87 -43 109 -50 109 -35 0 10 -85 52 -104 52 -8
0 -16 7 -20 15 -3 8 -12 15 -20 15 -8 0 -50 22 -93 48 -43 27 -94 56 -113 66
-19 9 -63 37 -98 61 -68 48 -92 55 -92 27z"/>
<path d="M11354 10996 c-3 -9 -12 -16 -20 -16 -8 0 -27 -11 -42 -25 -16 -14
-37 -32 -48 -40 -14 -10 -16 -17 -8 -25 8 -8 25 1 62 31 29 22 52 45 52 50 0
5 7 9 15 9 17 0 20 16 5 25 -6 3 -13 -1 -16 -9z"/>
<path d="M9703 10980 c-60 -36 -67 -86 -15 -109 l27 -13 -23 25 c-19 20 -22
29 -13 45 15 28 56 52 88 52 22 0 25 2 13 10 -22 14 -41 12 -77 -10z"/>
<path d="M9792 10945 c-7 -14 -25 -34 -42 -43 -32 -18 -39 -32 -16 -32 34 0
97 73 79 91 -6 6 -14 -1 -21 -16z"/>
<path d="M11350 10928 c-63 -23 -78 -72 -34 -107 31 -25 67 -20 103 14 18 18
22 29 17 49 -8 34 -53 57 -86 44z m44 -34 c19 -7 20 -21 4 -38 -32 -31 -78
-28 -78 5 0 29 39 46 74 33z"/>
<path d="M9820 10891 c-19 -10 -43 -30 -54 -44 -18 -24 -18 -27 -2 -51 21 -33
65 -34 112 -5 47 28 54 64 21 95 -31 29 -33 29 -77 5z m64 -7 c25 -10 19 -40
-15 -68 -34 -29 -76 -34 -85 -11 -7 18 11 42 51 67 35 21 29 20 49 12z"/>
<path d="M11421 10809 c-36 -29 -49 -45 -42 -52 7 -7 23 -1 51 22 28 22 46 30
60 26 29 -9 25 -26 -17 -62 -29 -24 -35 -34 -26 -43 8 -9 22 -2 57 30 25 23
46 47 46 52 0 10 -60 68 -71 68 -3 0 -30 -19 -58 -41z"/>
<path d="M9975 10755 c-88 -45 -86 -125 2 -125 34 0 103 53 103 80 0 19 -44
60 -64 60 -6 0 -24 -7 -41 -15z m75 -45 c-26 -48 -101 -78 -113 -45 -13 32 71
92 105 74 14 -8 16 -14 8 -29z"/>
<path d="M11550 10735 c-10 -12 -10 -21 0 -45 7 -17 10 -33 8 -36 -10 -9 -36
8 -41 28 -3 11 -10 17 -16 13 -18 -10 -13 -36 11 -57 43 -37 108 -3 80 42 -15
24 -16 40 -2 40 6 0 15 -11 20 -25 12 -32 30 -32 30 -1 0 44 -64 73 -90 41z"/>
<path d="M9855 10729 c-10 -15 3 -25 16 -12 7 7 7 13 1 17 -6 3 -14 1 -17 -5z"/>
<path d="M5310 10716 c0 -10 28 -13 41 -5 10 6 7 9 -13 9 -16 0 -28 -2 -28 -4z"/>
<path d="M5370 10700 c0 -8 25 -20 41 -20 20 0 7 18 -16 22 -14 3 -25 2 -25
-2z"/>
<path d="M5430 10676 c0 -9 16 -16 46 -21 26 -4 55 -12 65 -18 20 -12 35 -5
24 12 -3 6 -22 11 -41 11 -19 0 -48 7 -64 15 -25 13 -30 13 -30 1z"/>
<path d="M10075 10661 c-69 -42 -84 -92 -34 -120 32 -18 67 -10 108 25 38 32
39 61 4 91 -32 28 -39 28 -78 4z m80 -21 c17 -27 -68 -96 -102 -83 -23 9 -14
41 20 67 33 27 71 34 82 16z"/>
<path d="M5595 10640 c-4 -6 12 -10 39 -10 25 0 46 5 46 10 0 6 -18 10 -39 10
-22 0 -43 -4 -46 -10z"/>
<path d="M9301 10634 c0 -11 3 -14 6 -6 3 7 2 16 -1 19 -3 4 -6 -2 -5 -13z"/>
<path d="M5703 10603 c9 -2 23 -2 30 0 6 3 -1 5 -18 5 -16 0 -22 -2 -12 -5z"/>
<path d="M9243 10584 c-29 -32 -10 -31 25 1 17 16 21 25 12 24 -8 -1 -25 -12
-37 -25z"/>
<path d="M9316 10564 c-25 -21 -44 -39 -42 -41 3 -3 15 5 28 16 12 12 33 24
45 27 13 4 23 12 23 20 0 19 0 19 -54 -22z"/>
<path d="M9397 10550 c4 -15 -5 -30 -33 -55 -22 -19 -34 -34 -28 -35 6 0 28
15 49 33 30 26 36 37 31 55 -9 28 -26 29 -19 2z"/>
<path d="M9434 10466 c3 -13 8 -35 12 -50 5 -21 3 -26 -12 -26 -9 0 -15 -3
-11 -6 3 -3 15 -3 26 1 24 7 27 32 6 59 -8 10 -12 23 -9 27 10 17 34 9 47 -17
10 -18 16 -23 22 -15 11 19 -25 51 -58 51 -26 0 -29 -3 -23 -24z"/>
<path d="M9380 10434 c0 -12 7 -27 15 -34 19 -16 19 -10 0 26 -13 25 -15 26
-15 8z"/>
<path d="M9577 10433 c-24 -6 -112 -91 -104 -99 3 -4 22 7 42 25 20 17 40 31
46 31 16 0 59 36 52 44 -7 6 -8 6 -36 -1z"/>
<path d="M9577 10350 c-27 -8 -56 -35 -57 -53 0 -17 50 -57 72 -57 20 1 19 2
-8 14 -35 16 -48 38 -31 55 8 8 20 3 44 -21 32 -31 33 -31 53 -13 25 23 25 40
0 65 -22 22 -30 23 -73 10z m63 -29 c6 -13 7 -22 0 -26 -12 -8 -50 16 -50 32
0 20 38 15 50 -6z"/>
<path d="M9658 10242 c-30 -22 -44 -40 -39 -45 6 -6 22 1 42 17 25 21 40 26
60 22 33 -6 51 13 20 21 -12 3 -21 9 -21 14 0 15 -13 9 -62 -29z"/>
<path d="M9228 9943 c7 -3 16 -2 19 1 4 3 -2 6 -13 5 -11 0 -14 -3 -6 -6z"/>
<path d="M9150 9890 c-13 -8 -12 -10 3 -10 9 0 17 5 17 10 0 12 -1 12 -20 0z"/>
<path d="M9272 9874 c-7 -8 -8 -14 -3 -14 10 0 25 19 20 25 -2 1 -10 -3 -17
-11z"/>
<path d="M4160 9850 c-8 -14 -8 -20 0 -20 12 0 40 24 40 34 0 15 -30 4 -40
-14z"/>
<path d="M13547 9457 c-15 -10 -18 -24 -15 -72 l3 -60 -80 0 c-65 0 -80 -3
-83 -16 -2 -14 13 -18 95 -26 63 -6 102 -6 111 0 16 13 16 147 -1 170 -10 15
-15 16 -30 4z"/>
<path d="M3696 9331 c-3 -4 3 -16 14 -26 11 -10 20 -21 20 -25 0 -3 -32 -30
-70 -59 -39 -29 -68 -56 -65 -62 7 -11 42 -12 47 -1 2 4 29 27 61 51 l58 44
24 -23 c20 -18 28 -21 37 -12 9 9 0 24 -42 67 -53 53 -73 64 -84 46z"/>
<path d="M3763 9144 c-40 -30 -73 -61 -73 -69 0 -22 13 -18 55 15 42 33 82 39
92 14 4 -12 -8 -29 -42 -59 -33 -28 -45 -44 -36 -49 12 -8 50 17 99 64 28 27
26 61 -5 75 -28 12 -29 21 -3 35 11 6 20 15 20 20 0 22 -39 5 -107 -46z"/>
<path d="M3880 9039 c-35 -14 -70 -49 -70 -70 0 -27 32 -58 68 -65 42 -9 44
17 2 33 -20 8 -30 18 -30 32 0 29 9 27 55 -15 l40 -35 22 26 c28 31 29 46 6
73 -22 26 -60 34 -93 21z m58 -31 c7 -7 12 -20 12 -30 0 -18 -1 -18 -25 -1
-26 19 -33 43 -12 43 7 0 18 -5 25 -12z"/>
<path d="M3976 8889 c-47 -70 -48 -71 -83 -64 -30 5 -34 4 -31 -12 6 -27 68
-21 171 17 64 23 86 35 78 43 -11 11 -29 6 -115 -29 -14 -5 -10 6 17 46 33 49
38 70 18 70 -4 0 -29 -32 -55 -71z"/>
<path d="M4155 8768 c-63 -34 -84 -86 -45 -110 26 -17 26 -38 0 -38 -13 0 -28
12 -38 30 -17 30 -32 34 -40 12 -6 -18 53 -72 78 -72 22 0 77 35 139 88 l35
29 -37 36 c-38 38 -58 44 -92 25z m61 -32 c20 -21 18 -32 -12 -55 -31 -25 -50
-26 -70 -7 -20 21 -18 32 12 55 31 25 50 26 70 7z"/>
<path d="M2928 8730 c-8 -19 -18 -47 -21 -62 -7 -26 -53 -78 -69 -78 -5 0 -8
-9 -8 -20 0 -27 15 -25 56 6 25 20 52 28 105 34 79 9 89 14 68 36 -13 13 -22
13 -62 2 -25 -6 -49 -9 -53 -5 -4 3 1 24 9 45 13 34 14 43 2 58 -12 17 -14 16
-27 -16z"/>
<path d="M4620 8740 c0 -5 5 -10 10 -10 6 0 10 5 10 10 0 6 -4 10 -10 10 -5 0
-10 -4 -10 -10z"/>
<path d="M4270 8649 c-39 -16 -60 -40 -60 -70 0 -32 40 -69 76 -69 28 0 32 18
7 27 -26 9 -53 34 -53 50 0 22 25 15 55 -17 33 -34 52 -38 71 -12 21 27 16 59
-12 81 -29 23 -46 25 -84 10z m68 -31 c15 -15 16 -38 0 -38 -14 0 -48 30 -48
42 0 12 34 10 48 -4z"/>
<path d="M2941 8551 c-38 -36 -39 -59 -3 -94 34 -33 70 -34 108 -5 37 29 44
38 44 66 0 63 -94 85 -149 33z m99 -16 c18 -22 8 -49 -23 -59 -51 -18 -83 18
-46 53 27 25 52 27 69 6z"/>
<path d="M4438 8572 c-16 -2 -28 -9 -28 -17 0 -7 -21 -31 -47 -52 -33 -28 -45
-45 -40 -56 9 -23 37 -21 37 2 0 23 56 66 85 66 11 0 20 7 20 15 0 8 4 20 8
27 9 15 -1 20 -35 15z"/>
<path d="M3078 8443 c-30 -23 -48 -45 -48 -58 0 -27 65 -89 82 -78 62 39 108
80 108 95 0 24 -8 23 -54 -12 -39 -30 -79 -39 -90 -21 -10 16 4 35 44 63 22
15 40 32 40 38 0 21 -36 8 -82 -27z"/>
<path d="M3260 8279 c-9 -16 -7 -27 10 -56 11 -19 18 -38 15 -41 -10 -10 -40
14 -43 34 -7 44 -11 48 -32 29 -27 -24 -25 -36 8 -68 31 -30 73 -35 93 -11 10
12 10 22 1 48 -23 63 -4 75 21 14 12 -29 14 -30 30 -14 14 14 15 21 5 39 -26
49 -88 64 -108 26z"/>
<path d="M3350 8168 c-49 -33 -53 -75 -10 -112 36 -30 52 -32 70 -11 7 8 18
15 25 15 37 0 61 84 31 109 -29 24 -79 24 -116 -1z m85 -28 c10 -11 15 -23 12
-27 -8 -7 -47 25 -47 39 0 14 16 9 35 -12z m-46 -34 c28 -30 11 -45 -24 -22
-25 17 -30 27 -18 39 11 11 18 8 42 -17z"/>
<path d="M3470 8049 c-30 -23 -57 -43 -59 -45 -2 -2 -1 -10 3 -19 5 -13 14
-10 57 20 60 41 61 41 83 16 16 -18 15 -20 -21 -50 -21 -17 -41 -31 -45 -31
-5 0 -8 -7 -8 -15 0 -27 35 -16 82 28 52 48 56 79 12 99 -13 6 -24 17 -24 25
0 23 -24 14 -80 -28z"/>
<path d="M3648 7993 c-16 -2 -28 -10 -28 -18 0 -7 -21 -31 -47 -53 -40 -34
-46 -44 -37 -58 17 -28 33 -28 40 0 7 31 58 70 80 62 9 -3 17 1 20 12 3 9 9
24 14 33 8 16 3 31 -9 28 -3 -1 -18 -4 -33 -6z"/>
<path d="M1981 7824 c0 -11 3 -14 6 -6 3 7 2 16 -1 19 -3 4 -6 -2 -5 -13z"/>
<path d="M2001 7754 c0 -11 3 -14 6 -6 3 7 2 16 -1 19 -3 4 -6 -2 -5 -13z"/>
<path d="M2220 7374 c0 -9 61 -78 77 -87 13 -8 13 -5 2 15 -24 46 -51 78 -65
78 -8 0 -14 -3 -14 -6z"/>
<path d="M2360 7222 c0 -4 20 -28 45 -52 46 -45 54 -46 34 -7 -25 47 -79 88
-79 59z"/>
<path d="M2507 7072 c7 -19 74 -84 81 -78 5 6 -24 61 -40 73 -7 5 -21 13 -30
16 -13 5 -15 2 -11 -11z"/>
<path d="M2650 6922 c0 -4 18 -26 40 -47 33 -32 40 -36 40 -19 0 23 -45 74
-65 74 -8 0 -15 -4 -15 -8z"/>
<path d="M3387 6806 c-12 -9 -17 -24 -15 -40 2 -18 165 -190 573 -603 1159
-1174 1208 -1223 1236 -1223 29 0 59 27 59 53 0 10 -215 234 -477 498 -263
264 -481 485 -484 491 -4 6 -193 197 -420 424 -277 278 -420 414 -434 414 -11
0 -28 -7 -38 -14z"/>
<path d="M2800 6773 c1 -13 80 -96 86 -90 7 7 -13 46 -39 75 -20 21 -47 30
-47 15z"/>
<path d="M5565 6720 c-3 -5 1 -10 10 -10 9 0 13 5 10 10 -3 6 -8 10 -10 10 -2
0 -7 -4 -10 -10z"/>
<path d="M2940 6622 c0 -4 20 -28 45 -52 50 -49 60 -37 20 23 -15 21 -34 37
-45 37 -11 0 -20 -4 -20 -8z"/>
<path d="M3088 6474 c16 -29 82 -90 82 -75 0 18 -39 81 -50 81 -5 0 -16 3 -25
7 -15 5 -16 3 -7 -13z"/>
<path d="M7958 6469 c-10 -5 -18 -17 -18 -25 0 -12 7 -14 30 -9 35 8 60 -7 60
-36 0 -15 -8 -19 -39 -19 -21 0 -52 5 -70 11 -24 8 -39 8 -61 -1 -44 -18 -42
-23 42 -99 45 -39 55 -14 12 30 -21 21 -35 41 -32 45 3 3 28 -2 54 -11 78 -26
134 -5 134 50 0 21 -57 75 -79 75 -9 0 -24 -5 -33 -11z"/>
<path d="M8083 6359 c-33 -12 -28 -29 8 -29 44 0 79 -40 46 -53 -8 -3 -20 -1
-28 4 -8 5 -20 9 -26 9 -15 0 -17 -36 -3 -45 16 -10 12 -23 -10 -35 -37 -20
-80 23 -60 60 7 13 7 21 0 25 -14 9 -36 -10 -43 -36 -8 -29 47 -89 82 -89 31
0 71 25 71 45 0 8 13 21 29 29 47 25 49 59 4 97 -26 23 -45 28 -70 18z"/>
<path d="M3272 6283 c56 -56 70 -53 28 5 -20 28 -38 42 -52 42 -20 0 -17 -6
24 -47z"/>
<path d="M6808 6219 c20 -22 14 -32 -43 -74 -53 -39 -69 -65 -41 -65 16 0 166
118 166 131 0 5 -6 9 -14 9 -7 0 -29 3 -47 6 -28 6 -32 4 -21 -7z"/>
<path d="M8150 6193 c-40 -15 -42 -25 -10 -58 27 -28 29 -33 15 -45 -8 -7 -15
-19 -15 -26 0 -17 26 -19 36 -3 3 6 17 9 30 6 19 -3 24 0 24 16 0 11 20 37 45
59 25 22 43 44 39 49 -6 10 -139 11 -164 2z m90 -27 c0 -10 -33 -36 -45 -36
-8 0 -19 9 -25 20 -10 18 -8 20 30 20 22 0 40 -2 40 -4z"/>
<path d="M8318 6097 c-21 -12 -38 -26 -38 -32 0 -5 15 -17 33 -25 41 -19 47
-51 12 -70 -32 -17 -58 -4 -63 31 -5 34 -18 45 -37 29 -21 -17 -19 -24 16 -65
39 -44 83 -47 123 -10 33 30 33 59 1 89 -18 17 -22 25 -13 34 9 9 20 5 44 -19
22 -22 38 -30 50 -25 15 6 12 12 -21 46 -45 46 -56 47 -107 17z"/>
<path d="M6952 6053 c-36 -18 -82 -71 -82 -95 0 -8 9 -27 21 -42 35 -44 92
-34 157 27 79 76 6 160 -96 110z m90 -37 c12 -17 10 -22 -24 -55 -38 -37 -72
-48 -93 -31 -31 26 -13 62 49 94 29 15 55 12 68 -8z"/>
<path d="M6793 6020 c-3 -11 -12 -20 -19 -20 -8 0 -14 -4 -14 -10 0 -16 37
-12 54 6 20 20 20 30 0 38 -11 4 -18 -1 -21 -14z"/>
<path d="M8460 6012 c0 -5 14 -21 30 -37 41 -39 39 -55 -7 -55 -46 0 -108 -21
-130 -43 -27 -27 6 -31 61 -7 26 11 58 20 71 20 42 0 87 13 92 26 6 15 -82
104 -103 104 -8 0 -14 -4 -14 -8z"/>
<path d="M3607 5944 c3 -7 9 -14 14 -14 14 0 10 17 -5 23 -10 4 -13 1 -9 -9z"/>
<path d="M7088 5946 c-16 -6 -44 -27 -63 -46 -43 -42 -46 -80 -9 -109 35 -28
66 -26 114 5 75 50 91 107 41 143 -33 24 -44 25 -83 7z m67 -42 c14 -14 14
-19 2 -38 -15 -22 -74 -66 -88 -66 -5 0 -18 9 -29 20 -19 19 -19 23 -6 42 19
27 66 58 88 58 9 0 24 -7 33 -16z"/>
<path d="M8564 5866 c-26 -20 -6 -43 24 -27 27 14 69 -17 58 -44 -5 -15 -13
-16 -54 -10 -88 13 -124 11 -136 -8 -9 -15 -4 -25 34 -62 25 -24 51 -44 58
-45 22 0 13 28 -18 53 -28 24 -39 47 -22 47 4 0 25 -7 47 -15 57 -20 83 -18
110 10 32 32 31 50 -4 86 -32 32 -66 37 -97 15z"/>
<path d="M5673 5850 c-30 -12 -29 -21 7 -55 l30 -29 -21 -22 c-24 -25 -9 -44
18 -22 9 7 27 11 40 10 20 -3 24 0 21 15 -2 12 11 29 39 52 64 50 58 61 -34
60 -43 0 -88 -4 -100 -9z m94 -40 c-14 -11 -30 -20 -36 -20 -6 0 -15 9 -21 20
-10 19 -8 20 36 20 l47 0 -26 -20z"/>
<path d="M7230 5833 c-34 -12 -92 -59 -106 -84 -19 -38 -18 -46 11 -74 33 -34
76 -32 129 5 75 51 82 111 16 145 -16 8 -30 15 -32 14 -2 0 -10 -3 -18 -6z
m41 -43 c10 -6 19 -19 19 -29 0 -33 -76 -87 -109 -76 -46 14 -29 69 31 98 40
20 35 19 59 7z"/>
<path d="M3782 5766 c13 -13 25 -22 27 -20 6 5 -30 44 -41 44 -5 0 2 -11 14
-24z"/>
<path d="M5855 5770 c-10 -16 3 -29 25 -23 25 7 50 -13 50 -39 0 -16 -5 -19
-20 -14 -11 3 -29 9 -40 12 -14 5 -20 2 -20 -9 0 -9 5 -19 10 -22 18 -11 11
-43 -11 -50 -29 -10 -62 22 -54 53 8 34 -4 46 -26 26 -26 -24 -24 -53 8 -86
31 -33 81 -38 106 -10 22 23 53 54 77 75 26 22 25 29 -9 66 -29 31 -82 43 -96
21z"/>
<path d="M8697 5753 c-16 -15 -7 -35 14 -30 26 7 59 -12 59 -34 0 -23 -26 -31
-40 -13 -18 20 -40 17 -40 -6 0 -11 5 -20 10 -20 16 0 11 -40 -6 -47 -8 -3
-27 0 -41 6 -22 10 -24 16 -19 46 7 37 -8 47 -32 23 -20 -20 -14 -53 16 -80
34 -32 56 -39 84 -29 17 6 28 0 57 -32 32 -36 34 -40 18 -52 -9 -7 -17 -17
-17 -24 0 -14 27 -14 36 0 3 6 17 9 30 6 19 -3 24 0 24 16 0 11 18 35 40 54
58 50 53 63 -23 63 -34 0 -77 -4 -95 -9 -47 -14 -43 22 5 48 43 22 46 46 12
86 -30 33 -74 47 -92 28z m151 -210 c-27 -26 -28 -26 -48 -8 -30 27 -25 35 27
35 l48 0 -27 -27z"/>
<path d="M5954 5641 c-18 -11 -44 -36 -59 -55 -24 -31 -26 -40 -17 -61 6 -13
22 -31 36 -40 22 -15 30 -15 63 -3 46 16 113 78 113 105 0 11 -9 32 -21 47
-25 32 -70 35 -115 7z m84 -23 c20 -20 14 -45 -19 -72 -40 -34 -76 -43 -95
-24 -21 21 -1 60 44 86 43 25 54 26 70 10z"/>
<path d="M7363 5621 c-67 -48 -81 -93 -41 -131 14 -13 35 -20 60 -20 31 0 46
8 83 43 67 65 58 123 -20 134 -33 4 -47 0 -82 -26z m105 -37 c2 -15 -9 -31
-35 -53 -40 -33 -62 -38 -81 -19 -20 20 -14 45 19 73 40 33 92 32 97 -1z"/>
<path d="M7230 5590 c0 -11 7 -20 15 -20 8 0 15 9 15 20 0 11 -7 20 -15 20 -8
0 -15 -9 -15 -20z"/>
<path d="M7515 5515 c-53 -29 -85 -66 -85 -100 0 -49 32 -71 97 -67 30 3 113
83 113 109 0 54 -71 87 -125 58z m81 -47 c5 -17 -1 -29 -30 -56 -41 -37 -81
-41 -100 -9 -9 16 -5 24 28 53 47 41 91 46 102 12z"/>
<path d="M6135 5456 c-55 -32 -88 -81 -73 -110 32 -62 85 -75 132 -31 34 31
33 57 -3 88 -32 26 -31 37 4 37 28 0 45 -18 45 -48 0 -33 34 -25 38 9 2 19 -5
33 -28 53 -38 31 -62 32 -115 2z m29 -72 c23 -22 20 -43 -9 -56 -30 -14 -55 3
-55 37 0 35 38 46 64 19z"/>
<path d="M5977 5414 c-16 -13 -25 -29 -22 -34 8 -14 65 16 65 35 0 24 -14 24
-43 -1z"/>
<path d="M6259 5332 c-76 -49 -94 -90 -59 -135 38 -47 107 -32 169 38 38 44
39 61 4 97 -34 35 -58 35 -114 0z m95 -35 c9 -16 4 -25 -33 -58 -47 -42 -76
-47 -95 -16 -14 22 -1 44 45 75 38 26 67 25 83 -1z"/>
<path d="M7683 5317 c-44 -30 -66 -71 -58 -107 7 -31 56 -80 81 -80 8 0 14 -9
14 -20 0 -28 9 -25 60 20 l45 40 -38 35 c-39 37 -65 39 -47 4 6 -10 15 -19 20
-19 6 0 10 -7 10 -15 0 -25 -63 -19 -88 8 -28 30 -28 58 1 84 39 35 58 42 91
30 40 -14 55 -34 56 -74 0 -39 16 -43 32 -8 24 54 -39 126 -112 124 -19 0 -49
-10 -67 -22z"/>
<path d="M6435 5248 c-5 -12 2 -26 24 -44 17 -14 31 -29 31 -33 0 -4 -28 -13
-62 -20 -76 -17 -118 -37 -118 -56 0 -19 13 -19 53 -1 47 20 110 36 145 36 17
0 34 5 37 10 4 6 -18 36 -49 68 -45 47 -56 54 -61 40z"/>
<path d="M7915 5190 c-3 -6 -37 -35 -76 -66 -38 -30 -69 -60 -69 -67 0 -22 74
-86 108 -93 38 -8 82 17 82 46 0 11 6 20 13 20 21 0 57 39 57 61 0 22 -76 109
-96 109 -7 0 -16 -5 -19 -10z m52 -62 c26 -24 29 -38 11 -56 -13 -13 -43 0
-70 31 -17 19 -17 21 0 33 24 18 32 17 59 -8z m-69 -71 c25 -26 29 -36 20 -45
-18 -18 -49 -14 -75 10 -26 24 -29 38 -11 56 19 19 32 15 66 -21z"/>
<path d="M4486 5049 c12 -13 20 -16 22 -9 3 7 -2 16 -9 21 -25 16 -32 9 -13
-12z"/>
<path d="M8000 4989 c-85 -69 -99 -86 -75 -95 10 -4 27 3 44 20 15 14 31 26
35 26 5 0 26 -16 47 -35 45 -41 60 -43 100 -14 42 30 39 64 -13 116 -23 24
-47 43 -53 43 -5 -1 -44 -28 -85 -61z m138 -54 c-4 -29 -45 -32 -74 -4 -30 28
-30 42 -1 62 20 14 24 13 50 -11 16 -16 27 -35 25 -47z"/>
<path d="M6410 4996 c0 -18 16 -29 30 -21 13 8 1 35 -16 35 -8 0 -14 -6 -14
-14z"/>
<path d="M6577 5003 c-71 -5 -82 -22 -42 -63 27 -29 28 -30 11 -49 -24 -26
-12 -45 17 -29 12 7 31 13 42 13 12 0 20 7 20 17 0 10 20 35 44 56 49 43 48
63 -2 60 -18 -1 -58 -3 -90 -5z m46 -49 c-23 -17 -38 -17 -52 0 -10 12 -7 15
16 18 43 5 57 -2 36 -18z"/>
<path d="M6703 4921 c-49 -31 -56 -88 -12 -111 26 -14 24 -30 -4 -30 -29 0
-47 18 -47 47 0 29 -26 31 -35 3 -8 -26 18 -68 50 -80 50 -19 144 33 164 91
10 29 8 34 -23 65 -39 39 -50 41 -93 15z m71 -37 c21 -20 20 -27 -5 -50 -22
-20 -43 -13 -63 20 -9 13 -7 20 8 32 25 18 41 18 60 -2z"/>
<path d="M6865 4704 c-82 -65 -102 -94 -67 -94 11 0 22 3 24 8 7 16 112 96
106 81 -18 -46 -48 -153 -48 -169 0 -38 51 -23 100 30 3 3 24 20 48 39 41 32
55 61 29 61 -7 0 -22 -8 -33 -18 -43 -39 -86 -72 -93 -72 -4 0 4 37 19 83 43
130 26 140 -85 51z"/>
<path d="M4809 4732 c13 -24 81 -88 81 -76 0 19 -50 82 -69 87 -17 4 -19 2
-12 -11z"/>
<path d="M4961 4573 c16 -20 70 -73 74 -73 10 0 -11 43 -31 65 -27 30 -66 37
-43 8z"/>
<path d="M7051 4558 c-46 -23 -81 -68 -81 -106 0 -27 59 -92 83 -92 8 0 17
-10 20 -21 6 -21 7 -21 47 11 23 18 44 39 47 46 5 13 -50 74 -67 74 -16 0 -12
-36 5 -50 23 -19 18 -30 -15 -30 -33 0 -80 38 -80 64 0 8 12 29 26 46 24 27
32 31 72 28 35 -2 49 -9 65 -30 15 -20 17 -30 9 -40 -6 -8 -7 -19 -2 -28 7
-11 11 -11 24 -1 37 31 8 99 -55 132 -47 24 -45 24 -98 -3z"/>
<path d="M5110 4425 c0 -3 18 -24 40 -47 46 -49 57 -30 14 21 -22 27 -54 42
-54 26z"/>
<path d="M7248 4402 c-18 -15 -39 -33 -46 -40 -8 -7 -29 -24 -48 -38 -33 -25
-45 -54 -23 -54 5 0 38 22 72 50 33 27 62 48 63 47 2 -2 -9 -40 -23 -85 -25
-81 -25 -112 -1 -112 18 0 162 118 166 136 6 26 -20 14 -80 -36 -33 -28 -63
-49 -65 -46 -2 2 7 38 21 80 14 42 26 85 26 95 0 31 -27 32 -62 3z"/>
<path d="M5266 4272 c-3 -5 15 -28 39 -52 25 -24 45 -41 45 -36 0 22 -55 96
-71 96 -4 0 -10 -4 -13 -8z"/>
<path d="M5426 4112 c-5 -9 73 -97 80 -89 7 7 -13 46 -39 75 -21 23 -33 27
-41 14z"/>
<path d="M5560 3963 c0 -5 34 -42 75 -83 41 -41 75 -71 75 -66 0 5 -8 16 -19
25 -10 9 -27 34 -39 57 -11 22 -26 45 -34 51 -19 15 -58 26 -58 16z"/>
<path d="M5720 3802 c0 -4 20 -28 45 -52 27 -26 45 -38 45 -29 0 17 -26 59
-48 77 -18 14 -42 16 -42 4z"/>
<path d="M5915 3600 c27 -27 51 -50 52 -50 2 0 3 7 3 15 0 23 -60 85 -83 85
-18 0 -13 -8 28 -50z"/>
<path d="M6328 3283 c7 -3 16 -2 19 1 4 3 -2 6 -13 5 -11 0 -14 -3 -6 -6z"/>
<path d="M6368 3263 c6 -2 18 -2 25 0 6 3 1 5 -13 5 -14 0 -19 -2 -12 -5z"/>
<path d="M6415 3240 c3 -5 12 -7 20 -3 21 7 19 13 -6 13 -11 0 -18 -4 -14 -10z"/>
<path d="M6460 3226 c0 -10 28 -13 41 -5 10 6 7 9 -13 9 -16 0 -28 -2 -28 -4z"/>
<path d="M6538 3198 c17 -8 26 -8 34 0 9 9 4 12 -22 11 -33 0 -34 -1 -12 -11z"/>
<path d="M6612 3179 c18 -7 33 -7 45 0 14 8 9 10 -27 10 -42 -1 -43 -1 -18
-10z"/>
</g>
</svg>
