<svg xmlns="http://www.w3.org/2000/svg" viewBox="0 0 790.53 203.05"><defs><style>.cls-1{fill:#e3ddea;}.cls-2{fill:#f5f4fa;}</style></defs><title>backgroundbuildings</title><g id="Layer_2" data-name="Layer 2"><g id="Layer_1-2" data-name="Layer 1"><polygon class="cls-1" points="9.66 195.08 9.66 172.02 36.19 172.02 36.19 162.56 53.95 162.56 53.95 139.49 68.72 139.49 68.72 150.1 82.79 150.1 82.79 111.58 91.55 111.58 91.55 94.41 88.32 94.41 88.32 91.05 94.78 91.05 94.78 82.75 120.39 82.75 120.39 91.28 128.92 91.28 128.92 82.75 133.07 82.75 133.07 91.28 137.92 91.28 137.92 82.75 142.53 82.75 142.53 90.82 152.22 90.82 152.22 94.41 150.84 94.41 150.84 153.1 166.52 153.1 166.52 124.96 162.37 124.96 162.37 122.04 177.59 122.04 177.59 149.41 184.05 149.41 184.05 62.56 185.23 62.56 185.23 57.26 187.58 57.26 187.58 39.77 188.33 39.77 188.33 57.24 190.45 57.24 190.45 43.14 191.57 43.14 191.57 57.24 195.44 57.24 195.44 62.35 200.68 62.35 200.68 152.12 232.15 152.12 232.15 103.44 271.01 103.44 271.01 113.81 278.23 113.81 278.23 54.58 283.6 54.58 283.6 49.58 300.63 49.58 300.63 73.64 313.03 73.64 313.03 127.97 405.21 127.97 405.21 20.86 415.05 20.86 415.05 9.37 420.53 9.37 420.53 0 425.35 0 425.35 9.45 430.8 9.45 430.8 20.07 441.43 20.07 441.43 78.15 523.58 78.15 523.58 85.06 517.4 85.06 517.4 90.9 509.84 90.9 509.84 148.26 622.75 148.26 622.75 104.58 647.11 104.58 647.11 37.96 681.33 37.96 681.33 131 691.94 131 691.94 94.41 694.24 94.41 694.24 88.04 695.87 88.04 695.87 83.61 708.01 83.61 708.01 87.87 709.98 87.87 709.98 94.41 716.37 94.41 716.37 91.64 719.16 91.64 719.16 94.41 720.47 94.41 720.47 87.22 724.57 87.22 724.57 94.41 725.88 94.41 738.05 169.79 779.99 169.79 779.99 203.05 0 203.05 0 194.99 9.66 195.08"/><polygon class="cls-2" points="0 187.8 19.09 187.8 19.09 164.92 40.52 164.92 40.52 191.65 56.17 191.65 56.17 170.46 78.8 170.46 78.8 137.24 104.56 137.24 104.56 179.13 135.62 179.13 135.62 122.04 144.22 122.04 144.22 118.51 155.66 118.51 155.66 122.04 160.98 122.04 160.98 137.98 188.31 137.98 188.31 139.98 184.05 139.98 184.05 166.55 194.92 166.55 194.92 86.76 193.5 86.76 193.5 85.36 210.55 85.36 210.55 86.76 209.06 86.76 209.06 90.3 231.88 90.3 231.88 192.93 249.27 192.93 257.69 161.97 274.21 161.97 274.21 137.14 290.62 137.14 290.62 126.2 288.65 126.2 288.65 125.11 304.4 125.11 304.4 126.75 302.43 126.75 302.43 137.25 306.04 137.25 306.04 169.68 328.02 169.68 331.51 173.05 331.51 131.8 365.6 131.8 365.6 66.9 395.26 66.9 395.26 72.55 385.57 72.55 385.57 132.9 400.34 132.9 400.34 68.69 416.88 66.9 416.88 63.47 428.5 63.47 428.5 67.78 420.2 67.78 420.2 181.62 434.47 181.62 434.47 137.15 456.71 137.15 456.71 180.62 476.95 180.62 476.95 75.75 473.48 75.75 473.48 74.09 470.01 74.09 470.01 70.01 522.84 70.01 522.84 73.94 520.88 73.94 520.88 75.29 518.01 75.29 518.01 92.35 520.42 92.35 520.42 93.56 518.31 93.56 518.31 180.97 530.18 180.97 530.18 123.62 528 123.62 528 120.85 538.09 120.85 538.09 112.54 542.83 112.54 542.83 120.65 560.63 120.65 560.63 113.73 586.54 113.73 586.54 120.45 593.85 120.45 593.85 123.81 588.71 123.81 588.71 165.34 611.25 175.63 611.25 132.32 629.65 132.32 629.65 88.61 628.07 88.61 628.07 85.06 632.02 85.06 632.02 81.3 655.55 81.3 655.55 74.77 662.47 74.77 665.64 70.03 672.36 70.03 672.36 81.3 675.92 81.3 675.92 85.06 679.28 85.06 679.28 88.02 676.91 88.02 676.91 155.54 693.6 155.54 693.6 182.55 716.94 182.55 716.94 122.04 713.61 122.04 713.61 118.86 749.95 118.86 749.95 122.04 746.95 122.04 746.95 152.2 758.29 152.2 764.62 187.88 790.53 187.88 790.53 203.05 0 203.05 0 187.8"/></g></g></svg>