<svg xmlns="http://www.w3.org/2000/svg" viewBox="0 0 602.48 626.6"><defs><style>.cls-1{fill:#a4d6b6;}.cls-2{fill:#3b4ca0;}.cls-3{font-size:272.64px;fill:#fff;font-family:AvertaDemoPE-ExtraBold, Averta Demo PE;font-weight:800;}.cls-4{letter-spacing:-0.01em;}</style></defs><title>call242</title><g id="Layer_2" data-name="Layer 2"><g id="Layer_1-2" data-name="Layer 1"><path class="cls-1" d="M0,210.45c2-8.75,3.77-17.55,6.08-26.22,6.41-24.09,25.74-37.47,44.68-50,4.85-3.21,17.58-.16,23.1,4.38,15.16,12.5,29.66,26.3,42.12,41.48a134.14,134.14,0,0,1,29.09,63.41c1.65,9.86.8,18.84-9,24.53-1.43.83-2.5,2.26-3.85,3.27-27.58,20.93-17.33,29.54.83,45.78,50.44,45.11,92.81,96.36,126.31,155.08a116.86,116.86,0,0,0,8.62,12.32c11.09,14.6,18.88,15.32,33.27,3.22,18.87-15.86,24.39-16.91,45.56-4.51,28.24,16.54,51,38.95,64.31,69.16,16.8,38.22,2.58,59.63-34.82,70.85-24.31,7.3-48.68,1.66-72.14-6.71-42.43-15.14-79.16-39.92-113-69C120.37,486.82,64.6,414.54,26.88,329,14,299.78,4.17,269.47,1.74,237.26c-.12-1.54-1.14-3-1.74-4.53Z"/><path class="cls-2" d="M103.74,112.81C159.09,34.37,268.67-18.88,384.18,6.31,498.88,31.32,583.6,125,599.56,236.58c18.49,129.2-53.21,239.69-149,286.56-9.49-25.58-24.28-47.55-48-61.51a127.76,127.76,0,0,0-37.33-14.27c-18.38-3.93-34.25,3.64-48.1,15.9-7.8,6.91-16.1,13.26-24.29,19.71-5.83,4.58-11.32,5.7-16-1.9-3.86-6.27-8.48-12.08-12.22-18.41A639,639,0,0,0,140,311c-21.59-19.34-18.12-20.14-.43-33.9,4-3.1,7.88-6.31,11.83-9.44,31.53-25,38.59-56.67,20.76-93C157.72,145.26,135.58,124.26,103.74,112.81Z"/><text class="cls-3" transform="translate(199.03 343.35)"><tspan class="cls-4">2</tspan><tspan x="129.5" y="0">4</tspan></text><path class="cls-1" d="M334.12,464.48c11.23-8.81,24.41-9.65,36.25-5.66a123.81,123.81,0,0,1,36.35,19.58,98.18,98.18,0,0,1,36.11,58.41c3.73,18.11.82,34.89-13.54,49.19C423.1,524.89,383.36,491.28,334.12,464.48Z"/><path class="cls-1" d="M156.78,248.27c-11.47-54.07-39.52-95.73-86.4-124.93,14.57-5.73,29.26-2.17,42.27,4.82,29.1,15.66,49.68,39.09,56.69,72.25C172.74,216.48,171.68,238.45,156.78,248.27Z"/></g></g></svg>