<svg xmlns="http://www.w3.org/2000/svg" viewBox="0 0 653.83 187.62"><defs><style>.cls-1{fill:#a5d7b6;}.cls-2,.cls-3{fill:#3754a3;}.cls-3{font-size:48.62px;font-family:AvertaDemoPE-Regular, Averta Demo PE;}.cls-4{letter-spacing:-0.04em;}.cls-5{letter-spacing:0em;}.cls-6{letter-spacing:-0.03em;}.cls-7{letter-spacing:-0.03em;}</style></defs><title>downloadapp</title><g id="Layer_2" data-name="Layer 2"><g id="Layer_1-2" data-name="Layer 1"><rect class="cls-1" width="653.83" height="187.62" rx="5.96"/><path class="cls-2" d="M604,53.85c-.25,1.65-.38,3.32-.78,4.93a27.68,27.68,0,0,1-1.57,3.78c4.31,2.84,7.55,6.42,8.81,11.49.07.25.18.5.24.75,1.08,4.9.58,5.54-4.35,5.55-9.52,0-19.05-.07-28.57,0-2.49,0-3.3-.81-3.07-3.24.61-6.36,3.89-11,9.11-14.38-.06-3.18-3.43-5.51-2.09-8.92h2.12l3.28,6.91h11.47l3.28-6.91ZM586.34,69.91c-.72,1-1.47,1.53-1.45,2.06s.81,1.06,1.26,1.59c.5-.48,1.34-.9,1.42-1.43S587,71,586.34,69.91Zm15.23,2c-1-.65-1.69-1.37-2.17-1.27a2.05,2.05,0,0,0-1.27,1.52c0,.48.91,1.26,1.45,1.3S600.63,72.69,601.57,71.91Z"/><path class="cls-2" d="M594.47,120.22h-3.23c0,2.5,0,5,0,7.55,0,3.44-1.94,5.56-5,5.59s-5-2.07-5-5.5a27.93,27.93,0,0,1,0-3.17c.27-2.76-.05-4.9-3.15-6.24-2.61-1.12-3.45-3.93-3.47-6.71-.07-8.47,0-16.95-.06-25.43,0-2,1-2.76,3-2.75q15.36.09,30.73,0c2.07,0,2.9.86,2.9,2.83,0,8.39,0,16.78,0,25.17a8.48,8.48,0,0,1-5.1,8,3.31,3.31,0,0,0-1.45,2.3c-.2,2.19,0,4.42-.1,6.62a5,5,0,0,1-10,0c-.07-1.41,0-2.82,0-4.24Z"/><path class="cls-2" d="M624.27,97c0,2.73.05,5.46,0,8.19a4.67,4.67,0,0,1-4.46,4.94c-2.71.22-5.11-1.26-5.23-4.05-.27-6.13-.23-12.3,0-18.43.11-2.5,2.74-4.21,5.08-4a4.92,4.92,0,0,1,4.57,4.92C624.33,91.35,624.27,94.17,624.27,97Z"/><path class="cls-2" d="M561.41,96.94c0-2.73,0-5.46,0-8.19a5,5,0,0,1,4.65-5.14,4.75,4.75,0,0,1,5.1,4.33c.23,6,.28,12,0,17.92-.14,3-2.52,4.5-5.32,4.25s-4.34-2.08-4.41-5c-.06-2.73,0-5.46,0-8.19Z"/><path class="cls-2" d="M488.17,133.36h-2.94c-.78-.25-1.57-.44-2.32-.76-3.38-1.42-5.81-4-7.92-6.85a55.39,55.39,0,0,1-8.51-18.51,36.4,36.4,0,0,1-1.09-16.3C467,82.08,471.93,76,480.62,73.25a14,14,0,0,1,8.45-.35c2,.59,4,1.17,5.86,1.95a7.35,7.35,0,0,0,6.17-.12,24.56,24.56,0,0,1,8.59-2.41A21.07,21.07,0,0,1,522,75.2a20.57,20.57,0,0,1,6.94,7.3c-1.27,1-2.5,1.94-3.69,2.92-5.85,4.81-6.19,12-3.44,17.43a14.42,14.42,0,0,0,6.07,5.81,4.31,4.31,0,0,1,2.15,2.22v.93s-.08.07-.1.12a51.93,51.93,0,0,1-4.52,9.71,30.91,30.91,0,0,1-7.42,8.94,11.32,11.32,0,0,1-7.18,2.66,15.9,15.9,0,0,1-6.45-1.67c-2.49-1.1-5.05-1.73-7.72-.82A52.47,52.47,0,0,1,488.17,133.36Z"/><path class="cls-2" d="M512.26,53.85a19,19,0,0,1-2.28,9.9,14.4,14.4,0,0,1-8,7,22.58,22.58,0,0,1-3.7.69c-.67.11-.88-.27-.91-.89a12.66,12.66,0,0,1,.92-5.52A18,18,0,0,1,509,54.54,22.51,22.51,0,0,1,512.26,53.85Z"/><text class="cls-3" transform="translate(40.8 115.17)">D<tspan class="cls-4" x="35.3" y="0">O</tspan><tspan class="cls-5" x="73.42" y="0">WN</tspan><tspan class="cls-6" x="159.53" y="0">L</tspan><tspan class="cls-7" x="185.2" y="0">O</tspan><tspan x="223.62" y="0">AD APP</tspan></text></g></g></svg>