<svg xmlns="http://www.w3.org/2000/svg" xmlns:xlink="http://www.w3.org/1999/xlink" viewBox="0 0 242.14 242.14"><defs><style>.cls-1{fill:url(#radial-gradient);}.cls-2{fill:#fff;}</style><radialGradient id="radial-gradient" cx="121.07" cy="121.07" r="121.07" gradientUnits="userSpaceOnUse"><stop offset="0" stop-color="#3653a4"/><stop offset="1" stop-color="#243870"/></radialGradient></defs><title>linkedin</title><g id="Layer_2" data-name="Layer 2"><g id="Layer_1-2" data-name="Layer 1"><circle class="cls-1" cx="121.07" cy="121.07" r="121.07"/><path class="cls-2" d="M102.55,184.29V99.93H127.7V111.2l.43.29a3.71,3.71,0,0,1,.24-.66c4.32-7.28,10.94-11.22,19.08-12.64a38.21,38.21,0,0,1,17.92,1.23c8.34,2.55,13.52,8.26,16.17,16.42a57,57,0,0,1,2.51,14.77c0,.69.16,1.38.24,2.07v51.61H158.11c0-13.37.08-26.75-.05-40.12a86.94,86.94,0,0,0-1-13c-.76-4.74-3.26-8.54-8.25-9.72a23,23,0,0,0-7.08-.37,12.25,12.25,0,0,0-11,8c-1.71,4.18-2,8.61-2,13.07v42.09Z"/><path class="cls-2" d="M59.83,184.29c0-.53.05-1.07.05-1.6V99.94H86.2v1.53q0,40.6,0,81.22c0,.53,0,1.07,0,1.6Z"/><path class="cls-2" d="M75.14,57.85a40.67,40.67,0,0,1,5.25,1.95,15,15,0,0,1,7.42,16.74,15.14,15.14,0,0,1-29.42.59c-.19-.67-.36-1.33-.54-2v-4.2a1.88,1.88,0,0,0,.22-.42,14.68,14.68,0,0,1,8.27-11.08,35.66,35.66,0,0,1,4.6-1.59Z"/></g></g></svg>