<svg xmlns="http://www.w3.org/2000/svg" viewBox="0 0 780.87 524.54"><defs><style>.cls-1{fill:#36363e;}.cls-2{font-size:29.02px;}.cls-2,.cls-24,.cls-28{fill:#fff;}.cls-13,.cls-2,.cls-24,.cls-25,.cls-27,.cls-28{font-family:AvertaDemoPE-Regular, AvertaDemoPE Regular;}.cls-3{letter-spacing:0em;}.cls-4{letter-spacing:0em;}.cls-5{letter-spacing:0em;}.cls-6{letter-spacing:-0.01em;}.cls-7{letter-spacing:0em;}.cls-8{letter-spacing:0em;}.cls-9{letter-spacing:-0.01em;}.cls-10{font-size:18.13px;fill:gray;}.cls-11{letter-spacing:-0.01em;}.cls-12{letter-spacing:-0.02em;}.cls-13{font-size:14.06px;}.cls-13,.cls-27,.cls-31{fill:#a4d6b7;}.cls-14{letter-spacing:0.01em;}.cls-15{letter-spacing:0em;}.cls-16{letter-spacing:0em;}.cls-17{letter-spacing:-0.01em;}.cls-18{letter-spacing:0em;}.cls-19{letter-spacing:-0.01em;}.cls-20{font-size:16.94px;fill:#3953a4;}.cls-20,.cls-26{font-family:Helvetica;}.cls-21,.cls-22,.cls-23,.cls-32{fill:none;}.cls-21{stroke:#3953a4;}.cls-21,.cls-22,.cls-23{stroke-miterlimit:10;}.cls-21,.cls-23{stroke-width:2px;}.cls-22{stroke:#dededd;opacity:0.5;}.cls-22,.cls-32{stroke-width:4px;}.cls-23{stroke:#151514;opacity:0.2;}.cls-24{font-size:29.21px;}.cls-25,.cls-27,.cls-28{font-size:21.64px;}.cls-25,.cls-26{fill:#6e717c;}.cls-26{font-size:20.16px;}.cls-29{letter-spacing:-0.01em;}.cls-30{letter-spacing:0em;}.cls-32{stroke:#a4d6b7;stroke-linecap:round;stroke-linejoin:round;}</style></defs><title>Asset 7</title><g id="Layer_2" data-name="Layer 2"><g id="Layer_1-2" data-name="Layer 1"><rect class="cls-1" width="780.87" height="524.54" rx="33.79"/><text class="cls-2" transform="translate(43.41 50.55)"><tspan class="cls-3">R</tspan><tspan class="cls-4" x="15.73" y="0">eal </tspan><tspan class="cls-5" x="57.25" y="0">e</tspan><tspan class="cls-6" x="71.7" y="0">x</tspan><tspan x="84.69" y="0">change </tspan><tspan class="cls-7" x="180.79" y="0">r</tspan><tspan class="cls-8" x="190.13" y="0">a</tspan><tspan class="cls-9" x="204" y="0">t</tspan><tspan x="213.43" y="0">e</tspan><tspan class="cls-10"><tspan class="cls-11" x="0" y="24.18">A</tspan><tspan x="10.99" y="24.18">s of 1 min ag</tspan><tspan class="cls-12" x="106.41" y="24.18">o</tspan><tspan x="115.93" y="24.18">, 1 GBP = 416.912 NGN</tspan></tspan></text><text class="cls-13" transform="translate(599.62 59.96)"><tspan class="cls-14">M</tspan><tspan class="cls-15" x="11.47" y="0">id ma</tspan><tspan class="cls-16" x="44.17" y="0">r</tspan><tspan x="48.82" y="0">ket </tspan><tspan class="cls-17" x="70.09" y="0">r</tspan><tspan class="cls-18" x="74.62" y="0">a</tspan><tspan class="cls-19" x="81.34" y="0">t</tspan><tspan x="85.91" y="0">e</tspan></text><text class="cls-20" transform="translate(712.67 60.97)">?</text><circle class="cls-21" cx="717.38" cy="54.74" r="10.22"/><line class="cls-22" x1="34.51" y1="94.14" x2="735.28" y2="94.14"/><line class="cls-23" x1="34.51" y1="213.36" x2="735.28" y2="213.36"/><line class="cls-23" x1="34.51" y1="340.57" x2="735.28" y2="340.57"/><line class="cls-23" x1="34.51" y1="469.07" x2="735.28" y2="469.07"/><text class="cls-24" transform="translate(151.87 145.62)">UK</text><text class="cls-25" transform="translate(153.76 180.98)">GBP</text><text class="cls-26" transform="translate(62.1 159.78)">1</text><text class="cls-24" transform="translate(608.54 145.62)">416.912</text><text class="cls-27" transform="translate(651.47 180.98)">1.08%</text><text class="cls-24" transform="translate(151.87 269.54)">CHINA</text><text class="cls-28" transform="translate(153.76 304.91)">C<tspan class="cls-29" x="12.55" y="0">N</tspan><tspan class="cls-30" x="26.64" y="0">Y</tspan></text><text class="cls-26" transform="translate(62.1 286.22)">2</text><text class="cls-24" transform="translate(608.54 272.06)">6716.74</text><text class="cls-24" transform="translate(151.87 398.37)">USA</text><text class="cls-28" transform="translate(153.76 433.74)">USD</text><text class="cls-26" transform="translate(62.1 412.53)">3</text><text class="cls-24" transform="translate(608.54 398.37)">6716.74</text><polygon class="cls-31" points="630.21 180.26 643.12 180.26 636.67 167.75 630.21 180.26"/><text class="cls-27" transform="translate(651.47 307.16)">0.98%</text><polygon class="cls-31" points="630.21 306.44 643.12 306.44 636.67 293.93 630.21 306.44"/><text class="cls-27" transform="translate(651.47 432.21)">1.45%</text><polygon class="cls-31" points="630.21 431.49 643.12 431.49 636.67 418.98 630.21 431.49"/><path class="cls-32" d="M354.74,170.56s4.34-1.55,5-2.79,2.17-8.06,3.72-8.06,5.58,4,7.12,3.72,4.34-7.75,6.51-8.06,6.51.31,8.68-1.86,3.41-13.2,6.51-12.79,5.57,2.07,7.74,0,3.72-6.73,4.34-4.25S404,149.8,408,149.8s4.65-3.41,7.13-7.13,4.65-5.27,4.65-8.68,4.33-14.87,5.88-14.87,1.55,3.72,3.41,3.72,4.34-4.34,5-1.24,1.55,11.77,3.1,11.15,4.34-7.74,4.34-7.74"/><path class="cls-32" d="M354.74,300.8s2.57,2.37,4,2.37,2.66-13.88,4.73-12.41,4.72,4.43,8.56,4.14,6.8-4.95,9.16-4.25,6.5-1.95,6.5-5.5-1.77-6.5,2.95-6.5,5.14,1.19,7.44,0,1.72-3.25,4.37-2.95,4.73,7.09,8,5.32,6.5-3.55,8.56-10,5.62-22.15,7.09-20.67.3,7.68,3.84,4.73,4.14-2.37,4.73,1.77,3.84,7.38,4.72,6.5"/><path class="cls-32" d="M356.32,441.66s2.81-43.66,3.28-39.44.94,17.84,3.76,14.09,2.56-18.78,5.51-17.84,5.15,0,4.75,8.45,4.76,31.92,4.76,28.17,3.29-33.81,3.29-33.81,3.75,4.23,3.75,6.11.94,10.32,3.29,9.39,7.51-12.68,7.51-12.68L400,434.62s.47-42.73,3.75-42.73,4.7,6.11,4.7,6.11l6.1,34.74,5.17-40.85L422,404.57l5.64-12.68s0,5.64,1.87,5.64,7.52,13.14,7.52,13.14l4.22-10.79"/></g></g></svg>