<svg xmlns="http://www.w3.org/2000/svg" xmlns:xlink="http://www.w3.org/1999/xlink" viewBox="0 0 242.14 242.14"><defs><style>.cls-1{fill:url(#radial-gradient);}.cls-2{fill:#fff;}</style><radialGradient id="radial-gradient" cx="121.07" cy="121.07" r="121.07" gradientUnits="userSpaceOnUse"><stop offset="0" stop-color="#3653a4"/><stop offset="1" stop-color="#243870"/></radialGradient></defs><title>twitter</title><g id="Layer_2" data-name="Layer 2"><g id="Layer_1-2" data-name="Layer 1"><circle class="cls-1" cx="121.07" cy="121.07" r="121.07"/><path class="cls-2" d="M105.49,190.48H85.17c-3.86-.95-7.75-1.78-11.57-2.87a70,70,0,0,1-20.73-9.54c21.48-1.29,34-5.11,39.42-12-12-1.76-20.28-8-24.91-19.91H78.49c-15.91-9.3-21.67-17.34-20.69-28.09l10.06,2.68c-11.29-13.9-13.66-27.63-5.93-37.1,15.28,17.29,34,27.59,57.52,28.79,0-1.6,0-2.51,0-3.42-.71-12.39,4-22.1,15.07-27.83,11.32-5.87,22.21-4.38,32.3,3.6,1.34,1.06,4,1.29,5.77.8,4.46-1.26,8.74-3.15,13.09-4.79l1,1L176.3,95.3l13-3.31a53,53,0,0,1-9.49,11.06c-2.27,2-3.36,3.8-3.38,6.92a81.25,81.25,0,0,1-51.11,75C119,187.49,112.11,188.67,105.49,190.48Z"/></g></g></svg>