<svg xmlns="http://www.w3.org/2000/svg" viewBox="0 0 557.31 574.95"><defs><style>.cls-1{fill:#3253a4;opacity:0.9;}.cls-2{fill:none;stroke:#3253a4;stroke-miterlimit:10;stroke-width:20px;}.cls-3{fill:#a5d7b6;}</style></defs><title>callperson</title><g id="Layer_2" data-name="Layer 2"><g id="Layer_1-2" data-name="Layer 1"><path class="cls-1" d="M0,575c0-153.9,124.76-278.66,278.66-278.66S557.31,421.05,557.31,575"/><circle class="cls-1" cx="278.66" cy="182.99" r="147.07"/><path class="cls-2" d="M105.66,183a173,173,0,0,1,346,0"/><path class="cls-3" d="M124.76,120V246a63,63,0,1,1,0-126Z"/><path class="cls-3" d="M498.6,183a63,63,0,0,1-63,63V120A63,63,0,0,1,498.6,183Z"/><path class="cls-3" d="M381.57,300.86v-19.1a59.72,59.72,0,0,0,59.66-59.66h19.1A78.85,78.85,0,0,1,381.57,300.86Z"/><circle class="cls-3" cx="381.57" cy="291.44" r="13.52"/></g></g></svg>