<svg xmlns="http://www.w3.org/2000/svg" viewBox="0 0 421.58 390.67"><defs><style>.cls-1{fill:#3253a4;}.cls-2{fill:#a5d7b6;}</style></defs><title>currencyconvert</title><g id="Layer_2" data-name="Layer 2"><g id="Layer_1-2" data-name="Layer 1"><path class="cls-1" d="M401.38,105c-.91-1.76-1.58-3.1-2.24-4.43q-35-68.35-105.33-99.08c-6.92-3-10.92-1.45-13.77,5.4q-6.19,14.74-12.32,29.55c-2.91,7-1.52,10.62,5.58,13.65a156.22,156.22,0,0,1,58.79,43.81,149.94,149.94,0,0,1,20.27,31.36c-2.37,1-4.31,1.82-6.37,2.61-3.4,1.28-6.13,3.16-6.68,7-.6,4.19,1.46,7,4.8,9.28,17,11.29,34,22.63,51,33.86,6.37,4.18,12.44,1.69,14-5.65,2-9.64,3.82-19.35,5.82-29,2.12-10.37,4.43-20.81,6.61-31.24v-5.77C415.7,96.24,408.3,102.73,401.38,105ZM395,158.13l-29.73-19.84c7.34-4.61,8.07-7.35,4.55-14.87q-26.2-56.88-82.15-84.88a22.65,22.65,0,0,1-2.12-1.33c.36-1,.61-1.94,1-2.79,2.06-4.92,4.13-9.83,6.43-15.41,6.07,3.27,11.89,6.19,17.47,9.52,35.13,21.18,61,50.6,77.91,87.92,3.33,7.34,5.46,8.37,13.71,6.55C399.68,134.71,397.44,146.11,395,158.13Z"/><path class="cls-2" d="M402.05,123c-2.37,11.71-4.61,23.11-7,35.13l-29.73-19.84c7.34-4.61,8.07-7.35,4.55-14.87q-26.2-56.88-82.15-84.88a22.65,22.65,0,0,1-2.12-1.33c.36-1,.61-1.94,1-2.79,2.06-4.92,4.13-9.83,6.43-15.41,6.07,3.27,11.89,6.19,17.47,9.52,35.13,21.18,61,50.6,77.91,87.92C391.67,123.79,393.8,124.82,402.05,123Z"/><path class="cls-1" d="M381.42,292.69c-4.55-1.82-8.92.07-11.16,4.8-.55,1.27-1,2.55-1.52,3.82-17.35,42-64.25,66.92-108.72,57.76a97.15,97.15,0,0,1-75.54-117.16c16-69.83,100-99.86,157.32-52.23,12.92,10.73,22.09,24.26,28.27,39.86,2.13,5.34,6.43,7.16,11.17,5.27,4.43-1.88,6.12-6.31,4.24-11.34-17.47-47.75-67.77-78.75-118-72.74-4.55.54-9.1,1.15-14,1.75,6.62-34.52.55-66.13-20.62-94s-49.63-43.19-84.64-45C84,10.15,33.11,59.66,29,118c-2.3,32.58,7.22,61.7,29.61,85.67C88.26,235.48,125.21,246,168,237.91c-.12,1.39-.12,2.31-.3,3.21-6.25,32.83-.19,63.22,20,89.92,27.06,35.86,63.82,50.6,108.23,45.14,23.79-3,44.29-13.71,61.65-30.28a111.06,111.06,0,0,0,27.9-42.1C387.3,299,385.54,294.39,381.42,292.69ZM172.16,219.22C113.86,238.09,56.59,199.5,46.7,143.81,37.35,91.21,72.72,41,125,31.51a149.13,149.13,0,0,1,14.87-1.7c51.63.18,92.95,36.89,98.89,85.48a90.3,90.3,0,0,1-3.94,41,8.14,8.14,0,0,1-3.7,4.3c-24.88,12-43.32,30.34-55.21,55.33A7.08,7.08,0,0,1,172.16,219.22Z"/><path class="cls-2" d="M238.72,115.29C232.78,66.7,191.46,30,139.83,29.81A149.13,149.13,0,0,0,125,31.51C72.72,41,37.35,91.21,46.7,143.81c9.89,55.69,67.16,94.28,125.46,75.41a7.08,7.08,0,0,0,3.71-3.34c11.89-25,30.33-43.31,55.21-55.33a8.14,8.14,0,0,0,3.7-4.3A90.3,90.3,0,0,0,238.72,115.29Zm-60.25,37.62c-1.57,15.17-9.95,25.72-24.14,31.49-1,.42-2.07.73-3.1,1.15-.12,0-.24.12-.6.36,0,2.43.12,5,0,7.59a8.49,8.49,0,0,1-8.13,8.25,8.37,8.37,0,0,1-8.25-8.43c-.07-2.13,0-4.31,0-6.86-9-.36-16.75-3.52-23.91-8.31-3.34-2.19-4.85-5.28-3.88-9.16.85-3.46,3.27-6,6.91-6.13,2.13-.06,4.43.91,6.5,1.76,4.49,1.88,8.85,3.94,13.89,6.19.24-2.13.42-3.16.42-4.13.07-11.83-.06-23.6.13-35.43,0-2.61-.85-3.88-3.16-4.91a61,61,0,0,1-7.64-4c-10.74-6.25-15.41-15.65-14-27.91,1.4-12,7.59-20.87,18.87-25.24,4.61-1.82,6.37-3.64,6-8.61a7.92,7.92,0,0,1,8.13-8.44,8.44,8.44,0,0,1,8.13,8.19c.12,2.19,0,4.37,0,6.13,5.46,2.49,10.67,4.49,15.53,7.16,5.22,2.85,6.49,7.89,3.82,12.14s-7.34,4.91-12.25,2.12c-2.07-1.21-4.25-2.25-7-3.64,0,10.86-.06,20.81.06,30.82.06.79,1.27,1.88,2.24,2.31,2.67,1.33,5.64,2.12,8.25,3.57C173.74,127.91,179.93,138.65,178.47,152.91Z"/><path class="cls-1" d="M150.51,341.66c-1.34-.73-2.67-1.4-4.07-2A155.47,155.47,0,0,1,89.77,297a146.39,146.39,0,0,1-20.56-31.61c2.36-1,4.36-1.88,6.43-2.61,3.52-1.33,6.25-3.39,6.67-7.52s-1.64-6.67-4.85-8.8C60.53,235.24,43.66,224,26.74,212.79c-6.92-4.61-12.74-2-14.38,6.31-2.37,11.65-4.8,23.3-7.16,35-1.7,8.31-3.4,16.62-5,24.93-1.45,7.65,4.43,12.62,11.65,10,2.67-1,5.28-2.18,8.13-3.39,2.73,5,5,9.64,7.65,14.13,23.66,41.26,57.57,71,101.2,89.86,5.33,2.24,9.7.79,12-4.31,4.73-10.92,9.28-21.9,13.77-32.95C156.39,347.91,154.75,344,150.51,341.66Zm-18,20.69c-1.22,2.91-2.43,5.76-3.83,9.1-3.33-1.64-6.43-3-9.4-4.68Q61,335.29,33.53,275c-1.09-2.43-2.43-5.34-4.49-6.61-2.43-1.4-5.82-1.22-9.34-1.82,2.18-10.8,4.49-22.15,6.85-34q15.12,10.1,28.94,19.29c-2,2.61-4.73,4.74-5.33,7.4s.6,5.89,1.82,8.5c17.23,37.86,44.71,65.89,81.9,84.45.61.31,1.21.67,2.19,1.22C134.91,356.34,133.7,359.37,132.49,362.35Z"/><path class="cls-2" d="M136.07,353.37c-1.16,3-2.37,6-3.58,9s-2.43,5.76-3.83,9.1c-3.33-1.64-6.43-3-9.4-4.68Q61,335.29,33.53,275c-1.09-2.43-2.43-5.34-4.49-6.61-2.43-1.4-5.82-1.22-9.34-1.82,2.18-10.8,4.49-22.15,6.85-34q15.12,10.1,28.94,19.29c-2,2.61-4.73,4.74-5.33,7.4s.6,5.89,1.82,8.5c17.23,37.86,44.71,65.89,81.9,84.45C134.49,352.46,135.09,352.82,136.07,353.37Z"/><path class="cls-2" d="M259.09,273.54c-4.45,0-8.68.06-12.91,0-4.79-.09-8.11-3.36-8.2-7.91a8.13,8.13,0,0,1,7.77-8.44c2.18-.16,4.38,0,6.47,0-1.47-5.54-3.63-10.82-4.17-16.27-1.74-17.38,7.5-29.48,24.67-33.22,17.8-3.89,34.78,3.18,43.08,18a29.55,29.55,0,0,1,2.28,5.26,8.13,8.13,0,0,1-5,10.66,7.79,7.79,0,0,1-10.37-4.77c-4.24-11.22-16.3-16-28.23-12.54-8.36,2.43-11.61,8.1-9.64,16.64.24,1.07.51,2.13.84,3.16,4,12.63,4.56,13,17.44,13,2.06,0,4.12-.08,6.17,0a8,8,0,0,1,7.93,8.63c-.15,4.58-3.41,7.67-8.3,7.74-4.21.06-8.42,0-12.61,0-.05,10.07,1.56,13.29-7.91,30.33,1.45.08,2.74.22,4,.22,12.35,0,24.69,0,37,.05a17.25,17.25,0,0,1,5.64.83,7.88,7.88,0,0,1,5.14,8.83,7.75,7.75,0,0,1-7.56,6.84c-20.71.1-41.42.16-62.13,0-6.63-.05-10-7.27-6.18-12.91,3.39-5,7.26-9.63,10.67-14.6C259.67,286.36,260.4,282.44,259.09,273.54Z"/><path class="cls-2" d="M392.75,263.66a8,8,0,0,1-8.25,8.22,8.14,8.14,0,0,1-8.16-8,8.24,8.24,0,0,1,8.1-8.46A8.06,8.06,0,0,1,392.75,263.66Z"/><path class="cls-1" d="M161.24,120.93c-2.61-1.45-5.58-2.24-8.25-3.57-1-.43-2.18-1.52-2.24-2.31-.12-10-.06-20-.06-30.82,2.79,1.39,5,2.43,7,3.64,4.91,2.79,9.58,2,12.25-2.12s1.4-9.29-3.82-12.14c-4.86-2.67-10.07-4.67-15.53-7.16,0-1.76.12-3.94,0-6.13a8.44,8.44,0,0,0-8.13-8.19,7.92,7.92,0,0,0-8.13,8.44c.42,5-1.34,6.79-6,8.61C117.14,73.55,111,82.47,109.55,94.42c-1.45,12.26,3.22,21.66,14,27.91a61,61,0,0,0,7.64,4c2.31,1,3.16,2.3,3.16,4.91-.19,11.83-.06,23.6-.13,35.43,0,1-.18,2-.42,4.13-5-2.25-9.4-4.31-13.89-6.19-2.07-.85-4.37-1.82-6.5-1.76-3.64.18-6.06,2.67-6.91,6.13-1,3.88.54,7,3.88,9.16,7.16,4.79,14.93,7.95,23.91,8.31,0,2.55-.07,4.73,0,6.86a8.37,8.37,0,0,0,8.25,8.43,8.49,8.49,0,0,0,8.13-8.25c.12-2.55,0-5.16,0-7.59.36-.24.48-.36.6-.36,1-.42,2.07-.73,3.1-1.15,14.19-5.77,22.57-16.32,24.14-31.49C179.93,138.65,173.74,127.91,161.24,120.93Zm-27.42-12c-4.31-2.18-7.7-4.55-7.95-9.64-.24-6.25,2.13-11.11,7.95-14.69Zm16.93,58.37V135c6.55,1.46,10.86,6.79,11.4,14.14C162.7,156.25,157.6,164.56,150.75,167.35Z"/><path class="cls-2" d="M133.82,84.65V109c-4.31-2.18-7.7-4.55-7.95-9.64C125.63,93.09,128,88.23,133.82,84.65Z"/><path class="cls-2" d="M162.15,149.09c.55,7.16-4.55,15.47-11.4,18.26V135C157.3,136.41,161.61,141.74,162.15,149.09Z"/></g></g></svg>