<svg xmlns="http://www.w3.org/2000/svg" viewBox="0 0 404.46 403.7"><defs><style>.cls-1{fill:#4664ae;}.cls-2{fill:#fff;}.cls-2,.cls-3{opacity:0.9;}.cls-3{fill:#a5d7b6;}</style></defs><title>twopeople</title><g id="Layer_2" data-name="Layer 2"><g id="Layer_1-2" data-name="Layer 1"><path class="cls-1" d="M251.64,6.09C143.86-20.85,34.52,44,6.9,151.78,3.42,165.34,2.7,179.61.71,193.54c-.25,1.76-.48,3.53-.71,5.29v6.31c.87,8.64,1.42,17.33,2.66,25.92C9.21,276.32,29.07,314.9,61.74,346.8c30.58,29.86,67.11,48.87,109.37,54.6,76.58,10.39,140.27-14.47,189.57-74.23,22.84-27.7,36.15-60,41.52-95.47C417.67,129.53,352,31.17,251.64,6.09ZM148.4,261c-12.48-1-24.87-2.37-36.89-6.81-16.21-6-15.39-24.45-6.42-33.07,10.1-9.71,22.38-15.51,35.18-20.41,9.91-3.79,11.37-9.71,4.77-18.4-12.46-16.43-17.65-34.81-12.3-55.07,4-15,14.6-22.91,29.85-24.79A34.26,34.26,0,0,1,196.17,119c1.74,3,1.87,4.82-.93,7.57-14.05,13.77-18.12,31-16,50,1.8,16.23,8.43,30.54,18.29,43.43.43.58.78,1.23,1.35,2.12C178.89,231.06,158.93,239.76,148.4,261Zm157.68,14.7c-.27,6.69-2.6,12.24-8.41,14.83-8,3.55-16.41,6.84-25,8.29C260,300.92,247,301.34,240.35,302c-23.07-.45-39.89-.92-56.24-5.57a57.35,57.35,0,0,1-9.65-3.66c-13.07-6.45-16.66-21-6.85-31.82,5.63-6.2,13-11.09,20.19-15.51,6.21-3.8,13.2-6.44,20.1-8.93,4.43-1.61,6.76-4.54,7.47-8.69,1-5.7.57-11-3.62-16-11.14-13.31-17.38-28.63-16.87-46.32s11.55-32.47,27.78-36.95c17.51-4.84,35.31,1.31,43.93,15.55,8.11,13.4,7.65,27.77,3.68,42.26a70.2,70.2,0,0,1-14.89,27.49c-5.6,6.5-2.56,18.91,5.39,22.09,12.45,5,24.53,10.64,34.89,19.35C302,260.56,306.45,266.66,306.08,275.66Z"/><path class="cls-2" d="M198.87,222.15c-20,8.91-39.94,17.61-50.47,38.81-12.48-1-24.87-2.37-36.89-6.81-16.21-6-15.39-24.45-6.42-33.07,10.1-9.71,22.38-15.51,35.18-20.41,9.91-3.79,11.37-9.71,4.77-18.4-12.46-16.43-17.65-34.81-12.3-55.07,4-15,14.6-22.91,29.85-24.79A34.26,34.26,0,0,1,196.17,119c1.74,3,1.87,4.82-.93,7.57-14.05,13.77-18.12,31-16,50,1.8,16.23,8.43,30.54,18.29,43.43C198,220.61,198.3,221.26,198.87,222.15Z"/><path class="cls-3" d="M306.08,275.66c-.27,6.69-2.6,12.24-8.41,14.83-8,3.55-16.41,6.84-25,8.29C260,300.92,247,301.34,240.35,302c-23.07-.45-39.89-.92-56.24-5.57a57.35,57.35,0,0,1-9.65-3.66c-13.07-6.45-16.66-21-6.85-31.82,5.63-6.2,13-11.09,20.19-15.51,6.21-3.8,13.2-6.44,20.1-8.93,4.43-1.61,6.76-4.54,7.47-8.69,1-5.7.57-11-3.62-16-11.14-13.31-17.38-28.63-16.87-46.32s11.55-32.47,27.78-36.95c17.51-4.84,35.31,1.31,43.93,15.55,8.11,13.4,7.65,27.77,3.68,42.26a70.2,70.2,0,0,1-14.89,27.49c-5.6,6.5-2.56,18.91,5.39,22.09,12.45,5,24.53,10.64,34.89,19.35C302,260.56,306.45,266.66,306.08,275.66Z"/></g></g></svg>