<svg xmlns="http://www.w3.org/2000/svg" viewBox="0 0 116.37 873.83"><defs><style>.cls-1{fill:#4664ae;}.cls-2,.cls-4,.cls-5{fill:#a5d7b6;}.cls-2{opacity:0.9;}.cls-3{fill:#3352a3;}.cls-5{stroke:#3453a3;stroke-miterlimit:10;}</style></defs><title>arrows</title><g id="Layer_2" data-name="Layer 2"><g id="Layer_1-2" data-name="Layer 1"><path class="cls-1" d="M89.21,35.16c-3.48-5.49-8.31-7.41-14.59-4.57-3.15-5.59-7.73-7.34-14.17-5.37,0-5.19.15-10,0-14.73C60.14,3.87,56.15-.13,50.31,0s-9.5,4.45-9.51,11V62.27c0,1.33-.13,2.68-.21,4.37-2.7-1.31-4.9-2.36-7.11-3.45s-4.6-2.46-7-3.45c-5.38-2.23-10.63-1-13.38,2.91s-1.94,9,2.33,13.32C22.6,83.19,30,90.22,37,97.58c8.41,8.83,17.07,17.14,29.58,19.75H78.28c5-2.54,10.47-4.44,14.88-7.75,6.89-5.18,10.35-12.7,11.12-21.36a25.61,25.61,0,0,1,.6-3V43.79C101.67,34.82,98.66,33.13,89.21,35.16ZM98.77,89.8C95.28,111,71.45,118.91,53.43,105.89c-3.86-2.8-7.13-6.47-10.54-9.86C35,88.24,27.21,80.38,19.37,72.55c-1.88-1.88-3.94-3.77-2.07-6.71s4.8-2.29,7.31-1.16c5.09,2.3,10,4.91,15.07,7.38s6.44,1.46,6.46-4.17c0-9.5,0-19,0-28.53s.08-18.77,0-28.15c0-3.3.77-5.76,4.41-6.11,2.85-.27,4.9,2.34,4.92,6.28.06,13.55,0,27.1,0,40.65,0,.79,0,1.57,0,2.34.05,1.92-.4,4.35,2.56,4.28s2.54-2.53,2.57-4.41c.07-6.12.06-12.24,0-18.37,0-3.14.56-5.83,4.37-6.16,3.12-.27,5,1.75,5.08,6,.16,6.25,0,12.51.07,18.76,0,1.93-.26,4.5,2.61,4.07,1-.15,2.32-2.53,2.41-4,.3-4.8.16-9.63.1-14.45,0-3.2,1.22-5.47,4.6-5.53s4.71,2.22,4.71,5.4c0,4.69,0,9.38,0,14.07,0,2.09-.21,4.7,2.79,4.59,2.85-.1,2.68-2.68,2.7-4.77,0-3.13.08-6.26,0-9.38s1.56-5.13,4.56-5.13,4.64,2.07,4.65,5.16c0,8.86.07,17.73,0,26.58C99.26,77.33,99.78,83.7,98.77,89.8Z"/><path class="cls-2" d="M98.77,89.8C95.28,111,71.45,118.91,53.43,105.89c-3.86-2.8-7.13-6.47-10.54-9.86C35,88.24,27.21,80.38,19.37,72.55c-1.88-1.88-3.94-3.77-2.07-6.71s4.8-2.29,7.31-1.16c5.09,2.3,10,4.91,15.07,7.38s6.44,1.46,6.46-4.17c0-9.5,0-19,0-28.53s.08-18.77,0-28.15c0-3.3.77-5.76,4.41-6.11,2.85-.27,4.9,2.34,4.92,6.28.06,13.55,0,27.1,0,40.65,0,.79,0,1.57,0,2.34.05,1.92-.4,4.35,2.56,4.28s2.54-2.53,2.57-4.41c.07-6.12.06-12.24,0-18.37,0-3.14.56-5.83,4.37-6.16,3.12-.27,5,1.75,5.08,6,.16,6.25,0,12.51.07,18.76,0,1.93-.26,4.5,2.61,4.07,1-.15,2.32-2.53,2.41-4,.3-4.8.16-9.63.1-14.45,0-3.2,1.22-5.47,4.6-5.53s4.71,2.22,4.71,5.4c0,4.69,0,9.38,0,14.07,0,2.09-.21,4.7,2.79,4.59,2.85-.1,2.68-2.68,2.7-4.77,0-3.13.08-6.26,0-9.38s1.56-5.13,4.56-5.13,4.64,2.07,4.65,5.16c0,8.86.07,17.73,0,26.58C99.26,77.33,99.78,83.7,98.77,89.8Z"/><path class="cls-3" d="M58.13,201.79a53.38,53.38,0,1,0,53.44,53.38C111.72,225.84,87.62,201.79,58.13,201.79Zm0,100a46.69,46.69,0,1,1,46.72-46.72A46.67,46.67,0,0,1,58.13,301.84Z"/><path class="cls-4" d="M58.19,208.46a46.69,46.69,0,1,0,46.66,46.66A46.73,46.73,0,0,0,58.19,208.46Zm25,52.15a6.15,6.15,0,0,1-1.08,1.23q-10.45,10.46-20.92,21c-2.15,2.11-3.85,2.11-5.9,0L35.57,263.12c-.61-.61-1.18-1.23-1.79-1.84a3.19,3.19,0,0,1-.16-4.57,3,3,0,0,1,4.41-.46c1.23,1,2.36,2.26,3.54,3.39,4.31,4.35,8.62,8.71,13,13,.11-.05.21-.05.31-.1V229.69c0-2.36,1.39-3.75,3.49-3.69a3.19,3.19,0,0,1,3.13,3,12.82,12.82,0,0,1,.05,1.39v42.4c.46-.41.77-.66,1.08-1,4.82-4.82,9.64-9.64,14.46-14.41,1-1,2-2.1,3.74-1.79A3.26,3.26,0,0,1,83.16,260.61Z"/><path class="cls-3" d="M83.16,260.61a6.15,6.15,0,0,1-1.08,1.23q-10.45,10.46-20.92,21c-2.15,2.11-3.85,2.11-5.9,0L35.57,263.12c-.61-.61-1.18-1.23-1.79-1.84a3.19,3.19,0,0,1-.16-4.57,3,3,0,0,1,4.41-.46c1.23,1,2.36,2.26,3.54,3.39,4.31,4.35,8.62,8.71,13,13,.11-.05.21-.05.31-.1V229.69c0-2.36,1.39-3.75,3.49-3.69a3.19,3.19,0,0,1,3.13,3,12.82,12.82,0,0,1,.05,1.39v42.4c.46-.41.77-.66,1.08-1,4.82-4.82,9.64-9.64,14.46-14.41,1-1,2-2.1,3.74-1.79A3.26,3.26,0,0,1,83.16,260.61Z"/><path class="cls-3" d="M58.13,578.82a53.39,53.39,0,1,0,53.44,53.38C111.72,602.87,87.62,578.82,58.13,578.82Zm0,100a46.69,46.69,0,1,1,46.72-46.72A46.67,46.67,0,0,1,58.13,678.87Z"/><path class="cls-4" d="M58.19,585.49a46.69,46.69,0,1,0,46.66,46.66A46.73,46.73,0,0,0,58.19,585.49Zm25,52.15a6.15,6.15,0,0,1-1.08,1.23q-10.45,10.46-20.92,21c-2.15,2.11-3.85,2.11-5.9,0L35.57,640.15c-.61-.61-1.18-1.23-1.79-1.84a3.19,3.19,0,0,1-.16-4.57,3,3,0,0,1,4.41-.46c1.23,1,2.36,2.26,3.54,3.39,4.31,4.35,8.62,8.71,13,13,.11-.05.21-.05.31-.1V606.72c0-2.36,1.39-3.74,3.49-3.69a3.19,3.19,0,0,1,3.13,3,12.92,12.92,0,0,1,.05,1.39v42.41c.46-.42.77-.67,1.08-1,4.82-4.82,9.64-9.64,14.46-14.41,1-1,2-2.1,3.74-1.79A3.26,3.26,0,0,1,83.16,637.64Z"/><path class="cls-3" d="M83.16,637.64a6.15,6.15,0,0,1-1.08,1.23q-10.45,10.46-20.92,21c-2.15,2.11-3.85,2.11-5.9,0L35.57,640.15c-.61-.61-1.18-1.23-1.79-1.84a3.19,3.19,0,0,1-.16-4.57,3,3,0,0,1,4.41-.46c1.23,1,2.36,2.26,3.54,3.39,4.31,4.35,8.62,8.71,13,13,.11-.05.21-.05.31-.1V606.72c0-2.36,1.39-3.74,3.49-3.69a3.19,3.19,0,0,1,3.13,3,12.92,12.92,0,0,1,.05,1.39v42.41c.46-.42.77-.67,1.08-1,4.82-4.82,9.64-9.64,14.46-14.41,1-1,2-2.1,3.74-1.79A3.26,3.26,0,0,1,83.16,637.64Z"/><path class="cls-5" d="M111.36,762.69h1.81a4.78,4.78,0,0,1,2.7,2.7v2a6.84,6.84,0,0,0-.23.86q-1.4,9.39-2.78,18.79-1.65,11-3.3,22t-3.25,22q-1.53,10.33-3.08,20.67c-.19,1.3-.36,2.6-.61,3.89a3.59,3.59,0,0,1-5,2.88L54,843.69l-6.54-2.25,48.37-58.3a2.39,2.39,0,0,0-1.16.63L78.25,797.82Q56.13,816.73,34,835.67a1.92,1.92,0,0,1-2.19.46q-13.95-4.85-27.93-9.58a5,5,0,0,1-3.4-2.79v-2a5.92,5.92,0,0,1,2.77-2.62q20.55-10.7,41.05-21.43Z"/><path class="cls-5" d="M45.34,873.33c-2.17-.88-2.86-2.52-2.83-4.8.09-6.57,0-13.14,0-19.71v-1.49l19.59,6.72-5.58,7.62c-2.2,3-4.42,6-6.59,9a6.59,6.59,0,0,1-3,2.68Z"/></g></g></svg>