<svg xmlns="http://www.w3.org/2000/svg" xmlns:xlink="http://www.w3.org/1999/xlink" viewBox="0 0 780.87 524.54"><defs><style>.cls-1{fill:#36363e;}.cls-2{font-size:29.02px;}.cls-2,.cls-24,.cls-35{fill:#fff;}.cls-14,.cls-2,.cls-24,.cls-25,.cls-31,.cls-35{font-family:AvertaDemoPE-Regular, Averta Demo PE;}.cls-3{letter-spacing:-0.01em;}.cls-4{letter-spacing:-0.02em;}.cls-5{letter-spacing:-0.04em;}.cls-6{letter-spacing:-0.01em;}.cls-7{letter-spacing:-0.02em;}.cls-8{font-size:18.13px;fill:gray;}.cls-9{letter-spacing:0em;}.cls-10{letter-spacing:-0.01em;}.cls-11{letter-spacing:-0.02em;}.cls-12{letter-spacing:-0.01em;}.cls-13{letter-spacing:-0.03em;}.cls-14{font-size:14.06px;}.cls-14,.cls-31,.cls-41{fill:#a4d6b7;}.cls-15{letter-spacing:-0.01em;}.cls-16{letter-spacing:-0.02em;}.cls-17{letter-spacing:0em;}.cls-18{letter-spacing:-0.02em;}.cls-19{letter-spacing:-0.02em;}.cls-20{font-size:16.94px;fill:#3953a4;}.cls-20,.cls-26{font-family:Helvetica;}.cls-21,.cls-22,.cls-23,.cls-45{fill:none;}.cls-21{stroke:#3953a4;}.cls-21,.cls-22,.cls-23{stroke-miterlimit:10;}.cls-21,.cls-23{stroke-width:2px;}.cls-22{stroke:#dededd;opacity:0.5;}.cls-22,.cls-45{stroke-width:4px;}.cls-23{stroke:#151514;opacity:0.2;}.cls-24{font-size:29.21px;}.cls-25,.cls-31,.cls-35{font-size:21.64px;}.cls-25,.cls-26{fill:#6e717c;}.cls-26{font-size:20.16px;}.cls-27{letter-spacing:-0.02em;}.cls-28{letter-spacing:0em;}.cls-29{letter-spacing:-0.01em;}.cls-30{letter-spacing:-0.03em;}.cls-32{letter-spacing:-0.02em;}.cls-33{letter-spacing:0em;}.cls-34{letter-spacing:-0.01em;}.cls-36{letter-spacing:-0.01em;}.cls-37{letter-spacing:-0.01em;}.cls-38{letter-spacing:-0.01em;}.cls-39{letter-spacing:-0.06em;}.cls-40{letter-spacing:-0.01em;}.cls-42{letter-spacing:-0.03em;}.cls-43{letter-spacing:-0.02em;}.cls-44{letter-spacing:-0.01em;}.cls-45{stroke:#a4d6b7;stroke-linecap:round;stroke-linejoin:round;}</style></defs><title>Asset 7</title><g id="Layer_2" data-name="Layer 2"><g id="Layer_1-2" data-name="Layer 1"><rect class="cls-1" width="780.87" height="524.54" rx="33.79"/><text class="cls-2" transform="translate(43.41 50.55)"><tspan class="cls-3">R</tspan><tspan x="18.37" y="0">eal </tspan><tspan class="cls-4" x="66.91" y="0">e</tspan><tspan class="cls-5" x="82.32" y="0">x</tspan><tspan x="95.98" y="0">change </tspan><tspan class="cls-6" x="203.51" y="0">r</tspan><tspan x="213.32" y="0">a</tspan><tspan class="cls-7" x="230.84" y="0">t</tspan><tspan x="240.65" y="0">e</tspan><tspan class="cls-8"><tspan x="0" y="24.18">As </tspan><tspan class="cls-9" x="25.12" y="24.18">o</tspan><tspan x="35.83" y="24.18">f 1 min ag</tspan><tspan class="cls-10" x="116.17" y="24.18">o</tspan><tspan x="126.65" y="24.18">, 1 GBP = </tspan><tspan class="cls-11" x="203.83" y="24.18">4</tspan><tspan x="213.75" y="24.18">1</tspan><tspan class="cls-12" x="220.49" y="24.18">6</tspan><tspan class="cls-13" x="230.87" y="24.18">.</tspan><tspan x="234.64" y="24.18">912 NGN</tspan></tspan></text><text class="cls-14" transform="translate(599.62 59.96)"><tspan class="cls-15">M</tspan><tspan x="12.17" y="0">id mar</tspan><tspan class="cls-16" x="53.96" y="0">k</tspan><tspan class="cls-17" x="60.89" y="0">et </tspan><tspan class="cls-18" x="77.55" y="0">r</tspan><tspan x="82.3" y="0">a</tspan><tspan class="cls-19" x="90.79" y="0">t</tspan><tspan x="95.54" y="0">e</tspan></text><text class="cls-20" transform="translate(712.67 60.97)">?</text><circle class="cls-21" cx="717.38" cy="54.74" r="10.22"/><line class="cls-22" x1="34.51" y1="94.14" x2="735.28" y2="94.14"/><line class="cls-23" x1="34.51" y1="213.36" x2="735.28" y2="213.36"/><line class="cls-23" x1="34.51" y1="340.57" x2="735.28" y2="340.57"/><line class="cls-23" x1="34.51" y1="469.07" x2="735.28" y2="469.07"/><text class="cls-24" transform="translate(151.87 145.62)">UK</text><text class="cls-25" transform="translate(153.76 180.98)">GBP</text><text class="cls-26" transform="translate(62.1 159.78)">1</text><text class="cls-24" transform="translate(612.05 145.62)"><tspan class="cls-27">4</tspan><tspan class="cls-28" x="15.98" y="0">1</tspan><tspan class="cls-29" x="26.84" y="0">6</tspan><tspan class="cls-30" x="43.55" y="0">.</tspan><tspan x="49.63" y="0">912</tspan></text><text class="cls-31" transform="translate(646.55 180.98)">1<tspan class="cls-32" x="8.05" y="0">.</tspan><tspan class="cls-33" x="12.75" y="0">0</tspan><tspan class="cls-34" x="26.25" y="0">8</tspan><tspan x="38.32" y="0">%</tspan></text><text class="cls-24" transform="translate(151.87 269.54)">CHINA</text><text class="cls-35" transform="translate(153.76 304.91)">CNY</text><text class="cls-26" transform="translate(62.1 286.22)">2</text><text class="cls-24" transform="translate(610.64 272.06)"><tspan class="cls-36">6</tspan><tspan x="16.5" y="0">71</tspan><tspan class="cls-37" x="41.68" y="0">6</tspan><tspan class="cls-38" x="58.39" y="0">.</tspan><tspan class="cls-39" x="64.96" y="0">7</tspan><tspan x="77.41" y="0">4</tspan></text><text class="cls-24" transform="translate(151.87 398.37)">U<tspan class="cls-40" x="20.62" y="0">S</tspan><tspan x="37.21" y="0">A</tspan></text><text class="cls-35" transform="translate(153.76 433.74)">USD</text><text class="cls-26" transform="translate(62.1 412.53)">3</text><text class="cls-24" transform="translate(610.64 398.37)"><tspan class="cls-36">6</tspan><tspan x="16.5" y="0">71</tspan><tspan class="cls-37" x="41.68" y="0">6</tspan><tspan class="cls-38" x="58.39" y="0">.</tspan><tspan class="cls-39" x="64.96" y="0">7</tspan><tspan x="77.41" y="0">4</tspan></text><polygon class="cls-41" points="630.21 180.26 643.12 180.26 636.67 167.75 630.21 180.26"/><text class="cls-31" transform="translate(642.7 307.16)"><tspan class="cls-32">0</tspan><tspan class="cls-42" x="13.09" y="0">.</tspan><tspan x="17.59" y="0">9</tspan><tspan class="cls-34" x="30.1" y="0">8</tspan><tspan x="42.17" y="0">%</tspan></text><polygon class="cls-41" points="630.21 306.44 643.12 306.44 636.67 293.93 630.21 306.44"/><text class="cls-31" transform="translate(648.35 432.21)">1<tspan class="cls-43" x="8.05" y="0">.</tspan><tspan class="cls-44" x="12.79" y="0">45</tspan><tspan x="36.53" y="0">%</tspan></text><polygon class="cls-41" points="630.21 431.49 643.12 431.49 636.67 418.98 630.21 431.49"/><path class="cls-45" d="M354.74,170.56s4.34-1.55,5-2.79,2.17-8.06,3.72-8.06,5.58,4,7.12,3.72,4.34-7.75,6.51-8.06,6.51.31,8.68-1.86,3.41-13.2,6.51-12.79,5.57,2.07,7.74,0,3.72-6.73,4.34-4.25S404,149.8,408,149.8s4.65-3.41,7.13-7.13,4.65-5.27,4.65-8.68,4.33-14.87,5.88-14.87,1.55,3.72,3.41,3.72,4.34-4.34,5-1.24,1.55,11.77,3.1,11.15,4.34-7.74,4.34-7.74"/><path class="cls-45" d="M354.74,300.8s2.57,2.37,4,2.37,2.66-13.88,4.73-12.41,4.72,4.43,8.56,4.14,6.8-4.95,9.16-4.25,6.5-1.95,6.5-5.5-1.77-6.5,2.95-6.5,5.14,1.19,7.44,0,1.72-3.25,4.37-2.95,4.73,7.09,8,5.32,6.5-3.55,8.56-10,5.62-22.15,7.09-20.67.3,7.68,3.84,4.73,4.14-2.37,4.73,1.77,3.84,7.38,4.72,6.5"/><path class="cls-45" d="M356.32,441.66s2.81-43.66,3.28-39.44.94,17.84,3.76,14.09,2.56-18.78,5.51-17.84,5.15,0,4.75,8.45,4.76,31.92,4.76,28.17,3.29-33.81,3.29-33.81,3.75,4.23,3.75,6.11.94,10.32,3.29,9.39,7.51-12.68,7.51-12.68L400,434.62s.47-42.73,3.75-42.73,4.7,6.11,4.7,6.11l6.1,34.74,5.17-40.85L422,404.57l5.64-12.68s0,5.64,1.87,5.64,7.52,13.14,7.52,13.14l4.22-10.79"/><image width="512" height="512" transform="translate(88.11 258.74) scale(0.09)" xlink:href="C:%5CUsers%5CPaelyt%20Solution%5CDownloads%5Ccanta_web2%5C14.png"/><image width="512" height="512" transform="translate(90.15 382.31) scale(0.09)" xlink:href="C:%5CUsers%5CPaelyt%20Solution%5CDownloads%5Ccanta_web2%5C15.png"/><image width="512" height="512" transform="translate(88.79 131.08) scale(0.09)" xlink:href="C:%5CUsers%5CPaelyt%20Solution%5CDownloads%5Ccanta_web2%5C13.png"/></g></g></svg>