<svg xmlns="http://www.w3.org/2000/svg" viewBox="0 0 911.14 456.97"><defs><style>.cls-1{fill:#f8f5fa;}.cls-2{opacity:0.2;}.cls-3{fill:#e1dce6;}</style></defs><title>currencytable</title><g id="Layer_2" data-name="Layer 2"><g id="Layer_1-2" data-name="Layer 1"><rect class="cls-1" width="911.14" height="456.97"/><g class="cls-2"><path class="cls-3" d="M57,111.67a30.82,30.82,0,0,1-4.22-.06c-.68-.1-1.75-.71-1.82-1.22-.18-1.2.92-1.34,1.88-1.35h4v-4.18a28.75,28.75,0,0,1-4.15-.06c-.67-.09-1.25-.81-1.87-1.24.63-.43,1.21-1.14,1.88-1.24a27.92,27.92,0,0,1,4.1-.06c.15-1.66.28-3.17.44-4.69A2.61,2.61,0,0,1,59.71,95c6.64-.52,13.32-.87,19.89.46,3,.61,5.17,2.81,6.45,5.65a1.75,1.75,0,0,0,1.93,1.2,31.77,31.77,0,0,1,4.78,0c.62.07,1.17.78,1.75,1.19-.61.45-1.18,1.23-1.82,1.29-1.79.18-3.62.06-5.51.06V109h5.28c1,0,2,.07,2,1.29s-1,1.34-2,1.35c-1.65,0-3.31-.06-5,0a1.93,1.93,0,0,0-1.44.77c-2.12,4.32-5.88,6-10.35,6.41-3.17.27-6.37.21-9.55.29-.61,0-1.22,0-2,0,0,2,0,3.82,0,5.62,0,2.74,0,5.47-.13,8.2a3.47,3.47,0,0,1-3.33,3.29,3.4,3.4,0,0,1-3.52-3,15.52,15.52,0,0,1-.26-2.54c0-5.7,0-11.39,0-17.09ZM80.31,105h-16v4h16Zm-16-2.85H78.56c-4.37-3.22-9.35-2.1-14.25-2.38Zm.07,9.59c-.31,2.29-.31,2.32,1.73,2.29,2.39,0,4.77-.08,7.15-.24a7.69,7.69,0,0,0,5.22-2Z"/><path class="cls-3" d="M428.82,183.2c0,2.32,0,4.46,0,6.61,0,.91-.06,1.81-.15,2.72-.11,1.21-.28,2.48-1.69,2.85a3.76,3.76,0,0,1-4.2-1.14,34.17,34.17,0,0,1-4.14-6c-1.94-4.17-4.87-5.88-9.4-5a23.76,23.76,0,0,1-4.07,0c0,2.68,0,5.17,0,7.66a7.25,7.25,0,0,1-.3,2.86,3.72,3.72,0,0,1-2,1.71A1.83,1.83,0,0,1,400.5,194a8.38,8.38,0,0,1-.34-2.34c0-2.73,0-5.47,0-8.48a30.2,30.2,0,0,1-3.57,0c-1.41-.18-3.81.91-3.82-1.51,0-2.58,2.47-1.37,3.91-1.59a23.18,23.18,0,0,1,3.35,0v-5.78c-1.73,0-3.42,0-5.11,0-1.16,0-2.17-.29-2.23-1.56-.07-1.44,1.08-1.71,2.24-1.72,1.65,0,3.3,0,5.23,0,0-1.82,0-3.55,0-5.29a23.3,23.3,0,0,1,.09-2.9,3.07,3.07,0,0,1,2.35-2.83,3.13,3.13,0,0,1,3.6,1.29c1.8,2.69,3.68,5.34,5.35,8.11a3.1,3.1,0,0,0,3.17,1.65c3-.11,6,0,9.26,0,0-2.21,0-4.24,0-6.28,0-.85,0-1.7.09-2.55.11-1.26.62-2.18,2-2.28a2.05,2.05,0,0,1,2.48,2c.17,2.21.17,4.43.24,6.64,0,.74,0,1.47,0,2.49,1.49,0,2.89,0,4.28,0a4.08,4.08,0,0,1,1.84.15c.59.35,1.43,1.25,1.3,1.59a2.54,2.54,0,0,1-1.7,1.47,54.19,54.19,0,0,1-5.58.06v5.79c1.77,0,3.52,0,5.27,0,1.16,0,2.12.3,2.09,1.64s-.94,1.54-2,1.52C432.53,183.19,430.77,183.2,428.82,183.2Zm-13.93-8.88c1.24,1.88,2.27,3.5,3.37,5.08a1.62,1.62,0,0,0,1.07.62c1.47.07,2.93,0,4.51,0v-5.73ZM413.14,180c-.85-1.32-1.51-2.36-2.19-3.4-1.64-2.53-2.61-2.88-5.66-2V180Zm7.65,3.3,3,4.52v-4.52Z"/><path class="cls-3" d="M66.58,45.66H80c.74,0,1.48,0,2.22,0a2.39,2.39,0,0,1,.16,4.77,32.33,32.33,0,0,1-3.41.05H65.37V55.6c.62,0,1.22.08,1.83.08H80.7c.34,0,.68,0,1,0,1.77.1,2.91,1.11,2.87,2.53s-1.12,2.33-2.83,2.34c-4.33,0-8.66,0-13,0H66.91c.75,4.29,5.93,8.84,10.51,9.47A12.21,12.21,0,0,0,87.64,66.9c.25-.23.51-.45.78-.67C90,65,91.17,65,92.19,66.12s.82,2.43-.49,3.76a17.24,17.24,0,0,1-23.9.75,19.75,19.75,0,0,1-5.72-8.36,2.17,2.17,0,0,0-2.61-1.71,33.8,33.8,0,0,1-4.27,0c-1.73-.08-2.72-1-2.69-2.44s1.08-2.36,2.77-2.42,3.28,0,5,0V50.52c-1.53,0-3.1,0-4.67,0-1.93,0-3.08-.94-3.1-2.42s1.07-2.39,3.05-2.43a31.44,31.44,0,0,1,3.76,0c1.6.18,2.36-.43,3-1.95a19.52,19.52,0,0,1,10.14-10.8,17.23,17.23,0,0,1,19.44,3.88c1.17,1.27,1.27,2.59.28,3.64s-2.24,1.12-3.63-.1c-2.12-1.87-4.38-3.44-7.26-3.85-5.5-.79-9.58,1.55-12.73,5.86C67.87,43.27,67.38,44.3,66.58,45.66Z"/><path class="cls-3" d="M337,186.72c-1.9,0-3.55,0-5.2,0-1.33,0-2.4-.46-2.42-2s1.06-2.06,2.36-2.11c1.81-.06,3.62,0,5.61,0-.15-1.06-.26-1.88-.4-2.87-1.72,0-3.36,0-5,0s-2.79-.89-2.78-2.15,1-2.05,2.8-2.08c1.17,0,2.34,0,3.61,0-.39-1.94-.79-3.64-1.05-5.37-1.62-11,7.39-15.29,15.29-14.06,6.08.95,9.17,4.1,10.2,10.21a2.7,2.7,0,0,1-2.13,3.33,2.58,2.58,0,0,1-3.17-2.1c-.21-.82-.25-1.69-.46-2.51-.9-3.67-4.07-5.47-8.38-4.78a7,7,0,0,0-6,7.49c.21,2.2.77,4.35,1.13,6.54.16,1,.67,1.28,1.64,1.26,2.33-.05,4.67,0,7,0,1.86,0,2.71.72,2.71,2.12s-.94,2.1-2.73,2.12c-2.33,0-4.66,0-7.1,0l.32,2.86h3.34c1.2,0,2.4,0,3.59,0,1.73.05,2.87.9,2.74,2.15-.15,1.56-1.24,2-2.66,2-2.05,0-4.1,0-6.15,0a1.86,1.86,0,0,0-2,1.16,53,53,0,0,1-3.06,4.69,30.76,30.76,0,0,1,3.95,0c3,.4,5.95.91,8.91,1.45a14.2,14.2,0,0,0,8.47-1.11c2.23-1,4.26.32,3.87,2.49a3.37,3.37,0,0,1-1.65,2.1c-3.9,1.84-8,2.56-12.23,1.23a64.54,64.54,0,0,0-6.46-1.54c-4-.78-7.62.46-11.27,1.84a3.88,3.88,0,0,1-2.55.15,2.14,2.14,0,0,1-.44-3.83,11,11,0,0,1,1.8-1A10.15,10.15,0,0,0,337,186.72Z"/><path class="cls-3" d="M281.12,160.29l2.48.7a22.21,22.21,0,0,1,1-3.48c.24-.52,1-.78,1.56-1.15.3.62,1,1.42.84,1.85-1.11,2.72-.61,4.72,1.64,6.78,1.2,1.1,1.73,3.13,2.15,4.84a2.47,2.47,0,0,1-1.76,3.1c-1.53.46-2.48-.32-3.16-1.62-.41-.8-.88-1.56-1.52-2.67-1.83,6.94-3.57,13.54-5.37,20.33a5.75,5.75,0,0,0,5.25-2.78,24.16,24.16,0,0,0,1.67-3.52c.76-1.79,1.63-2.38,3-2a3,3,0,0,1,2,3.49,11.85,11.85,0,0,1-10.9,10.25c-.78.05-1.58,0-2.48,0a21,21,0,0,1-1,3.66c-.29.61-1.17.94-1.78,1.4a5.41,5.41,0,0,1-.74-2,17.74,17.74,0,0,1,.8-3.26l-2.38-.95c-.41,1.42-.8,2.7-1.13,4-.25,1-.57,2-1.81,1.75s-1.12-1.36-.76-2.34c0-.11,0-.23.08-.34a7,7,0,0,0-1.09-7.49c-4.78-6.22-4.39-17,.2-23.29a12.21,12.21,0,0,1,9-5.21c1.16-.11,1.61-.56,1.78-1.58a4,4,0,0,1,.44-1.63,7.47,7.47,0,0,1,1.57-1.24c.34.62.91,1.23.95,1.87A8.64,8.64,0,0,1,281.12,160.29Zm-4.78,28.42q2.94-11.18,5.84-22.17c-2.15-1.32-2.4-1.24-3,.9-1.62,6.14-3.16,12.3-4.88,18.41C273.82,187.66,274.45,188.37,276.34,188.71Zm-4.27-4.55,4.8-18.25C271.47,167.37,269.2,175.86,272.07,184.16Z"/><path class="cls-3" d="M141.74,180.39h11.37c2.46,0,3.57.7,3.52,2.2s-1.11,2.16-3.63,2.16c-4.9,0-9.8.05-14.69,0a2,2,0,0,0-2.24,1.55c-1.63,4.5,1.17,8.84,5.93,8.81a36.6,36.6,0,0,0,6.33-1.08c.6-.12,1.3-.68,1.75-.5a4.4,4.4,0,0,1,2.23,1.64,2.25,2.25,0,0,1-.74,2.07c-4.45,2.21-9.11,3.36-13.95,1.38s-7.19-7-6-12.23c.1-.44.19-.88.36-1.61-1.34,0-2.56,0-3.78,0-1.79-.07-2.75-.84-2.78-2.16s1-2.16,2.85-2.19h1.88c4.59,0,4.59,0,8.27-3.53a13.33,13.33,0,0,0-1.34-.14c-3,0-5.92,0-8.89,0-1.74,0-2.73-.78-2.76-2.09s.93-2.19,2.69-2.21c4.55-.05,9.11,0,13.66,0,3,0,4.89-1.58,5.67-4.68a5.8,5.8,0,0,0-3.09-6.58c-2.89-1.41-5.84-1.11-8.76,0-.79.3-1.62.89-2.38.81A3.18,3.18,0,0,1,131,160.6a2.45,2.45,0,0,1,.62-2.31c4.18-2.55,10.83-3.7,15.54-.62s6.09,8.31,3.6,13.43c-.16.34-.3.69-.56,1.28,1.37,0,2.56,0,3.73,0,1.77.07,2.73.88,2.72,2.19s-1,2.1-2.74,2.13a29.07,29.07,0,0,1-4.94,0C145.62,176.13,143.9,178.56,141.74,180.39Z"/><path class="cls-3" d="M198.78,51c-.39-2.15-.8-4-1.07-5.92-1-7.17,3.25-12.1,9.1-13.27,5.09-1,9.89-.54,13.71,3.51a11.17,11.17,0,0,1,2.79,7,2.47,2.47,0,0,1-2.21,2.79A2.55,2.55,0,0,1,218,43.35a8.73,8.73,0,0,1-.39-1.84c-.63-4.1-3.57-6.36-7.71-5.9s-7.17,3.65-6.79,7.65c.21,2.19.77,4.35,1.13,6.53.16,1,.62,1.31,1.61,1.28,2.39-.06,4.78,0,7.17,0,1.43,0,2.5.44,2.56,2.07,0,1.31-.87,2.11-2.53,2.14-2.38,0-4.77,0-7.33,0,.85,5-.2,9.33-4.48,13.06,5.81-.77,10.78,1.18,15.93,1.52,1.74.12,3.53-.66,5.3-1.06.49-.11.94-.4,1.43-.52a2.56,2.56,0,0,1,1.71,4.82c-3.94,1.72-8,2.62-12.24,1.27-1-.31-2-.44-3-.77-5.12-1.71-10.05-1.09-14.92,1a3.63,3.63,0,0,1-2.55.13,2.15,2.15,0,0,1-.41-3.84,5.46,5.46,0,0,1,1.18-.67c5.6-2.3,8-7.78,6.3-15-1.66,0-3.36,0-5.06,0-1.9-.07-3.07-1.44-2.32-2.81a3.29,3.29,0,0,1,2.09-1.36A24.44,24.44,0,0,1,198.78,51Z"/><path class="cls-3" d="M144.34,52.42c3.32,1.79,4.32,5.08,5.25,8.46,1,3.6,2.24,7.13,3.16,10.75a3.76,3.76,0,0,1-.82,2.84,2,2,0,0,1-3.06.09,8.19,8.19,0,0,1-2-3.06c-1.14-3.56-2.09-7.18-3-10.8-1.26-4.77-3.31-6.4-8.24-6.41-1.77,0-3.53,0-5.3,0-1.42,0-2.46-.54-2.56-2.12-.09-1.38.88-2.22,2.58-2.29,3.13-.12,6.27-.06,9.37-.38a6.15,6.15,0,0,0,5.22-4.13H137c-2.9,0-5.81,0-8.71,0-1.66,0-2.66-1-2.66-2.27s.89-2.19,2.66-2.21c4.89,0,9.79,0,14.69,0h2a4.62,4.62,0,0,0-3-3.91,15.91,15.91,0,0,0-4.76-1.08c-2.67-.18-5.35,0-8,0a9.42,9.42,0,0,1-1.19,0c-1.31-.16-2.32-.69-2.39-2.18-.06-1.29.93-2.17,2.5-2.2,2.1,0,4.21,0,6.32,0h19.31c1.43,0,2.46.56,2.6,2.1.12,1.32-.92,2.23-2.6,2.29-1.47.06-2.94,0-4.46,0,.62,1.71,1.2,3.29,1.85,5.09,1,0,2,0,3.1,0a2,2,0,0,1,2.11,2c.09,1.28-.73,2.39-1.82,2.24-3.31-.46-4.67,1.5-6.18,3.88C147.53,50.4,145.83,51.22,144.34,52.42Z"/><path class="cls-3" d="M278,47.52c1.43-2,2.79-3.87,4.13-5.77,2.07-2.92,4.09-5.88,6.2-8.77,1.34-1.84,3.25-2,4.42-.44,1,1.33.48,2.57-.36,3.75-2.69,3.8-5.4,7.6-8.09,11.41-.34.49-.64,1-1.11,1.77,2.76,0,5.25,0,7.73,0,1.24,0,2.65-.07,2.68,1.59s-1.49,1.69-2.76,1.7h-10v4.73h9.37a4,4,0,0,1,1.84.12,7.44,7.44,0,0,1,1.57,1.68c-.58.51-1.14,1.42-1.75,1.45-3,.15-5.92.07-8.88.08h-2.26c0,3.23,0,6.34,0,9.45a16.69,16.69,0,0,1-.12,2.55,2.44,2.44,0,0,1-2.54,2.29,2.38,2.38,0,0,1-2.51-2.3c-.15-1.58-.12-3.18-.13-4.77,0-2.33,0-4.66,0-7.22H267.2a15.39,15.39,0,0,1-3.4-.07,2.76,2.76,0,0,1-1.86-1.48c-.27-1.13.69-1.71,1.78-1.75,1.6-.06,3.19,0,4.79,0h6.8V52.75c-3.46,0-6.87,0-10.27,0-1.32,0-3.14.35-3.13-1.66s1.83-1.59,3.14-1.6c2.49,0,5,0,7.8,0-.5-.76-.81-1.26-1.16-1.74-2.74-3.7-5.5-7.39-8.24-11.09a8.12,8.12,0,0,1-.94-1.42,2.47,2.47,0,0,1,.82-3.32,2.26,2.26,0,0,1,3.23.34c1.13,1.27,2.12,2.67,3.14,4C272.44,40,275.18,43.66,278,47.52Z"/><path class="cls-3" d="M419.42,110h6.73c.45-2,.89-3.88,1.35-5.8a8.26,8.26,0,0,1,.48-1.63,2,2,0,0,1,2.45-1.3,1.91,1.91,0,0,1,1.54,2.31c-.36,2.12-.82,4.22-1.26,6.48a23.26,23.26,0,0,1,3.24,0c.81.11,2.27.62,2.24.81-.16,1.44-1.43.78-2.29.94a3.85,3.85,0,0,1-.68,0c-3.44,0-3.44,0-3.78,3.64,1.83,0,3.64-.06,5.45,0,.49,0,.95.55,1.42.85-.48.28-.95.77-1.45.8a44.83,44.83,0,0,1-4.78,0c-1,0-1.38.33-1.6,1.28-.68,2.93-1.48,5.83-2.21,8.75-.39,1.54-1.25,2.58-2.93,2.58a3,3,0,0,1-3-2.55c-.94-3.32-1.87-6.64-2.82-10-1.56,0-3,.09-4.51,0-1.19-.09-1.68.32-2,1.47-.7,2.81-1.55,5.58-2.35,8.36a7.76,7.76,0,0,1-.33,1,2.78,2.78,0,0,1-2.81,1.83,2.48,2.48,0,0,1-2.54-1.89c-.88-3.11-1.74-6.23-2.48-9.37-.25-1.05-.68-1.4-1.72-1.35a44.83,44.83,0,0,1-4.78,0c-.46,0-.89-.49-1.33-.75.44-.32.87-.88,1.33-.91,1.82-.1,3.64,0,5.42,0,.07-.21.15-.31.14-.41-.51-3.25-.51-3.25-3.75-3.25a8.31,8.31,0,0,1-1.87,0,4.52,4.52,0,0,1-1.28-.81c.42-.31.81-.85,1.25-.89,1.41-.11,2.84,0,4.42,0-.4-1.73-.8-3.3-1.12-4.89a4.1,4.1,0,0,1-.15-2.17,3.13,3.13,0,0,1,1.75-1.7,2.26,2.26,0,0,1,2,1.06,44,44,0,0,1,1.68,6.23c.22,1.08.58,1.55,1.75,1.49,1.76-.1,3.52,0,5.28,0,.65-2.19,1.27-4.24,1.86-6.31a3.1,3.1,0,0,1,3.18-2.56c1.72,0,2.65,1,3.09,2.66C418.18,105.86,418.8,107.86,419.42,110Zm.68,2c.38,3.49.76,3.92,3.92,3.51,2.18-.28.88-2.32,1.87-3.51Zm-11.17.08h-5.64c.29,1.26.53,2.33.77,3.36C408.92,115.54,408,116.14,408.93,112Zm3.17,3.38h4.76c-.21-2.89-.55-3.5-1.94-3.55C412.73,111.76,412.66,111.85,412.1,115.39ZM422.93,123l.33,0c.41-1.84.81-3.69,1.25-5.65h-3.15C421.9,119.26,422.42,121.13,422.93,123Zm-15.31-5.69h-3.13c.43,2,.84,3.81,1.24,5.65l.34,0Zm7.11-10.58-.36,0c-.3,1-.6,2.1-.92,3.24h2.14C415.28,108.78,415,107.76,414.73,106.73Z"/><path class="cls-3" d="M409.52,47.82c.67-2.27,1.27-4.34,1.88-6.41A3.06,3.06,0,0,1,414.49,39a3,3,0,0,1,3.08,2.43l1.86,6.43c2,0,4,0,6-.06.34,0,.83-.66,1-1.1.47-1.75.79-3.54,1.24-5.3s1.43-2.67,2.74-2.35,1.85,1.35,1.49,3.3c-.33,1.78-.79,3.54-1.24,5.51a40.13,40.13,0,0,1,4.12,0c.54.05,1,.61,1.54.93a7.38,7.38,0,0,1-1.49.79,6,6,0,0,1-1.53,0c-3.43,0-3.43,0-3.87,3.64,1.71,0,3.4-.07,5.08,0a5.79,5.79,0,0,1,1.82.79,5.39,5.39,0,0,1-1.74.85,25.38,25.38,0,0,1-4.09,0c-1.21-.07-1.8.23-2.07,1.56-.55,2.78-1.36,5.51-2.06,8.26-.4,1.55-1.15,2.78-3,2.79s-2.69-1.16-3.13-2.82c-.75-2.85-1.6-5.67-2.34-8.53-.24-.9-.61-1.32-1.63-1.26-1.52.09-3.06,0-4.8,0-.7,2.5-1.39,5-2.1,7.47-.3,1-.61,2.07-1,3.09a2.8,2.8,0,0,1-2.83,2,2.56,2.56,0,0,1-2.65-2c-.86-3.06-1.71-6.12-2.42-9.21-.26-1.16-.76-1.46-1.84-1.4a39.39,39.39,0,0,1-4.61,0c-.49,0-.94-.55-1.41-.84.49-.28,1-.78,1.46-.81,1.76-.1,3.53,0,5.51,0a13.79,13.79,0,0,0-.6-2.65,1.84,1.84,0,0,0-1.27-1c-1.24-.14-2.51,0-3.76-.09-.46,0-.88-.49-1.32-.76.45-.33.88-.89,1.36-.94,1.35-.13,2.72,0,4.29,0-.39-1.69-.77-3.26-1.1-4.83-.13-.66-.43-1.47-.19-2a3.47,3.47,0,0,1,1.73-1.9,2.38,2.38,0,0,1,2.06,1.13,45.83,45.83,0,0,1,1.65,6.24c.21,1,.58,1.44,1.67,1.39C405.93,47.75,407.69,47.82,409.52,47.82ZM404,53.11c4.78.3,4.08.75,4.85-3.35h-5.59C403.57,51,403.8,52.06,404,53.11Zm20.94,0c.23-1,.46-2.12.72-3.34h-5.61C420.9,53.84,420.12,53.43,425,53.09Zm-8.15.11c-.06-3-.53-3.65-2.68-3.57-1.36,0-2,1.2-1.88,3.57Zm-12.36,1.87,1.3,5.65.37,0c.48-1.83,1-3.67,1.48-5.6Zm18.79,5.8c.43-2,.82-3.83,1.23-5.76h-3.1c.5,1.88,1,3.63,1.44,5.37C422.85,60.57,423,60.63,423.25,60.87ZM415.6,47.72l-.9-3.24h-.33l-.93,3.25Z"/><path class="cls-3" d="M275.68,132.62c-2.83-.38-5.47-.76-8.11-1.07-1.3-.15-1.84-.71-1.47-2a21.5,21.5,0,0,0,.66-3.17c.17-1.57,1-1.53,2.25-1.27,2.77.55,5.57,1,8.38,1.27a7.49,7.49,0,0,0,3.33-.54c.81-.31,1.9-1,2-1.73a3.63,3.63,0,0,0-1.09-2.65,11.32,11.32,0,0,0-3.06-1.8c-2.38-1.18-4.88-2.17-7.18-3.5-3.77-2.19-5.35-5.57-4.54-9.63a9,9,0,0,1,7.23-7.32c1.4-.33,1.81-.88,1.62-2.15,0-.06,0-.11,0-.17,0-3.31.61-3.86,3.92-3.17a2.12,2.12,0,0,1,1.16,1.5,19.28,19.28,0,0,1,.05,3.23c2.13.33,4.13.71,6.15.93,1.34.15,1.58.88,1.36,2s-.5,2.1-.67,3.16c-.22,1.37-.89,1.63-2.17,1.21a18.12,18.12,0,0,0-9.23-.86c-1.19.24-2.42.46-2.66,2a2.72,2.72,0,0,0,1.82,3.11c2.42,1.13,4.9,2.13,7.29,3.32,3.22,1.62,6.11,3.6,6.71,7.57.81,5.34-1.76,9.51-7,10.89-1.46.38-1.83,1-1.64,2.32a4.34,4.34,0,0,1,0,.51c0,2.84,0,2.84-2.82,2.83-2.31,0-2.31,0-2.33-2.39Z"/><path class="cls-3" d="M65,173.82C63.72,175,62.62,176,61.54,177s-2.1,1.74-3.41.57c-.94-.83-.63-2,.79-3.31,1.76-1.61,3.6-3.15,5.3-4.82a3.22,3.22,0,0,0,.91-2c.1-3,0-5.92.05-8.88,0-1.31.44-2.37,1.88-2.65a2.11,2.11,0,0,1,2.53,2.26c0,2,0,4,0,6.38,2-1.82,3.78-3.4,5.56-4.94.46-.39,1.08-.91,1.58-.87s1.57.54,1.71,1a2.67,2.67,0,0,1-.48,2.22,50.83,50.83,0,0,1-6,5.52c-2.27,1.65-2.74,3.65-2.12,6.4l6-5.35c.87-.78,1.81-1.08,2.73-.17s.74,2-.24,2.94c-2.53,2.31-5.11,4.54-7.56,6.92a3.9,3.9,0,0,0-1.08,2.44c-.11,4.43-.05,8.86-.05,13.53a27.84,27.84,0,0,0,9.15-6.92c3.17-3.51,5.26-7.39,4.39-12.37-.25-1.45.65-2.23,2-2.42s2,.65,2.24,1.94c1,4.92-.44,9.27-3.27,13.16a32,32,0,0,1-15.22,11.63c-2.28.82-3.71-.11-3.72-2.54,0-4.31,0-8.63,0-13.37l-2.47,2.14c-.51.45-1,1-1.53,1.36a1.82,1.82,0,0,1-2.73-.16,1.72,1.72,0,0,1,.21-2.59c1.4-1.34,2.85-2.62,4.28-3.92C65.51,177.75,65.51,177.75,65,173.82Z"/><path class="cls-3" d="M137.48,99.49c0-1.23,0-2.58,0-3.94,0-1,.31-1.9,1.48-1.89s1.43.89,1.41,1.92c0,1.3,0,2.61,0,4l4.42.43a7.1,7.1,0,0,1,6.49,5.37c.66,3.28-.51,5.78-3.56,7.56-.54.32-1.09.6-1.77,1,.89.38,1.66.69,2.41,1,3.21,1.44,4.8,3.75,4.6,6.67-.24,3.64-2.27,6.58-5.52,7.4a64.25,64.25,0,0,1-7.07,1c0,1.71,0,3.52,0,5.33,0,1-.27,1.9-1.43,1.89s-1.46-.91-1.46-1.91c0-1.81,0-3.61,0-5.56-1.75,0-3.27,0-4.8,0-2.73,0-3.58-.83-3.59-3.59,0-6.09,0-12.18,0-18.28,0-1.65-.05-3.3,0-4.95.09-2.34.94-3.16,3.26-3.24,1.59,0,3.18,0,4.77-.08A2.44,2.44,0,0,0,137.48,99.49Zm3,26.74c5,0,7.39-1.81,7.31-5.39-.08-3.29-2.76-5-7.31-4.68Zm-3-10.33a24.53,24.53,0,0,1-2.61,0c-1.28-.14-1.69.36-1.63,1.63.09,2,0,4,0,5.95,0,3.14.11,3.27,3.21,2.85a1.43,1.43,0,0,0,1-1C137.5,122.29,137.47,119.23,137.47,115.9Zm3-12.37v8.88c3.77.18,6-1.53,6-4.57S144.57,103.46,140.48,103.53Zm-3.15,8.91v-9.18c-1,0-1.83.06-2.66,0-1.16-.1-1.48.4-1.44,1.49.07,1.53,0,3.07,0,4.6,0,3.62,0,3.62,3.66,3.28A1.86,1.86,0,0,0,137.33,112.44Z"/><path class="cls-3" d="M329.28,102.94v11.68q0,7.26,0,14.52a12.34,12.34,0,0,1,0,1.36,2.72,2.72,0,0,1-2.53,2.72c-1.44,0-2.45-1.17-2.45-2.93q0-14.77,0-29.55c0-1.88.87-3,2.57-3,5.86,0,11.74-.12,17.57.32,6,.44,11,6,11.27,12,.19,4.49.15,9,.14,13.49,0,2-1,2.94-2.59,2.86s-2.32-1.07-2.32-3c0-3.81,0-7.63,0-11.44,0-5.72-3.55-9.25-9.27-9.29-3.87,0-7.74,0-11.61,0A4.4,4.4,0,0,0,329.28,102.94Z"/><path class="cls-3" d="M363,128v-14q0-6.15,0-12.3c0-.67-.11-1.53.24-2,.6-.77,1.53-1.78,2.31-1.76s1.67,1,2.31,1.81c.3.34.14,1.1.14,1.66v28.19c0,2.86-.82,3.72-3.62,3.69-5.51-.07-11.05.08-16.54-.35-6-.47-11-6-11.26-12.06-.19-4.49-.15-9-.14-13.49,0-1.92.89-2.84,2.44-2.85s2.47,1,2.48,3c0,3.81,0,7.63,0,11.44a8.81,8.81,0,0,0,9.29,9.31c3.93-.14,7.86-.05,11.79-.06A3.11,3.11,0,0,0,363,128Z"/><path class="cls-3" d="M344.44,65.1c0-3.24,0-6.48,0-9.72a2,2,0,0,0-.89-1.24c-.92-.65-1.94-1.17-2.9-1.78a8.49,8.49,0,0,1-4-9.1,8.48,8.48,0,0,1,6.17-7.07c1.63-.52,2.21-1.25,2-2.85a13.49,13.49,0,0,1,0-1.81h3.11v3.84c1.59.29,3,.56,4.37.8a2,2,0,0,1,1.92,2.61,17.68,17.68,0,0,0,0,2.42l-6.36-2.09c0,4.22,0,8,0,11.7,0,.36.55.78.93,1,1.27.85,2.64,1.57,3.87,2.47a7.88,7.88,0,0,1-2.05,14c-1.78.55-2.32,1.46-2.07,3.14a9.45,9.45,0,0,1,0,1.19c0,2.37-1.14,3.23-3.33,2.41a2.09,2.09,0,0,1-.87-1.59c-.23-3-.19-3-3-3.61-.56-.12-1.11-.27-1.65-.44-3.42-1.09-4.18-2.39-3.35-5.82.29-1.21.92-.89,1.78-.48,1.95.94,4,1.74,6,2.59Zm3.91,0c2.21-.56,3.24-1.71,3.31-3.77a4.87,4.87,0,0,0-3.31-4.85Zm-4.09-15.6V40.22a4,4,0,0,0-3.09,3.8C341,46.3,341.87,48.07,344.26,49.46Z"/><path class="cls-3" d="M192.66,112.42c0,3.64-.08,7.1,0,10.55.05,1.62-.39,2.2-2.08,2.13-3.51-.15-3.07.34-3.08-3.14,0-8.54,0-17.08,0-25.62,0-1.53.36-2.17,2-2.07,3.23.2,6.49.08,9.7.4s6,1.89,7.12,5.24a9.25,9.25,0,0,1-2,9.81,2.62,2.62,0,0,0-.65,3.26c1.36,3.36,2.59,6.78,3.85,10.18.62,1.67.46,1.88-1.31,1.9-3.34,0-3.34,0-4.48-3.08-1-2.72-2-5.43-2.92-8.17a1.74,1.74,0,0,0-2.09-1.42C195.43,112.5,194.13,112.42,192.66,112.42Zm.06-3.9a46.9,46.9,0,0,0,6.21-1c2-.59,2.91-2.5,2.74-4.61A3.9,3.9,0,0,0,198.31,99a50,50,0,0,0-5.59-.45Z"/><path class="cls-3" d="M214.55,126c0,3.19-.05,6.07,0,9,0,1.28-.25,1.83-1.69,1.77-3.22-.13-2.79.27-2.8-2.86q0-13.32,0-26.63c0-1-.34-2.11,1.39-2,3,.11,3.18-.24,3.05,2,0,.09.1.17.22.38a8.65,8.65,0,0,1,7.18-2.78,9.07,9.07,0,0,1,8.32,6.3,13.7,13.7,0,0,1-1.49,13.3A9.91,9.91,0,0,1,214.55,126Zm-.46-9.36c.65,1.65,1,3.48,2,4.91,2.45,3.62,7.24,3.44,9.67-.19a8.87,8.87,0,0,0-.06-9.77,5.67,5.67,0,0,0-9.17-.71A10.42,10.42,0,0,0,214.09,116.62Z"/><path class="cls-3" d="M221.41,171.15c4.09-1.38,6.85-.7,8.6,2,1.93,3,1.6,8-.7,10.54a6.66,6.66,0,0,1-11-1.66,14.8,14.8,0,0,1,.29-13c1.36-2.78,3.84-4.05,6.76-4.62.84-.16,1.68-.29,2.52-.45s1.74-.81,1.91.41c.15,1,.68,2.5-1.2,2.84-1.28.23-2.54.55-3.8.9A4.73,4.73,0,0,0,221.41,171.15Zm6,7c-.18-.9-.28-1.62-.48-2.33a2.69,2.69,0,0,0-2.83-2.19,2.46,2.46,0,0,0-2.57,2.26,14.11,14.11,0,0,0,.57,5.05,3,3,0,0,0,2.34,1.44,3.23,3.23,0,0,0,2.21-1.47A8.81,8.81,0,0,0,227.37,178.15Z"/><path class="cls-3" d="M191.47,171.22c2.6-1.46,5.19-1.76,7.59.07,2.9,2.2,3.24,5.37,2.66,8.65-.75,4.23-4.87,7.42-10.33,4.88,0,1.58-.09,3,0,4.45.14,1.61-.62,1.85-2,1.87s-1.94-.5-1.92-2c.08-5.58,0-11.16.06-16.75,0-.65.26-1.78.6-1.86a7.72,7.72,0,0,1,2.78.11C191.14,170.69,191.3,171,191.47,171.22Zm-.07,6.91c0,2.67,1.12,4.21,3.1,4.32s3.1-1.29,3.48-3.88a4.46,4.46,0,0,0,.07-.51c.13-3-1.79-5-4.17-4.46C192.25,174,191.39,175.56,191.4,178.13Z"/><path class="cls-3" d="M209.5,179.27c.91-2.63,1.73-5,2.56-7.37.49-1.42,2.62-2.24,3.79-1.39a1.4,1.4,0,0,1,.31,1.3c-2,5.1-4,10.22-6.23,15.25a8.08,8.08,0,0,1-4.73,4.43c-.76.28-1.56.5-1.77-.53s-1.32-2,.25-2.8a8.49,8.49,0,0,0,1.45-.88c2.12-1.65,2.36-2.6,1.37-5.05-1.29-3.21-2.63-6.4-3.83-9.63-.23-.63-.23-1.84.15-2.11,1-.73,3.16-.12,3.53.83.93,2.37,1.79,4.77,2.7,7.15A6.75,6.75,0,0,0,209.5,179.27Z"/><path class="cls-3" d="M430.18,307.17a29.25,29.25,0,0,1,4.22.06c.69.1,1.75.71,1.83,1.21.17,1.2-.92,1.35-1.89,1.35h-4V314a30.28,30.28,0,0,1,4.15.06c.67.1,1.24.82,1.86,1.25-.62.43-1.2,1.14-1.88,1.24a27.78,27.78,0,0,1-4.09.06c-.16,1.66-.29,3.17-.44,4.68a2.62,2.62,0,0,1-2.48,2.61c-6.65.51-13.32.87-19.9-.46-3-.61-5.16-2.81-6.44-5.65a1.75,1.75,0,0,0-1.93-1.2,31.75,31.75,0,0,1-4.78,0c-.62-.07-1.17-.78-1.75-1.2.6-.45,1.17-1.22,1.81-1.28,1.8-.18,3.62-.06,5.52-.06V309.8h-5.28c-.95,0-2-.07-2-1.3s1-1.33,2-1.34c1.66,0,3.31.06,5,0a2,2,0,0,0,1.43-.77c2.12-4.32,5.88-6,10.35-6.41,3.17-.27,6.37-.21,9.56-.29h2c0-2,0-3.82,0-5.63,0-2.73,0-5.46.13-8.19a3.46,3.46,0,0,1,3.32-3.29,3.41,3.41,0,0,1,3.53,3,14.48,14.48,0,0,1,.25,2.54c0,5.7,0,11.39,0,17.09Zm-23.35,6.69h16v-4h-16Zm16,2.85H408.58c4.37,3.22,9.34,2.1,14.25,2.37Zm-.08-9.59c.32-2.29.32-2.32-1.73-2.29-2.38,0-4.77.08-7.14.24a7.71,7.71,0,0,0-5.23,2.05Z"/><path class="cls-3" d="M58.32,235.63c0-2.31,0-4.46,0-6.6,0-.91.07-1.82.15-2.72.12-1.21.29-2.49,1.7-2.85a3.75,3.75,0,0,1,4.19,1.14,34.23,34.23,0,0,1,4.15,6c1.93,4.16,4.86,5.87,9.39,5a23.76,23.76,0,0,1,4.07,0c0-2.68,0-5.18,0-7.67a7,7,0,0,1,.3-2.85,3.65,3.65,0,0,1,2-1.71,1.83,1.83,0,0,1,2.36,1.41,8.37,8.37,0,0,1,.33,2.34c0,2.73,0,5.46,0,8.48a30,30,0,0,1,3.56,0c1.41.18,3.81-.91,3.82,1.51,0,2.58-2.46,1.37-3.9,1.59a24.72,24.72,0,0,1-3.35,0v5.78c1.72,0,3.42,0,5.11,0,1.15,0,2.16.29,2.22,1.56.07,1.44-1.07,1.71-2.24,1.72-1.64,0-3.29,0-5.22,0,0,1.82,0,3.55,0,5.29a21.57,21.57,0,0,1-.09,2.9,3.07,3.07,0,0,1-2.35,2.83A3.11,3.11,0,0,1,81,257.58c-1.81-2.69-3.68-5.34-5.36-8.11a3.09,3.09,0,0,0-3.17-1.65c-3,.11-6,0-9.25,0,0,2.21,0,4.24,0,6.27,0,.86,0,1.71-.09,2.56-.1,1.26-.62,2.18-2,2.28a2,2,0,0,1-2.47-2c-.18-2.21-.18-4.43-.24-6.64,0-.74,0-1.47,0-2.49-1.5,0-2.89,0-4.29,0a4.09,4.09,0,0,1-1.84-.15c-.58-.35-1.42-1.25-1.3-1.59a2.56,2.56,0,0,1,1.7-1.47,54.27,54.27,0,0,1,5.59-.07v-5.78c-1.78,0-3.53,0-5.27,0-1.17,0-2.13-.31-2.1-1.64s.95-1.54,2-1.52C54.61,235.65,56.36,235.63,58.32,235.63Zm13.92,8.89C71,242.64,70,241,68.88,239.44a1.62,1.62,0,0,0-1.08-.62c-1.46-.07-2.93,0-4.5,0v5.73ZM74,238.87c.84,1.31,1.51,2.36,2.18,3.39,1.65,2.54,2.62,2.89,5.67,2.05v-5.44Zm-7.66-3.3-3-4.52v4.52Z"/><path class="cls-3" d="M420.56,373.17H407.19c-.74,0-1.48,0-2.22,0a2.39,2.39,0,0,1-.16-4.77,32.25,32.25,0,0,1,3.41-.05h13.54v-5.07c-.62,0-1.22-.08-1.82-.08h-13.5c-.34,0-.69,0-1,0-1.77-.1-2.91-1.11-2.86-2.54s1.12-2.32,2.83-2.34c4.33,0,8.66,0,13,0h1.85c-.75-4.29-5.92-8.85-10.51-9.47a12.18,12.18,0,0,0-10.21,3.16l-.78.66c-1.54,1.21-2.75,1.25-3.77.11s-.82-2.42.48-3.75a17.25,17.25,0,0,1,23.91-.75,19.7,19.7,0,0,1,5.71,8.35,2.18,2.18,0,0,0,2.61,1.72,33.8,33.8,0,0,1,4.27,0c1.73.07,2.72,1,2.7,2.44s-1.08,2.36-2.78,2.42-3.27,0-5,0v5.16c1.53,0,3.1,0,4.66,0,1.94,0,3.09.94,3.11,2.42s-1.08,2.39-3.05,2.43a31.42,31.42,0,0,1-3.76,0c-1.61-.18-2.37.43-3,2a19.51,19.51,0,0,1-10.13,10.8A17.24,17.24,0,0,1,395.27,382c-1.17-1.28-1.27-2.59-.28-3.64s2.23-1.12,3.62.1c2.13,1.87,4.38,3.43,7.26,3.85,5.5.79,9.59-1.55,12.74-5.86C419.27,375.56,419.76,374.53,420.56,373.17Z"/><path class="cls-3" d="M150.16,232.12c1.91,0,3.56,0,5.2,0,1.34,0,2.4.46,2.43,2s-1.06,2.06-2.37,2.11c-1.8.07-3.61,0-5.6,0,.14,1,.26,1.88.39,2.86,1.73,0,3.37,0,5,0s2.78.89,2.77,2.15-1,2.05-2.79,2.08c-1.17,0-2.35,0-3.61,0,.38,1.94.79,3.64,1,5.37,1.63,11-7.39,15.28-15.28,14.05-6.09-.94-9.17-4.09-10.21-10.2a2.71,2.71,0,0,1,2.13-3.33,2.58,2.58,0,0,1,3.17,2.1c.22.82.26,1.69.46,2.51.9,3.67,4.08,5.47,8.39,4.78a7,7,0,0,0,6-7.5c-.21-2.19-.77-4.35-1.12-6.53-.16-1-.68-1.28-1.64-1.26-2.34,0-4.67,0-7,0-1.86,0-2.71-.72-2.7-2.12s.93-2.1,2.72-2.12c2.33,0,4.66,0,7.11,0l-.32-2.85H141c-1.19,0-2.39,0-3.59,0-1.73-.05-2.86-.9-2.74-2.15.16-1.56,1.25-2,2.67-2,2.05,0,4.1,0,6.15,0a1.85,1.85,0,0,0,2-1.16,54.78,54.78,0,0,1,3.07-4.7,30.7,30.7,0,0,1-3.95,0c-3-.4-6-.91-8.91-1.45a14.11,14.11,0,0,0-8.47,1.11c-2.24,1-4.27-.32-3.87-2.49a3.35,3.35,0,0,1,1.64-2.1c3.91-1.84,8-2.57,12.23-1.24a62,62,0,0,0,6.46,1.55c4,.78,7.63-.46,11.27-1.84a3.82,3.82,0,0,1,2.55-.15,2.14,2.14,0,0,1,.44,3.83,10.56,10.56,0,0,1-1.79.95A10.21,10.21,0,0,0,150.16,232.12Z"/><path class="cls-3" d="M206,258.55l-2.49-.7a23.34,23.34,0,0,1-1,3.48c-.24.51-1,.78-1.56,1.15-.31-.63-1-1.42-.84-1.85,1.11-2.72.61-4.73-1.64-6.78-1.21-1.1-1.73-3.13-2.16-4.85a2.47,2.47,0,0,1,1.77-3.09c1.53-.46,2.48.32,3.15,1.62.42.8.89,1.56,1.52,2.67,1.84-6.95,3.58-13.54,5.37-20.33a5.73,5.73,0,0,0-5.24,2.77,23.27,23.27,0,0,0-1.67,3.53c-.77,1.79-1.63,2.38-3,2a3,3,0,0,1-2-3.49A11.83,11.83,0,0,1,207,224.43c.79-.06,1.58,0,2.48,0a20.72,20.72,0,0,1,1-3.66c.29-.61,1.17-.95,1.78-1.4a5.56,5.56,0,0,1,.73,2,17.67,17.67,0,0,1-.79,3.26l2.38,1c.4-1.43.8-2.7,1.12-4,.26-1,.57-2,1.82-1.75s1.12,1.35.75,2.34c0,.11,0,.23-.07.33a7,7,0,0,0,1.09,7.5c4.77,6.21,4.38,17-.21,23.29a12.21,12.21,0,0,1-9,5.21,1.67,1.67,0,0,0-1.78,1.58,3.68,3.68,0,0,1-.44,1.62,7.45,7.45,0,0,1-1.56,1.25,5.55,5.55,0,0,1-1-1.87A9,9,0,0,1,206,258.55Zm4.78-28.42q-3,11.18-5.85,22.17c2.15,1.32,2.41,1.24,3-.9,1.62-6.14,3.17-12.3,4.88-18.41C213.31,231.17,212.69,230.47,210.8,230.13Zm4.27,4.54c-1.6,6.05-3.19,12.1-4.81,18.26C215.66,251.47,217.93,243,215.07,234.67Z"/><path class="cls-3" d="M345.39,238.45H334c-2.47,0-3.57-.7-3.53-2.2s1.12-2.16,3.64-2.16c4.89,0,9.79-.05,14.69,0a2,2,0,0,0,2.24-1.55c1.62-4.5-1.17-8.84-5.94-8.81a34.68,34.68,0,0,0-6.32,1.08c-.61.12-1.3.68-1.75.5a4.39,4.39,0,0,1-2.24-1.64,2.23,2.23,0,0,1,.75-2.07c4.45-2.21,9.11-3.36,13.95-1.39s7.18,7,6,12.24c-.1.44-.2.88-.36,1.61,1.34,0,2.56,0,3.78,0,1.79.07,2.74.84,2.78,2.15s-1,2.17-2.86,2.19H357c-4.58,0-4.58,0-8.26,3.53a13.33,13.33,0,0,0,1.34.14h8.88c1.75,0,2.74.79,2.77,2.1s-.94,2.19-2.69,2.21c-4.56.05-9.11,0-13.67,0-3,0-4.88,1.58-5.67,4.68a5.79,5.79,0,0,0,3.09,6.57c2.9,1.42,5.84,1.12,8.77,0,.79-.29,1.62-.88,2.37-.8a3.16,3.16,0,0,1,2.24,1.31,2.4,2.4,0,0,1-.62,2.31c-4.17,2.55-10.82,3.7-15.54.61s-6.09-8.3-3.6-13.42c.17-.34.31-.69.56-1.28-1.37,0-2.55,0-3.73,0-1.76-.07-2.73-.88-2.72-2.19s1-2.11,2.74-2.13a29.19,29.19,0,0,1,4.95,0C341.52,242.71,343.23,240.28,345.39,238.45Z"/><path class="cls-3" d="M288.36,367.8c.39,2.15.79,4,1.06,5.92,1,7.16-3.24,12.1-9.1,13.27-5.08,1-9.89.54-13.7-3.51a11.14,11.14,0,0,1-2.8-7A2.48,2.48,0,0,1,266,373.7a2.54,2.54,0,0,1,3.07,1.79,8.79,8.79,0,0,1,.4,1.83c.62,4.11,3.56,6.37,7.7,5.91s7.18-3.65,6.79-7.65c-.2-2.2-.76-4.35-1.12-6.53-.16-1-.62-1.31-1.61-1.29-2.39.07-4.79,0-7.18,0-1.42,0-2.49-.45-2.55-2.08-.06-1.31.87-2.1,2.52-2.13,2.39,0,4.78,0,7.34,0-.86-5,.19-9.34,4.47-13.06-5.81.77-10.78-1.18-15.93-1.52-1.73-.12-3.53.66-5.29,1.06-.49.11-.94.4-1.44.52a2.56,2.56,0,0,1-1.71-4.82c3.95-1.72,8-2.62,12.25-1.27,1,.31,2,.44,3,.76,5.13,1.72,10.06,1.1,14.93-1a3.55,3.55,0,0,1,2.54-.13,2.14,2.14,0,0,1,.41,3.83,4.74,4.74,0,0,1-1.18.67c-5.6,2.31-8,7.78-6.29,15,1.66,0,3.36-.05,5.06,0,1.9.07,3.07,1.44,2.31,2.81a3.27,3.27,0,0,1-2.08,1.36A24.48,24.48,0,0,1,288.36,367.8Z"/><path class="cls-3" d="M342.8,366.42c-3.33-1.79-4.33-5.08-5.26-8.46-1-3.6-2.24-7.13-3.15-10.75a3.75,3.75,0,0,1,.81-2.84,2,2,0,0,1,3.06-.09,8.24,8.24,0,0,1,2,3.05c1.14,3.57,2.09,7.19,3.05,10.81,1.25,4.77,3.31,6.4,8.24,6.41h5.29c1.43,0,2.47.54,2.56,2.12.09,1.39-.87,2.23-2.58,2.3-3.12.12-6.26,0-9.37.38a6.14,6.14,0,0,0-5.21,4.13h7.82c2.91,0,5.81,0,8.71,0,1.67,0,2.67,1,2.67,2.28s-.89,2.19-2.66,2.21c-4.9,0-9.8,0-14.69,0h-2a4.59,4.59,0,0,0,3,3.91,16.36,16.36,0,0,0,4.77,1.08c2.66.18,5.35,0,8,0a9.58,9.58,0,0,1,1.2,0c1.3.15,2.32.69,2.38,2.17.06,1.29-.93,2.18-2.49,2.21-2.11,0-4.22,0-6.32,0H333.35c-1.43,0-2.46-.56-2.6-2.1-.13-1.32.91-2.24,2.6-2.3,1.46-.05,2.93,0,4.45,0L336,378c-1,0-2,0-3.1,0a2,2,0,0,1-2.11-2c-.1-1.28.73-2.39,1.82-2.24,3.3.46,4.67-1.5,6.18-3.89C339.6,368.43,341.3,367.62,342.8,366.42Z"/><path class="cls-3" d="M209.1,371.32c-1.43,2-2.79,3.87-4.12,5.76-2.07,2.93-4.1,5.89-6.21,8.78-1.33,1.84-3.24,2-4.41.44-1-1.34-.49-2.57.35-3.75l8.09-11.41c.35-.49.64-1,1.11-1.77h-7.72c-1.24,0-2.66.08-2.68-1.58s1.49-1.69,2.75-1.7h10v-4.73h-9.38a4,4,0,0,1-1.84-.12,7.91,7.91,0,0,1-1.57-1.68c.59-.51,1.15-1.42,1.76-1.45,2.95-.16,5.92-.07,8.88-.08h2.26c0-3.24,0-6.34,0-9.45a16.7,16.7,0,0,1,.13-2.55,2.43,2.43,0,0,1,2.53-2.29,2.37,2.37,0,0,1,2.51,2.3c.15,1.58.13,3.18.14,4.77,0,2.33,0,4.66,0,7.22h8.27a15.39,15.39,0,0,1,3.4.07,2.74,2.74,0,0,1,1.85,1.48c.28,1.13-.69,1.71-1.78,1.75-1.59.06-3.19,0-4.78,0h-6.8v4.73c3.46,0,6.86,0,10.27,0,1.31,0,3.13-.35,3.12,1.65s-1.83,1.6-3.13,1.61c-2.49,0-5,0-7.81,0,.51.76.81,1.26,1.16,1.74l8.25,11.09a8.73,8.73,0,0,1,.94,1.42,2.47,2.47,0,0,1-.82,3.32,2.27,2.27,0,0,1-3.24-.34c-1.13-1.27-2.11-2.67-3.13-4C214.69,378.87,212,375.18,209.1,371.32Z"/><path class="cls-3" d="M67.72,308.86H61c-.45,1.95-.89,3.87-1.35,5.8a8,8,0,0,1-.49,1.62,2,2,0,0,1-2.45,1.31,1.92,1.92,0,0,1-1.54-2.31c.37-2.12.82-4.22,1.27-6.48a23.41,23.41,0,0,1-3.25,0c-.81-.11-2.26-.62-2.24-.82.17-1.43,1.44-.78,2.29-.93a3.09,3.09,0,0,1,.68,0c3.45,0,3.45,0,3.79-3.65-1.83,0-3.65.07-5.46,0-.49,0-1-.55-1.42-.84.49-.28,1-.77,1.46-.8a42.35,42.35,0,0,1,4.78,0c1,.05,1.37-.33,1.6-1.28.67-2.93,1.47-5.83,2.21-8.75.39-1.54,1.24-2.58,2.93-2.58a3,3,0,0,1,3,2.54l2.81,10.05c1.57,0,3-.09,4.52,0,1.19.09,1.68-.32,2-1.48.69-2.8,1.55-5.57,2.34-8.35a7,7,0,0,1,.34-1,2.77,2.77,0,0,1,2.8-1.82,2.48,2.48,0,0,1,2.55,1.89c.87,3.11,1.73,6.23,2.48,9.37.24,1.05.67,1.4,1.72,1.34a44.83,44.83,0,0,1,4.78,0c.46,0,.89.49,1.33.75-.45.31-.88.88-1.34.91-1.81.1-3.63,0-5.41,0-.08.21-.16.31-.14.4.51,3.26.51,3.26,3.75,3.26a7.78,7.78,0,0,1,1.87,0,4.81,4.81,0,0,1,1.28.81c-.42.31-.82.85-1.26.88-1.41.12-2.83.05-4.41.05.4,1.73.79,3.3,1.11,4.89a4,4,0,0,1,.16,2.17,3.15,3.15,0,0,1-1.76,1.7,2.32,2.32,0,0,1-2-1.06,45.41,45.41,0,0,1-1.68-6.23c-.22-1.08-.58-1.56-1.75-1.49-1.75.09-3.51,0-5.28,0C77,311,76.35,313,75.77,315.11a3.1,3.1,0,0,1-3.18,2.55c-1.73,0-2.65-1-3.09-2.65C69,313,68.34,311,67.72,308.86ZM67,306.91c-.37-3.49-.75-3.92-3.92-3.51-2.17.28-.88,2.32-1.87,3.51Zm11.17-.08h5.65c-.29-1.26-.54-2.33-.77-3.36C78.22,303.3,79.14,302.7,78.2,306.83ZM75,303.45H70.27c.21,2.89.55,3.5,2,3.55C74.4,307.08,74.48,307,75,303.45ZM64.2,295.84l-.33,0c-.4,1.84-.81,3.69-1.24,5.65h3.14C65.23,299.57,64.72,297.71,64.2,295.84Zm15.32,5.68h3.13c-.44-2-.84-3.81-1.25-5.65l-.33,0Zm-7.11,10.59.36,0c.3-1,.6-2.09.92-3.23H71.55C71.86,310.06,72.13,311.08,72.41,312.11Z"/><path class="cls-3" d="M77.61,371c-.66,2.27-1.27,4.34-1.87,6.41a3.07,3.07,0,0,1-3.09,2.45,3,3,0,0,1-3.09-2.44c-.6-2.07-1.19-4.14-1.85-6.42-2,0-4,0-6,.05-.35,0-.84.67-1,1.11-.48,1.75-.79,3.54-1.24,5.3s-1.43,2.67-2.74,2.35-1.85-1.35-1.5-3.3c.33-1.79.8-3.54,1.25-5.51a40.09,40.09,0,0,1-4.12,0c-.54-.05-1-.61-1.54-.93a7.31,7.31,0,0,1,1.48-.79,5.57,5.57,0,0,1,1.53,0c3.44,0,3.44,0,3.87-3.64-1.71,0-3.4.07-5.08,0a5.74,5.74,0,0,1-1.81-.79,5.49,5.49,0,0,1,1.73-.86,28.06,28.06,0,0,1,4.1,0c1.2.08,1.8-.22,2.06-1.56.55-2.77,1.36-5.5,2.07-8.25.39-1.55,1.15-2.78,3-2.79s2.69,1.16,3.12,2.81c.75,2.86,1.6,5.68,2.35,8.54.24.9.61,1.32,1.62,1.26,1.53-.1,3.07,0,4.81,0,.7-2.49,1.39-5,2.1-7.46.3-1,.6-2.07,1-3.09a2.8,2.8,0,0,1,2.84-2,2.56,2.56,0,0,1,2.65,2c.85,3.05,1.71,6.12,2.41,9.21.26,1.15.76,1.46,1.85,1.4a39.39,39.39,0,0,1,4.61,0c.48,0,.94.54,1.4.84-.48.28-1,.78-1.46.8-1.76.1-3.52,0-5.51,0a15.39,15.39,0,0,0,.6,2.66,1.88,1.88,0,0,0,1.28.95c1.24.14,2.51,0,3.75.09.46,0,.89.49,1.33.75-.45.33-.88.9-1.36,1-1.35.13-2.72,0-4.3,0,.39,1.7.77,3.26,1.1,4.84a3.72,3.72,0,0,1,.19,2,3.4,3.4,0,0,1-1.73,1.9,2.35,2.35,0,0,1-2-1.13,43.44,43.44,0,0,1-1.65-6.24c-.21-1-.59-1.44-1.68-1.39C81.21,371.08,79.44,371,77.61,371Zm5.49-5.29c-4.77-.3-4.07-.76-4.85,3.35h5.59Zm-20.94,0c-.22,1.05-.46,2.13-.72,3.35h5.61C66.24,365,67,365.41,62.16,365.74Zm8.15-.11c.07,3,.54,3.66,2.68,3.58,1.36,0,2-1.2,1.89-3.58Zm12.37-1.86-1.3-5.65-.37.05c-.49,1.83-1,3.67-1.48,5.6ZM63.88,358c-.42,2-.82,3.84-1.23,5.77h3.1c-.5-1.88-1-3.63-1.44-5.37C64.29,358.27,64.16,358.21,63.88,358Zm7.65,13.16c.33,1.16.62,2.2.91,3.24h.33l.93-3.25Z"/><path class="cls-3" d="M211.45,286.22c2.84.38,5.47.75,8.12,1.07,1.29.15,1.83.7,1.47,2a21.5,21.5,0,0,0-.66,3.17c-.17,1.57-1,1.53-2.26,1.27-2.77-.55-5.57-1-8.37-1.27a7.26,7.26,0,0,0-3.34.54c-.81.31-1.9,1-2,1.72a3.61,3.61,0,0,0,1.08,2.66,11.64,11.64,0,0,0,3.06,1.8c2.39,1.18,4.89,2.17,7.19,3.5,3.76,2.19,5.35,5.57,4.53,9.63a9,9,0,0,1-7.23,7.32c-1.39.33-1.81.88-1.61,2.15a1,1,0,0,1,0,.17c0,3.31-.61,3.86-3.91,3.17a2.12,2.12,0,0,1-1.16-1.5,18.29,18.29,0,0,1-.06-3.23c-2.12-.33-4.12-.71-6.14-.93-1.34-.16-1.59-.88-1.36-2s.49-2.1.66-3.17c.23-1.36.89-1.62,2.17-1.21a18,18,0,0,0,9.24.87c1.18-.24,2.41-.46,2.66-1.95a2.75,2.75,0,0,0-1.83-3.12c-2.42-1.12-4.9-2.12-7.28-3.31-3.22-1.62-6.11-3.6-6.71-7.57-.81-5.34,1.76-9.51,6.95-10.89,1.46-.38,1.83-1,1.65-2.32a3,3,0,0,1,0-.52c0-2.83,0-2.83,2.82-2.83,2.32,0,2.32,0,2.33,2.4Z"/><path class="cls-3" d="M422.15,245c1.27-1.16,2.37-2.14,3.45-3.15s2.1-1.74,3.41-.57c.93.83.62,2-.79,3.32-1.77,1.61-3.6,3.15-5.31,4.82a3.27,3.27,0,0,0-.91,2c-.1,3,0,5.92-.05,8.88,0,1.31-.43,2.37-1.88,2.64a2.08,2.08,0,0,1-2.52-2.25c-.05-2,0-4,0-6.38-2,1.82-3.78,3.4-5.57,4.93-.45.4-1.07.92-1.57.88s-1.57-.54-1.71-1a2.64,2.64,0,0,1,.48-2.22,49.33,49.33,0,0,1,6.05-5.52c2.27-1.66,2.74-3.65,2.11-6.4l-6,5.35c-.87.78-1.8,1.07-2.72.17s-.75-2.05.24-2.95c2.53-2.3,5.11-4.54,7.56-6.92a3.85,3.85,0,0,0,1.08-2.43c.1-4.43.05-8.86.05-13.53a27.73,27.73,0,0,0-9.15,6.92C405.21,235.1,403.13,239,404,244c.25,1.44-.65,2.23-2,2.42s-2-.65-2.24-1.94c-1-4.92.44-9.27,3.28-13.16a32,32,0,0,1,15.22-11.63c2.27-.82,3.7.11,3.72,2.53,0,4.32,0,8.64,0,13.37l2.46-2.14c.51-.45,1-.94,1.53-1.35a1.82,1.82,0,0,1,2.73.16,1.72,1.72,0,0,1-.21,2.59c-1.4,1.33-2.85,2.61-4.28,3.92C421.63,241.08,421.63,241.09,422.15,245Z"/><path class="cls-3" d="M349.66,319.35c0,1.23,0,2.58,0,3.93,0,1-.3,1.91-1.47,1.9s-1.44-.9-1.42-1.92c0-1.31,0-2.61,0-4l-4.42-.43a7.11,7.11,0,0,1-6.49-5.38c-.67-3.27.5-5.77,3.56-7.56.53-.31,1.08-.6,1.76-1l-2.41-1c-3.2-1.44-4.79-3.75-4.6-6.67.24-3.64,2.27-6.58,5.52-7.41a66.62,66.62,0,0,1,7.08-1c0-1.72,0-3.52,0-5.33,0-1,.27-1.9,1.44-1.9s1.45.92,1.46,1.92V289c1.74,0,3.27,0,4.8,0,2.73,0,3.57.83,3.59,3.59,0,6.09,0,12.18,0,18.28,0,1.65,0,3.3,0,4.95-.09,2.34-.94,3.16-3.26,3.23-1.59.06-3.18.06-4.77.09C350,319.15,349.91,319.2,349.66,319.35Zm-3-26.74c-5,0-7.4,1.81-7.31,5.39.08,3.29,2.76,5,7.31,4.68Zm3,10.33a24.57,24.57,0,0,1,2.61,0c1.28.14,1.69-.36,1.63-1.63-.1-2,0-4,0-5.95,0-3.14-.11-3.27-3.2-2.85a1.43,1.43,0,0,0-1,1C349.64,296.55,349.67,299.6,349.67,302.94Zm-3,12.37v-8.88c-3.77-.18-6,1.53-6,4.57S342.57,315.38,346.65,315.31Zm3.15-8.91v9.18c1,0,1.83-.06,2.67,0,1.15.1,1.48-.41,1.43-1.49-.07-1.53,0-3.07,0-4.6,0-3.62,0-3.62-3.65-3.28A1.71,1.71,0,0,0,349.8,306.4Z"/><path class="cls-3" d="M157.85,315.9V304.22q0-7.26,0-14.52a12.48,12.48,0,0,1,0-1.37,2.69,2.69,0,0,1,2.52-2.71c1.44,0,2.45,1.17,2.46,2.92q0,14.79,0,29.56c0,1.87-.87,3-2.57,3-5.86,0-11.74.12-17.57-.32-6-.44-11-6-11.28-12-.19-4.49-.15-9-.13-13.49,0-2,1-2.94,2.59-2.87s2.31,1.07,2.32,3c0,3.82,0,7.64,0,11.45,0,5.72,3.55,9.25,9.26,9.29,3.87,0,7.75,0,11.62,0A4.56,4.56,0,0,0,157.85,315.9Z"/><path class="cls-3" d="M124.15,290.87c0,4.7,0,9.36,0,14,0,4.1,0,8.2,0,12.3,0,.67.11,1.53-.24,2-.6.77-1.54,1.79-2.31,1.77s-1.68-1.05-2.32-1.81c-.29-.35-.13-1.1-.13-1.66q0-14.1,0-28.19c0-2.86.81-3.72,3.61-3.69,5.52.07,11.06-.08,16.55.35,6,.46,11,6,11.26,12.05.19,4.49.15,9,.13,13.49,0,1.93-.88,2.85-2.43,2.86s-2.47-1-2.48-3c0-3.81-.05-7.63,0-11.44a8.8,8.8,0,0,0-9.29-9.31c-3.92.14-7.85,0-11.78.06A2.84,2.84,0,0,0,124.15,290.87Z"/><path class="cls-3" d="M142.7,353.74c0,3.24,0,6.48,0,9.72a2,2,0,0,0,.88,1.24c.93.65,1.95,1.17,2.91,1.78a9,9,0,0,1-2.16,16.16c-1.64.52-2.21,1.26-2,2.86a11.91,11.91,0,0,1,0,1.81H139.3v-3.84c-1.58-.29-3-.56-4.36-.8a2,2,0,0,1-1.93-2.61,17.68,17.68,0,0,0,0-2.42l6.37,2.08c0-4.21,0-8,0-11.69,0-.36-.55-.78-.93-1-1.28-.85-2.64-1.57-3.88-2.47a7.58,7.58,0,0,1-3.35-7.39,7.49,7.49,0,0,1,5.41-6.61c1.78-.55,2.32-1.45,2.07-3.13a6.76,6.76,0,0,1,0-1.19c0-2.37,1.13-3.23,3.32-2.41a2.1,2.1,0,0,1,.88,1.59c.22,3,.18,3,3,3.61.55.12,1.1.27,1.64.44,3.43,1.08,4.19,2.39,3.35,5.82-.29,1.21-.91.89-1.77.48-2-1-4-1.74-6-2.59Zm-3.92,0c-2.21.56-3.23,1.71-3.31,3.77a4.88,4.88,0,0,0,3.31,4.85Zm4.1,15.6v9.24a4,4,0,0,0,3.09-3.8C146.15,372.54,145.27,370.77,142.88,369.38Z"/><path class="cls-3" d="M294.48,306.42c0-3.64.08-7.1,0-10.55-.05-1.62.4-2.2,2.09-2.13,3.5.15,3.07-.35,3.08,3.14,0,8.54,0,17.08,0,25.62,0,1.53-.35,2.17-2,2.07-3.23-.2-6.49-.08-9.71-.4s-6-1.9-7.12-5.24a9.27,9.27,0,0,1,2-9.82,2.62,2.62,0,0,0,.66-3.25c-1.36-3.36-2.6-6.78-3.85-10.18-.62-1.68-.46-1.88,1.3-1.91,3.34,0,3.34,0,4.48,3.09,1,2.72,2,5.42,2.93,8.17a1.73,1.73,0,0,0,2.08,1.42C291.71,306.34,293,306.42,294.48,306.42Zm-.07,3.9a47.17,47.17,0,0,0-6.21,1c-2,.58-2.9,2.5-2.73,4.61a3.9,3.9,0,0,0,3.35,3.94,52.7,52.7,0,0,0,5.59.45Z"/><path class="cls-3" d="M272.58,292.86c0-3.19.05-6.07,0-8.95,0-1.28.25-1.83,1.68-1.78,3.23.14,2.8-.26,2.8,2.87q0,13.32,0,26.62c0,1,.34,2.12-1.39,2.05-3-.11-3.17.23-3-2,0-.08-.09-.16-.21-.37a8.66,8.66,0,0,1-7.19,2.78,9.09,9.09,0,0,1-8.32-6.3,13.75,13.75,0,0,1,1.49-13.3A9.91,9.91,0,0,1,272.58,292.86Zm.46,9.36c-.65-1.65-1-3.48-2-4.91-2.45-3.62-7.24-3.44-9.68.19a8.89,8.89,0,0,0,.06,9.77,5.67,5.67,0,0,0,9.17.71A10.42,10.42,0,0,0,273,302.22Z"/><path class="cls-3" d="M265.73,247.69c-4.09,1.38-6.86.7-8.6-2-1.94-3-1.6-8.05.69-10.55a6.67,6.67,0,0,1,11,1.67,14.77,14.77,0,0,1-.29,13c-1.37,2.79-3.85,4.06-6.77,4.63-.83.16-1.67.29-2.51.45s-1.74.81-1.92-.41c-.14-1-.67-2.5,1.2-2.84,1.28-.24,2.55-.55,3.81-.9A4.73,4.73,0,0,0,265.73,247.69Zm-6-7c.18.9.29,1.62.48,2.33a2.69,2.69,0,0,0,2.83,2.19,2.45,2.45,0,0,0,2.57-2.26,14.16,14.16,0,0,0-.56-5.06,3,3,0,0,0-2.35-1.43,3.25,3.25,0,0,0-2.21,1.47A9.09,9.09,0,0,0,259.76,240.69Z"/><path class="cls-3" d="M295.67,247.62c-2.61,1.46-5.2,1.76-7.6-.07-2.89-2.2-3.23-5.37-2.65-8.65.75-4.23,4.86-7.42,10.32-4.88,0-1.58.1-3,0-4.45-.13-1.61.62-1.85,2-1.88s1.94.5,1.92,2c-.08,5.58,0,11.16-.06,16.74,0,.66-.25,1.79-.59,1.87a7.76,7.76,0,0,1-2.79-.11C296,248.15,295.84,247.8,295.67,247.62Zm.07-6.92c0-2.66-1.12-4.21-3.1-4.31s-3.11,1.29-3.49,3.88c0,.17-.06.34-.07.51-.13,3,1.79,5,4.17,4.46C294.89,244.85,295.75,243.28,295.74,240.7Z"/><path class="cls-3" d="M277.63,239.57c-.91,2.62-1.73,5-2.55,7.37-.49,1.41-2.62,2.24-3.8,1.39A1.43,1.43,0,0,1,271,247c2-5.1,4-10.22,6.24-15.25a8.1,8.1,0,0,1,4.73-4.44c.75-.27,1.56-.5,1.76.53s1.32,2-.25,2.8a9.4,9.4,0,0,0-1.45.89c-2.11,1.65-2.36,2.6-1.37,5.05,1.29,3.2,2.63,6.39,3.83,9.63.24.63.23,1.84-.15,2.11-1,.73-3.15.12-3.52-.83-.93-2.37-1.8-4.77-2.7-7.16A6,6,0,0,0,277.63,239.57Z"/><path class="cls-3" d="M471.41,111.67a30.79,30.79,0,0,1-4.22-.06c-.68-.1-1.75-.71-1.82-1.22-.18-1.2.92-1.34,1.88-1.35h4v-4.18a28.89,28.89,0,0,1-4.16-.06c-.66-.09-1.24-.81-1.86-1.24.62-.43,1.21-1.14,1.88-1.24a27.8,27.8,0,0,1,4.09-.06c.16-1.66.29-3.17.44-4.69a2.63,2.63,0,0,1,2.48-2.6c6.65-.52,13.33-.87,19.9.46a9.15,9.15,0,0,1,6.44,5.65,1.76,1.76,0,0,0,1.94,1.2,31.77,31.77,0,0,1,4.78,0c.62.07,1.16.78,1.75,1.19-.61.45-1.18,1.23-1.82,1.29-1.8.18-3.62.06-5.52.06V109h5.29c.95,0,2,.07,2,1.29s-1,1.34-2,1.35c-1.65,0-3.31-.06-5,0a1.93,1.93,0,0,0-1.44.77c-2.12,4.32-5.88,6-10.35,6.41-3.17.27-6.37.21-9.55.29-.61,0-1.22,0-2,0,0,2,0,3.82,0,5.62,0,2.74,0,5.47-.13,8.2a3.47,3.47,0,0,1-3.33,3.29,3.41,3.41,0,0,1-3.53-3,14.48,14.48,0,0,1-.25-2.54c0-5.7,0-11.39,0-17.09ZM494.76,105h-16v4h16Zm-16-2.85H493c-4.37-3.22-9.35-2.1-14.26-2.38Zm.08,9.59c-.32,2.29-.32,2.32,1.73,2.29,2.38,0,4.77-.08,7.15-.24a7.69,7.69,0,0,0,5.22-2Z"/><path class="cls-3" d="M843.28,183.2c0,2.32,0,4.46,0,6.61,0,.91-.06,1.81-.15,2.72-.11,1.21-.28,2.48-1.7,2.85a3.75,3.75,0,0,1-4.19-1.14,34.17,34.17,0,0,1-4.14-6c-1.94-4.17-4.87-5.88-9.4-5a23.76,23.76,0,0,1-4.07,0c0,2.68,0,5.17,0,7.66a7.44,7.44,0,0,1-.3,2.86,3.72,3.72,0,0,1-2,1.71A1.84,1.84,0,0,1,815,194a8.37,8.37,0,0,1-.33-2.34c0-2.73,0-5.47,0-8.48a30.2,30.2,0,0,1-3.57,0c-1.41-.18-3.81.91-3.82-1.51,0-2.58,2.47-1.37,3.91-1.59a23.18,23.18,0,0,1,3.35,0v-5.78c-1.73,0-3.42,0-5.12,0-1.15,0-2.16-.29-2.22-1.56-.07-1.44,1.07-1.71,2.24-1.72,1.65,0,3.3,0,5.23,0,0-1.82,0-3.55,0-5.29a23.3,23.3,0,0,1,.09-2.9,3.07,3.07,0,0,1,2.35-2.83,3.13,3.13,0,0,1,3.6,1.29c1.8,2.69,3.68,5.34,5.35,8.11a3.09,3.09,0,0,0,3.17,1.65c3-.11,6,0,9.26,0,0-2.21,0-4.24,0-6.28,0-.85,0-1.7.09-2.55.11-1.26.62-2.18,2-2.28a2,2,0,0,1,2.47,2c.18,2.21.18,4.43.24,6.64,0,.74,0,1.47,0,2.49,1.49,0,2.89,0,4.28,0a4.09,4.09,0,0,1,1.84.15c.58.35,1.43,1.25,1.3,1.59a2.56,2.56,0,0,1-1.7,1.47,54.35,54.35,0,0,1-5.59.06v5.79c1.78,0,3.53,0,5.28,0,1.16,0,2.12.3,2.09,1.64s-.95,1.54-2,1.52C847,183.19,845.23,183.2,843.28,183.2Zm-13.93-8.88c1.23,1.88,2.26,3.5,3.36,5.08a1.65,1.65,0,0,0,1.08.62c1.46.07,2.93,0,4.51,0v-5.73ZM827.6,180c-.85-1.32-1.51-2.36-2.19-3.4-1.64-2.53-2.62-2.88-5.66-2V180Zm7.65,3.3,3,4.52v-4.52Z"/><path class="cls-3" d="M481,45.66h13.37c.74,0,1.48,0,2.22,0a2.39,2.39,0,0,1,.16,4.77,32.48,32.48,0,0,1-3.42.05H479.83V55.6c.62,0,1.22.08,1.82.08h13.51c.34,0,.68,0,1,0,1.77.1,2.91,1.11,2.87,2.53s-1.12,2.33-2.84,2.34c-4.32,0-8.65,0-13,0h-1.86c.75,4.29,5.93,8.84,10.51,9.47a12.18,12.18,0,0,0,10.21-3.16l.79-.67c1.53-1.2,2.74-1.24,3.76-.11s.83,2.43-.48,3.76a17.24,17.24,0,0,1-23.9.75,19.75,19.75,0,0,1-5.72-8.36,2.18,2.18,0,0,0-2.61-1.71,33.8,33.8,0,0,1-4.27,0c-1.73-.08-2.72-1-2.69-2.44s1.08-2.36,2.77-2.42,3.27,0,5,0V50.52c-1.52,0-3.09,0-4.66,0-1.93,0-3.09-.94-3.1-2.42s1.07-2.39,3-2.43a31.26,31.26,0,0,1,3.75,0c1.61.18,2.37-.43,3-1.95a19.51,19.51,0,0,1,10.13-10.8,17.22,17.22,0,0,1,19.44,3.88c1.17,1.27,1.27,2.59.29,3.64s-2.24,1.12-3.63-.1c-2.13-1.87-4.38-3.44-7.26-3.85-5.5-.79-9.59,1.55-12.73,5.86C482.33,43.27,481.83,44.3,481,45.66Z"/><path class="cls-3" d="M751.43,186.72c-1.91,0-3.55,0-5.2,0-1.33,0-2.4-.46-2.42-2s1.06-2.06,2.36-2.11c1.81-.06,3.61,0,5.61,0-.15-1.06-.26-1.88-.4-2.87-1.72,0-3.37,0-5,0s-2.78-.89-2.77-2.15,1-2.05,2.8-2.08c1.17,0,2.34,0,3.61,0-.39-1.94-.79-3.64-1-5.37-1.63-11,7.39-15.29,15.29-14.06,6.08.95,9.16,4.1,10.2,10.21a2.7,2.7,0,0,1-2.13,3.33,2.58,2.58,0,0,1-3.17-2.1c-.21-.82-.26-1.69-.46-2.51-.9-3.67-4.08-5.47-8.38-4.78a7,7,0,0,0-6,7.49c.21,2.2.77,4.35,1.13,6.54.16,1,.67,1.28,1.63,1.26,2.34-.05,4.68,0,7,0,1.86,0,2.71.72,2.71,2.12s-.94,2.1-2.73,2.12c-2.33,0-4.66,0-7.1,0l.32,2.86h3.34c1.2,0,2.39,0,3.59,0,1.73.05,2.87.9,2.74,2.15-.15,1.56-1.25,2-2.66,2-2,0-4.11,0-6.15,0a1.86,1.86,0,0,0-2,1.16,53,53,0,0,1-3.06,4.69,30.76,30.76,0,0,1,4,0c3,.4,5.95.91,8.91,1.45a14.21,14.21,0,0,0,8.47-1.11c2.23-1,4.26.32,3.87,2.49a3.37,3.37,0,0,1-1.65,2.1c-3.9,1.84-7.95,2.56-12.23,1.23a64.54,64.54,0,0,0-6.46-1.54c-4-.78-7.62.46-11.27,1.84a3.88,3.88,0,0,1-2.55.15,2.14,2.14,0,0,1-.44-3.83,11,11,0,0,1,1.8-1A10.15,10.15,0,0,0,751.43,186.72Z"/><path class="cls-3" d="M695.58,160.29l2.48.7a23.34,23.34,0,0,1,1-3.48c.24-.52,1-.78,1.57-1.15.3.62,1,1.42.84,1.85-1.11,2.72-.62,4.72,1.63,6.78,1.21,1.1,1.73,3.13,2.16,4.84a2.48,2.48,0,0,1-1.76,3.1c-1.53.46-2.48-.32-3.16-1.62-.41-.8-.88-1.56-1.52-2.67-1.83,6.94-3.57,13.54-5.37,20.33a5.73,5.73,0,0,0,5.24-2.78,23.16,23.16,0,0,0,1.67-3.52c.77-1.79,1.63-2.38,3-2a3,3,0,0,1,2,3.49,11.83,11.83,0,0,1-10.89,10.25c-.79.05-1.58,0-2.48,0a21,21,0,0,1-1,3.66c-.28.61-1.16.94-1.77,1.4a5.41,5.41,0,0,1-.74-2,18.52,18.52,0,0,1,.79-3.26l-2.37-.95c-.41,1.42-.8,2.7-1.13,4-.25,1-.57,2-1.82,1.75s-1.11-1.36-.75-2.34c0-.11,0-.23.08-.34a7,7,0,0,0-1.09-7.49c-4.78-6.22-4.39-17,.2-23.29a12.21,12.21,0,0,1,9-5.21,1.67,1.67,0,0,0,1.78-1.58,4,4,0,0,1,.44-1.63,7.41,7.41,0,0,1,1.56-1.24c.34.62.92,1.23,1,1.87A9,9,0,0,1,695.58,160.29Zm-4.79,28.42q3-11.18,5.85-22.17c-2.15-1.32-2.41-1.24-3,.9-1.62,6.14-3.17,12.3-4.88,18.41C688.28,187.66,688.91,188.37,690.79,188.71Zm-4.26-4.55,4.8-18.25C685.93,167.37,683.66,175.86,686.53,184.16Z"/><path class="cls-3" d="M556.2,180.39h11.37c2.46,0,3.57.7,3.52,2.2s-1.12,2.16-3.63,2.16c-4.9,0-9.8.05-14.69,0a2,2,0,0,0-2.24,1.55c-1.63,4.5,1.17,8.84,5.93,8.81a36.76,36.76,0,0,0,6.33-1.08c.6-.12,1.3-.68,1.74-.5a4.39,4.39,0,0,1,2.24,1.64,2.23,2.23,0,0,1-.75,2.07c-4.44,2.21-9.1,3.36-13.95,1.38s-7.18-7-6-12.23l.37-1.61c-1.34,0-2.57,0-3.79,0-1.79-.07-2.74-.84-2.77-2.16s1-2.16,2.85-2.19h1.88c4.58,0,4.58,0,8.27-3.53a13.33,13.33,0,0,0-1.34-.14c-3,0-5.93,0-8.89,0-1.74,0-2.74-.78-2.76-2.09s.93-2.19,2.68-2.21c4.56-.05,9.11,0,13.67,0,3,0,4.88-1.58,5.67-4.68a5.81,5.81,0,0,0-3.09-6.58c-2.89-1.41-5.84-1.11-8.76,0-.8.3-1.63.89-2.38.81a3.16,3.16,0,0,1-2.24-1.31,2.42,2.42,0,0,1,.62-2.31c4.17-2.55,10.83-3.7,15.54-.62s6.09,8.31,3.6,13.43c-.16.34-.3.69-.56,1.28,1.37,0,2.55,0,3.73,0,1.77.07,2.73.88,2.72,2.19s-1,2.1-2.74,2.13a29.06,29.06,0,0,1-4.94,0C560.08,176.13,558.36,178.56,556.2,180.39Z"/><path class="cls-3" d="M613.24,51c-.39-2.15-.8-4-1.07-5.92-1-7.17,3.25-12.1,9.1-13.27,5.09-1,9.89-.54,13.7,3.51a11.12,11.12,0,0,1,2.8,7,2.49,2.49,0,0,1-2.21,2.79,2.54,2.54,0,0,1-3.07-1.79,8.73,8.73,0,0,1-.39-1.84c-.63-4.1-3.57-6.36-7.71-5.9s-7.17,3.65-6.79,7.65c.21,2.19.77,4.35,1.13,6.53.16,1,.62,1.31,1.61,1.28,2.39-.06,4.78,0,7.17,0,1.43,0,2.5.44,2.56,2.07,0,1.31-.88,2.11-2.53,2.14-2.39,0-4.77,0-7.34,0,.86,5-.19,9.33-4.47,13.06,5.81-.77,10.78,1.18,15.93,1.52,1.73.12,3.53-.66,5.29-1.06.5-.11.95-.4,1.44-.52a2.56,2.56,0,0,1,1.71,4.82c-3.94,1.72-8,2.62-12.24,1.27-1-.31-2-.44-3-.77-5.12-1.71-10.06-1.09-14.92,1a3.63,3.63,0,0,1-2.55.13,2.15,2.15,0,0,1-.41-3.84,5.46,5.46,0,0,1,1.18-.67c5.6-2.3,8-7.78,6.3-15-1.66,0-3.37,0-5.06,0-1.9-.07-3.07-1.44-2.32-2.81a3.27,3.27,0,0,1,2.09-1.36A24.44,24.44,0,0,1,613.24,51Z"/><path class="cls-3" d="M558.8,52.42c3.32,1.79,4.32,5.08,5.25,8.46,1,3.6,2.24,7.13,3.15,10.75a3.71,3.71,0,0,1-.81,2.84,2,2,0,0,1-3.06.09,8.19,8.19,0,0,1-2-3.06c-1.14-3.56-2.09-7.18-3-10.8-1.26-4.77-3.32-6.4-8.24-6.41-1.77,0-3.54,0-5.3,0-1.42,0-2.46-.54-2.56-2.12-.09-1.38.87-2.22,2.58-2.29,3.13-.12,6.27-.06,9.37-.38a6.13,6.13,0,0,0,5.21-4.13h-7.82c-2.9,0-5.81,0-8.71,0-1.66,0-2.66-1-2.66-2.27s.88-2.19,2.65-2.21c4.9,0,9.8,0,14.7,0h2a4.59,4.59,0,0,0-3-3.91,16,16,0,0,0-4.76-1.08c-2.67-.18-5.35,0-8,0a9.61,9.61,0,0,1-1.2,0c-1.3-.16-2.31-.69-2.38-2.18-.06-1.29.93-2.17,2.5-2.2,2.1,0,4.21,0,6.32,0h19.31c1.43,0,2.45.56,2.6,2.1.12,1.32-.92,2.23-2.6,2.29-1.47.06-2.94,0-4.46,0,.62,1.71,1.19,3.29,1.85,5.09,1,0,2,0,3.1,0a2,2,0,0,1,2.1,2c.1,1.28-.72,2.39-1.82,2.24-3.3-.46-4.66,1.5-6.17,3.88C562,50.4,560.29,51.22,558.8,52.42Z"/><path class="cls-3" d="M692.49,47.52c1.43-2,2.79-3.87,4.13-5.77,2.07-2.92,4.09-5.88,6.2-8.77,1.33-1.84,3.25-2,4.42-.44,1,1.33.48,2.57-.36,3.75q-4.05,5.7-8.09,11.41c-.35.49-.64,1-1.11,1.77,2.76,0,5.24,0,7.73,0,1.23,0,2.65-.07,2.68,1.59s-1.49,1.69-2.76,1.7h-10v4.73h9.38a4,4,0,0,1,1.84.12,7.44,7.44,0,0,1,1.57,1.68c-.58.51-1.15,1.42-1.76,1.45-3,.15-5.91.07-8.87.08h-2.27c0,3.23,0,6.34,0,9.45a16.69,16.69,0,0,1-.12,2.55,2.44,2.44,0,0,1-2.54,2.29,2.38,2.38,0,0,1-2.51-2.3c-.15-1.58-.12-3.18-.14-4.77,0-2.33,0-4.66,0-7.22h-8.26a15.5,15.5,0,0,1-3.41-.07,2.74,2.74,0,0,1-1.85-1.48c-.27-1.13.69-1.71,1.78-1.75,1.59-.06,3.19,0,4.78,0h6.81V52.75c-3.47,0-6.87,0-10.28,0-1.31,0-3.13.35-3.12-1.66s1.83-1.59,3.14-1.6c2.48,0,5,0,7.8,0-.5-.76-.81-1.26-1.16-1.74L677.9,36.64a8.67,8.67,0,0,1-.93-1.42,2.46,2.46,0,0,1,.82-3.32,2.26,2.26,0,0,1,3.23.34c1.13,1.27,2.12,2.67,3.14,4C686.9,40,689.63,43.66,692.49,47.52Z"/><path class="cls-3" d="M833.88,110h6.72c.46-2,.9-3.88,1.35-5.8a9,9,0,0,1,.49-1.63,2,2,0,0,1,2.45-1.3,1.91,1.91,0,0,1,1.54,2.31c-.37,2.12-.82,4.22-1.26,6.48a23.26,23.26,0,0,1,3.24,0c.81.11,2.27.62,2.24.81-.16,1.44-1.43.78-2.29.94a3.85,3.85,0,0,1-.68,0c-3.44,0-3.44,0-3.78,3.64,1.82,0,3.64-.06,5.45,0,.49,0,.95.55,1.42.85-.48.28-.95.77-1.46.8a44.81,44.81,0,0,1-4.78,0c-1,0-1.37.33-1.59,1.28-.68,2.93-1.48,5.83-2.21,8.75-.39,1.54-1.25,2.58-2.93,2.58a3,3,0,0,1-3-2.55c-.94-3.32-1.87-6.64-2.82-10-1.57,0-3.05.09-4.52,0-1.19-.09-1.67.32-2,1.47-.7,2.81-1.55,5.58-2.35,8.36a7.76,7.76,0,0,1-.33,1A2.78,2.78,0,0,1,820,129.8a2.49,2.49,0,0,1-2.55-1.89c-.87-3.11-1.73-6.23-2.47-9.37-.25-1.05-.68-1.4-1.73-1.35a44.83,44.83,0,0,1-4.78,0c-.45,0-.88-.49-1.33-.75.45-.32.88-.88,1.34-.91,1.81-.1,3.63,0,5.42,0,.07-.21.15-.31.13-.41-.51-3.25-.51-3.25-3.74-3.25a8.31,8.31,0,0,1-1.87,0,4.52,4.52,0,0,1-1.28-.81c.41-.31.81-.85,1.25-.89,1.41-.11,2.84,0,4.42,0-.4-1.73-.8-3.3-1.12-4.89a4,4,0,0,1-.15-2.17,3.1,3.1,0,0,1,1.75-1.7,2.26,2.26,0,0,1,2,1.06,44,44,0,0,1,1.68,6.23c.22,1.08.58,1.55,1.75,1.49,1.75-.1,3.52,0,5.28,0,.65-2.19,1.27-4.24,1.85-6.31a3.11,3.11,0,0,1,3.19-2.56c1.72,0,2.65,1,3.08,2.66C832.64,105.86,833.26,107.86,833.88,110Zm.68,2c.38,3.49.75,3.92,3.92,3.51,2.17-.28.88-2.32,1.87-3.51Zm-11.17.08h-5.64c.28,1.26.53,2.33.77,3.36C823.38,115.54,822.45,116.14,823.39,112Zm3.17,3.38h4.76c-.21-2.89-.55-3.5-1.94-3.55C827.19,111.76,827.11,111.85,826.56,115.39ZM837.39,123l.33,0c.41-1.84.81-3.69,1.25-5.65h-3.15C836.36,119.26,836.87,121.13,837.39,123Zm-15.31-5.69h-3.14c.44,2,.85,3.81,1.25,5.65l.34,0Zm7.11-10.58-.37,0c-.29,1-.59,2.1-.92,3.24h2.15C829.74,108.78,829.46,107.76,829.19,106.73Z"/><path class="cls-3" d="M824,47.82c.66-2.27,1.27-4.34,1.88-6.41A3.06,3.06,0,0,1,829,39,3,3,0,0,1,832,41.39l1.86,6.43c2,0,4,0,6-.06.34,0,.83-.66,1-1.1.47-1.75.79-3.54,1.24-5.3s1.43-2.67,2.73-2.35,1.86,1.35,1.5,3.3c-.33,1.78-.8,3.54-1.25,5.51a40.05,40.05,0,0,1,4.12,0c.54.05,1,.61,1.55.93a7.38,7.38,0,0,1-1.49.79,6,6,0,0,1-1.53,0c-3.43,0-3.43,0-3.87,3.64,1.71,0,3.4-.07,5.08,0a5.89,5.89,0,0,1,1.82.79A5.39,5.39,0,0,1,849,55a25.5,25.5,0,0,1-4.1,0c-1.2-.07-1.79.23-2.06,1.56-.55,2.78-1.36,5.51-2.06,8.26-.4,1.55-1.16,2.78-3,2.79s-2.68-1.16-3.12-2.82c-.75-2.85-1.6-5.67-2.35-8.53-.23-.9-.61-1.32-1.62-1.26-1.53.09-3.07,0-4.8,0q-1.05,3.75-2.11,7.47c-.29,1-.6,2.07-1,3.09a2.8,2.8,0,0,1-2.84,2,2.56,2.56,0,0,1-2.65-2c-.85-3.06-1.71-6.12-2.41-9.21-.26-1.16-.76-1.46-1.84-1.4a39.38,39.38,0,0,1-4.61,0c-.49,0-.94-.55-1.41-.84.49-.28,1-.78,1.46-.81,1.76-.1,3.52,0,5.51,0a13.79,13.79,0,0,0-.6-2.65,1.85,1.85,0,0,0-1.28-1c-1.24-.14-2.5,0-3.75-.09-.46,0-.88-.49-1.32-.76.45-.33.88-.89,1.35-.94,1.35-.13,2.72,0,4.3,0-.39-1.69-.77-3.26-1.1-4.83a3.73,3.73,0,0,1-.19-2,3.47,3.47,0,0,1,1.73-1.9,2.38,2.38,0,0,1,2.06,1.13A45.83,45.83,0,0,1,817,46.46c.21,1,.58,1.44,1.67,1.39C820.39,47.75,822.15,47.82,824,47.82Zm-5.49,5.29c4.78.3,4.08.75,4.85-3.35h-5.59Zm20.94,0c.23-1,.46-2.12.72-3.34h-5.61C835.36,53.84,834.58,53.43,839.43,53.09Zm-8.15.11c-.06-3-.54-3.65-2.68-3.57-1.36,0-2,1.2-1.88,3.57Zm-12.36,1.87c.46,2,.88,3.83,1.29,5.65l.38,0c.48-1.83,1-3.67,1.48-5.6Zm18.79,5.8c.43-2,.82-3.83,1.23-5.76h-3.1c.5,1.88,1,3.63,1.44,5.37C837.31,60.57,837.44,60.63,837.71,60.87Zm-7.65-13.15-.9-3.24h-.33c-.3,1.05-.6,2.09-.94,3.25Z"/><path class="cls-3" d="M690.14,132.62c-2.84-.38-5.47-.76-8.12-1.07-1.29-.15-1.83-.71-1.47-2a19.2,19.2,0,0,0,.66-3.17c.18-1.57,1-1.53,2.26-1.27,2.77.55,5.57,1,8.38,1.27a7.49,7.49,0,0,0,3.33-.54c.81-.31,1.9-1,2-1.73a3.63,3.63,0,0,0-1.09-2.65,11.32,11.32,0,0,0-3.06-1.8c-2.39-1.18-4.88-2.17-7.18-3.5-3.77-2.19-5.35-5.57-4.54-9.63a9,9,0,0,1,7.23-7.32c1.4-.33,1.81-.88,1.61-2.15v-.17c0-3.31.61-3.86,3.92-3.17a2.17,2.17,0,0,1,1.16,1.5,19.28,19.28,0,0,1,0,3.23c2.13.33,4.13.71,6.14.93,1.35.15,1.59.88,1.37,2s-.5,2.1-.67,3.16c-.22,1.37-.89,1.63-2.17,1.21a18.12,18.12,0,0,0-9.23-.86c-1.19.24-2.42.46-2.67,2a2.74,2.74,0,0,0,1.83,3.11c2.42,1.13,4.9,2.13,7.28,3.32,3.23,1.62,6.12,3.6,6.72,7.57.81,5.34-1.76,9.51-7,10.89-1.46.38-1.83,1-1.64,2.32a4.34,4.34,0,0,1,0,.51c0,2.84,0,2.84-2.82,2.83-2.32,0-2.32,0-2.33-2.39Z"/><path class="cls-3" d="M479.45,173.82C478.18,175,477.08,176,476,177s-2.1,1.74-3.42.57c-.93-.83-.62-2,.79-3.31,1.77-1.61,3.6-3.15,5.31-4.82a3.22,3.22,0,0,0,.91-2c.1-3,0-5.92.05-8.88,0-1.31.43-2.37,1.88-2.65a2.09,2.09,0,0,1,2.52,2.26c0,2,0,4,0,6.38,2.05-1.82,3.79-3.4,5.57-4.94.46-.39,1.08-.91,1.58-.87s1.57.54,1.71,1a2.71,2.71,0,0,1-.48,2.22,50.83,50.83,0,0,1-6.05,5.52c-2.27,1.65-2.74,3.65-2.12,6.4l6-5.35c.87-.78,1.81-1.08,2.72-.17s.75,2-.24,2.94c-2.52,2.31-5.11,4.54-7.55,6.92a3.91,3.91,0,0,0-1.09,2.44c-.1,4.43-.05,8.86-.05,13.53a27.77,27.77,0,0,0,9.16-6.92c3.17-3.51,5.25-7.39,4.39-12.37-.26-1.45.64-2.23,2-2.42s2,.65,2.24,1.94c1,4.92-.44,9.27-3.27,13.16a32,32,0,0,1-15.22,11.63c-2.28.82-3.71-.11-3.72-2.54,0-4.31,0-8.63,0-13.37l-2.47,2.14c-.51.45-1,1-1.53,1.36a1.82,1.82,0,0,1-2.73-.16,1.72,1.72,0,0,1,.21-2.59c1.4-1.34,2.85-2.62,4.28-3.92C480,177.75,480,177.75,479.45,173.82Z"/><path class="cls-3" d="M551.94,99.49c0-1.23,0-2.58,0-3.94,0-1,.3-1.9,1.47-1.89s1.44.89,1.42,1.92c0,1.3,0,2.61,0,4l4.42.43a7.08,7.08,0,0,1,6.48,5.37c.67,3.28-.5,5.78-3.55,7.56-.54.32-1.09.6-1.77,1,.89.38,1.66.69,2.41,1,3.21,1.44,4.8,3.75,4.6,6.67-.24,3.64-2.27,6.58-5.52,7.4a64.25,64.25,0,0,1-7.07,1c0,1.71,0,3.52,0,5.33,0,1-.27,1.9-1.43,1.89s-1.46-.91-1.46-1.91c0-1.81,0-3.61,0-5.56-1.75,0-3.28,0-4.8,0-2.73,0-3.58-.83-3.59-3.59,0-6.09,0-12.18,0-18.28,0-1.65,0-3.3,0-4.95.09-2.34.93-3.16,3.25-3.24,1.59,0,3.19,0,4.78-.08A3.35,3.35,0,0,0,551.94,99.49Zm3,26.74c5,0,7.39-1.81,7.3-5.39-.08-3.29-2.75-5-7.3-4.68Zm-3-10.33a24.34,24.34,0,0,1-2.6,0c-1.28-.14-1.69.36-1.63,1.63.09,2,0,4,0,5.95,0,3.14.11,3.27,3.21,2.85a1.43,1.43,0,0,0,1-1C552,122.29,551.92,119.23,551.92,115.9Zm3-12.37v8.88c3.77.18,6-1.53,6-4.57S559,103.46,554.94,103.53Zm-3.15,8.91v-9.18c-1,0-1.83.06-2.66,0-1.16-.1-1.49.4-1.44,1.49.07,1.53,0,3.07,0,4.6,0,3.62,0,3.62,3.66,3.28A1.86,1.86,0,0,0,551.79,112.44Z"/><path class="cls-3" d="M743.74,102.94v11.68q0,7.26,0,14.52c0,.45,0,.91,0,1.36a2.72,2.72,0,0,1-2.53,2.72c-1.44,0-2.45-1.17-2.45-2.93q0-14.77,0-29.55c0-1.88.86-3,2.57-3,5.86,0,11.74-.12,17.57.32,6,.44,11,6,11.27,12,.19,4.49.15,9,.13,13.49,0,2-1,2.94-2.59,2.86s-2.31-1.07-2.32-3c0-3.81,0-7.63,0-11.44,0-5.72-3.54-9.25-9.26-9.29-3.87,0-7.74,0-11.62,0A4.56,4.56,0,0,0,743.74,102.94Z"/><path class="cls-3" d="M777.44,128v-14c0-4.1,0-8.2,0-12.3,0-.67-.11-1.53.25-2,.59-.77,1.53-1.78,2.3-1.76s1.68,1,2.32,1.81c.3.34.14,1.1.14,1.66v28.19c0,2.86-.82,3.72-3.62,3.69-5.52-.07-11.05.08-16.54-.35-6-.47-11-6-11.26-12.06-.19-4.49-.15-9-.14-13.49,0-1.92.89-2.84,2.44-2.85s2.46,1,2.47,3c0,3.81.05,7.63,0,11.44a8.81,8.81,0,0,0,9.29,9.31c3.92-.14,7.86-.05,11.79-.06A3.11,3.11,0,0,0,777.44,128Z"/><path class="cls-3" d="M758.9,65.1c0-3.24,0-6.48,0-9.72a2,2,0,0,0-.89-1.24c-.92-.65-2-1.17-2.91-1.78a8.5,8.5,0,0,1-4-9.1,8.48,8.48,0,0,1,6.17-7.07c1.63-.52,2.21-1.25,2-2.85a12,12,0,0,1,0-1.81h3.11v3.84c1.58.29,3,.56,4.37.8a2,2,0,0,1,1.92,2.61,17.68,17.68,0,0,0,0,2.42l-6.37-2.09c0,4.22,0,8,0,11.7,0,.36.54.78.93,1,1.27.85,2.64,1.57,3.87,2.47a7.88,7.88,0,0,1-2,14c-1.78.55-2.33,1.46-2.08,3.14a7.87,7.87,0,0,1,0,1.19c0,2.37-1.14,3.23-3.33,2.41-.44-.16-.83-1-.88-1.59-.22-3-.18-3-3-3.61-.56-.12-1.11-.27-1.65-.44-3.43-1.09-4.18-2.39-3.35-5.82.29-1.21.92-.89,1.77-.48,2,.94,4,1.74,6,2.59Zm3.91,0c2.21-.56,3.24-1.71,3.31-3.77a4.87,4.87,0,0,0-3.31-4.85Zm-4.09-15.6V40.22a4,4,0,0,0-3.09,3.8C755.44,46.3,756.32,48.07,758.72,49.46Z"/><path class="cls-3" d="M607.12,112.42c0,3.64-.08,7.1,0,10.55.05,1.62-.39,2.2-2.08,2.13-3.51-.15-3.08.34-3.08-3.14,0-8.54,0-17.08,0-25.62,0-1.53.35-2.17,2-2.07,3.23.2,6.49.08,9.7.4s6,1.89,7.12,5.24a9.25,9.25,0,0,1-2,9.81,2.62,2.62,0,0,0-.65,3.26c1.36,3.36,2.59,6.78,3.85,10.18.61,1.67.45,1.88-1.31,1.9-3.34,0-3.34,0-4.48-3.08-1-2.72-2-5.43-2.92-8.17a1.74,1.74,0,0,0-2.09-1.42C609.89,112.5,608.59,112.42,607.12,112.42Zm.06-3.9a47.17,47.17,0,0,0,6.21-1c2-.59,2.91-2.5,2.74-4.61A3.9,3.9,0,0,0,612.77,99a50,50,0,0,0-5.59-.45Z"/><path class="cls-3" d="M629,126c0,3.19,0,6.07,0,9,0,1.28-.25,1.83-1.69,1.77-3.22-.13-2.79.27-2.8-2.86q0-13.32,0-26.63c0-1-.34-2.11,1.39-2,3,.11,3.18-.24,3,2,0,.09.09.17.22.38a8.64,8.64,0,0,1,7.18-2.78,9.08,9.08,0,0,1,8.32,6.3,13.72,13.72,0,0,1-1.49,13.3A9.91,9.91,0,0,1,629,126Zm-.46-9.36c.65,1.65,1,3.48,2,4.91,2.45,3.62,7.24,3.44,9.67-.19a8.89,8.89,0,0,0-.06-9.77,5.67,5.67,0,0,0-9.17-.71A10.42,10.42,0,0,0,628.55,116.62Z"/><path class="cls-3" d="M635.87,171.15c4.09-1.38,6.85-.7,8.6,2,1.93,3,1.6,8-.7,10.54a6.66,6.66,0,0,1-11-1.66,14.76,14.76,0,0,1,.29-13c1.36-2.78,3.84-4.05,6.76-4.62.84-.16,1.68-.29,2.51-.45s1.74-.81,1.92.41c.15,1,.68,2.5-1.2,2.84-1.28.23-2.55.55-3.8.9A4.72,4.72,0,0,0,635.87,171.15Zm6,7c-.18-.9-.29-1.62-.48-2.33a2.69,2.69,0,0,0-2.83-2.19,2.46,2.46,0,0,0-2.57,2.26,14.11,14.11,0,0,0,.57,5.05,3,3,0,0,0,2.34,1.44,3.23,3.23,0,0,0,2.21-1.47A8.81,8.81,0,0,0,641.83,178.15Z"/><path class="cls-3" d="M605.92,171.22c2.61-1.46,5.2-1.76,7.6.07,2.89,2.2,3.24,5.37,2.66,8.65-.75,4.23-4.87,7.42-10.33,4.88,0,1.58-.09,3,0,4.45.14,1.61-.62,1.85-2,1.87s-1.94-.5-1.92-2c.08-5.58,0-11.16.06-16.75,0-.65.25-1.78.6-1.86a7.72,7.72,0,0,1,2.78.11C605.59,170.69,605.76,171,605.92,171.22Zm-.07,6.91c0,2.67,1.13,4.21,3.11,4.32s3.1-1.29,3.48-3.88c0-.17.06-.34.07-.51.13-3-1.79-5-4.17-4.46C606.71,174,605.85,175.56,605.85,178.13Z"/><path class="cls-3" d="M624,179.27c.91-2.63,1.73-5,2.56-7.37a2.74,2.74,0,0,1,3.79-1.39,1.4,1.4,0,0,1,.31,1.3c-2,5.1-4,10.22-6.23,15.25a8.08,8.08,0,0,1-4.73,4.43c-.76.28-1.56.5-1.77-.53s-1.32-2,.25-2.8a8.49,8.49,0,0,0,1.45-.88c2.11-1.65,2.36-2.6,1.37-5.05-1.29-3.21-2.63-6.4-3.83-9.63-.23-.63-.23-1.84.15-2.11,1-.73,3.16-.12,3.53.83.92,2.37,1.79,4.77,2.69,7.15C623.58,178.67,623.71,178.83,624,179.27Z"/><path class="cls-3" d="M844.64,307.17a29.25,29.25,0,0,1,4.22.06c.69.1,1.75.71,1.83,1.21.17,1.2-.92,1.35-1.89,1.35h-4V314a30.28,30.28,0,0,1,4.15.06c.66.1,1.24.82,1.86,1.25-.62.43-1.21,1.14-1.88,1.24a27.78,27.78,0,0,1-4.09.06c-.16,1.66-.29,3.17-.44,4.68a2.62,2.62,0,0,1-2.48,2.61c-6.65.51-13.32.87-19.9-.46-3-.61-5.16-2.81-6.44-5.65a1.76,1.76,0,0,0-1.94-1.2,31.63,31.63,0,0,1-4.77,0c-.62-.07-1.17-.78-1.75-1.2.6-.45,1.17-1.22,1.81-1.28,1.8-.18,3.62-.06,5.52-.06V309.8h-5.29c-1,0-2-.07-2-1.3s1-1.33,2-1.34c1.65,0,3.31.06,5,0a2,2,0,0,0,1.43-.77c2.12-4.32,5.88-6,10.35-6.41,3.17-.27,6.37-.21,9.55-.29h2c0-2,0-3.82,0-5.63,0-2.73,0-5.46.13-8.19a3.46,3.46,0,0,1,3.32-3.29,3.41,3.41,0,0,1,3.53,3,14.48,14.48,0,0,1,.25,2.54c0,5.7,0,11.39,0,17.09Zm-23.35,6.69h16v-4h-16Zm16,2.85H823c4.37,3.22,9.35,2.1,14.26,2.37Zm-.08-9.59c.32-2.29.32-2.32-1.73-2.29-2.38,0-4.77.08-7.14.24a7.7,7.7,0,0,0-5.23,2.05Z"/><path class="cls-3" d="M472.77,235.63c0-2.31,0-4.46,0-6.6,0-.91.07-1.82.15-2.72.11-1.21.28-2.49,1.7-2.85a3.75,3.75,0,0,1,4.19,1.14,33.65,33.65,0,0,1,4.14,6c1.94,4.16,4.87,5.87,9.4,5a23.76,23.76,0,0,1,4.07,0c0-2.68,0-5.18,0-7.67a7.22,7.22,0,0,1,.31-2.85,3.63,3.63,0,0,1,2-1.71,1.84,1.84,0,0,1,2.37,1.41,8.37,8.37,0,0,1,.33,2.34c0,2.73,0,5.46,0,8.48a30.2,30.2,0,0,1,3.57,0c1.41.18,3.81-.91,3.82,1.51,0,2.58-2.46,1.37-3.9,1.59a24.74,24.74,0,0,1-3.35,0v5.78c1.72,0,3.42,0,5.11,0,1.15,0,2.16.29,2.22,1.56.07,1.44-1.07,1.71-2.24,1.72-1.65,0-3.29,0-5.23,0,0,1.82,0,3.55,0,5.29a23.36,23.36,0,0,1-.09,2.9,3.07,3.07,0,0,1-2.35,2.83,3.13,3.13,0,0,1-3.6-1.29c-1.8-2.69-3.68-5.34-5.35-8.11a3.09,3.09,0,0,0-3.17-1.65c-3,.11-6,0-9.26,0,0,2.21,0,4.24,0,6.27,0,.86,0,1.71-.09,2.56-.1,1.26-.62,2.18-2,2.28a2,2,0,0,1-2.47-2c-.18-2.21-.18-4.43-.24-6.64,0-.74,0-1.47,0-2.49-1.49,0-2.88,0-4.28,0a4.09,4.09,0,0,1-1.84-.15c-.58-.35-1.42-1.25-1.3-1.59a2.56,2.56,0,0,1,1.7-1.47,54.27,54.27,0,0,1,5.59-.07v-5.78c-1.78,0-3.53,0-5.27,0-1.17,0-2.13-.31-2.1-1.64s1-1.54,2.05-1.52C469.07,235.65,470.82,235.63,472.77,235.63Zm13.93,8.89c-1.23-1.88-2.26-3.5-3.36-5.08a1.65,1.65,0,0,0-1.08-.62c-1.46-.07-2.93,0-4.51,0v5.73Zm1.75-5.65,2.19,3.39c1.64,2.54,2.62,2.89,5.66,2.05v-5.44Zm-7.65-3.3-3-4.52v4.52Z"/><path class="cls-3" d="M835,373.17H821.65c-.74,0-1.49,0-2.23,0a2.39,2.39,0,0,1-.16-4.77,32.48,32.48,0,0,1,3.42-.05h13.54v-5.07c-.62,0-1.22-.08-1.82-.08H820.9c-.35,0-.69,0-1,0-1.77-.1-2.91-1.11-2.86-2.54s1.12-2.32,2.83-2.34c4.33,0,8.66,0,13,0h1.86c-.75-4.29-5.93-8.85-10.51-9.47A12.18,12.18,0,0,0,814,351.94c-.26.23-.52.45-.79.66-1.53,1.21-2.74,1.25-3.76.11s-.82-2.42.48-3.75a17.25,17.25,0,0,1,23.91-.75,19.7,19.7,0,0,1,5.71,8.35,2.18,2.18,0,0,0,2.61,1.72,33.8,33.8,0,0,1,4.27,0c1.73.07,2.72,1,2.69,2.44s-1.08,2.36-2.77,2.42-3.27,0-5,0v5.16c1.52,0,3.09,0,4.66,0,1.93,0,3.09.94,3.1,2.42s-1.07,2.39-3.05,2.43a31.27,31.27,0,0,1-3.75,0c-1.61-.18-2.37.43-3,2a19.51,19.51,0,0,1-10.13,10.8A17.24,17.24,0,0,1,809.73,382c-1.17-1.28-1.27-2.59-.28-3.64s2.23-1.12,3.62.1c2.13,1.87,4.38,3.43,7.26,3.85,5.5.79,9.59-1.55,12.73-5.86C833.72,375.56,834.22,374.53,835,373.17Z"/><path class="cls-3" d="M564.62,232.12c1.91,0,3.55,0,5.2,0,1.33,0,2.4.46,2.42,2s-1,2.06-2.36,2.11c-1.81.07-3.61,0-5.61,0,.15,1,.27,1.88.4,2.86,1.73,0,3.37,0,5,0s2.78.89,2.77,2.15-1,2.05-2.79,2.08c-1.18,0-2.35,0-3.61,0,.38,1.94.79,3.64,1,5.37,1.63,11-7.39,15.28-15.28,14.05-6.09-.94-9.17-4.09-10.21-10.2a2.7,2.7,0,0,1,2.13-3.33,2.58,2.58,0,0,1,3.17,2.1c.22.82.26,1.69.46,2.51.9,3.67,4.08,5.47,8.39,4.78a7,7,0,0,0,6-7.5c-.21-2.19-.77-4.35-1.13-6.53-.16-1-.67-1.28-1.63-1.26-2.34,0-4.67,0-7,0-1.86,0-2.71-.72-2.71-2.12s.94-2.1,2.73-2.12c2.33,0,4.66,0,7.1,0l-.32-2.85h-3.34c-1.2,0-2.39,0-3.59,0-1.73-.05-2.86-.9-2.74-2.15.15-1.56,1.25-2,2.66-2,2.06,0,4.11,0,6.16,0a1.85,1.85,0,0,0,2-1.16c.86-1.64,2-3.12,3.06-4.7a30.71,30.71,0,0,1-3.95,0c-3-.4-6-.91-8.91-1.45a14.09,14.09,0,0,0-8.46,1.11c-2.24,1-4.27-.32-3.87-2.49a3.35,3.35,0,0,1,1.64-2.1c3.91-1.84,8-2.57,12.23-1.24a62,62,0,0,0,6.46,1.55c4,.78,7.63-.46,11.27-1.84a3.82,3.82,0,0,1,2.55-.15,2.14,2.14,0,0,1,.44,3.83,10.28,10.28,0,0,1-1.8.95A10.18,10.18,0,0,0,564.62,232.12Z"/><path class="cls-3" d="M620.48,258.55l-2.49-.7a23.34,23.34,0,0,1-1,3.48c-.24.51-1,.78-1.57,1.15-.3-.63-1-1.42-.83-1.85,1.1-2.72.61-4.73-1.64-6.78-1.21-1.1-1.73-3.13-2.16-4.85a2.47,2.47,0,0,1,1.77-3.09c1.53-.46,2.48.32,3.15,1.62.41.8.89,1.56,1.52,2.67,1.83-6.95,3.58-13.54,5.37-20.33a5.72,5.72,0,0,0-5.24,2.77,23.27,23.27,0,0,0-1.67,3.53c-.77,1.79-1.63,2.38-3,2a3,3,0,0,1-2-3.49,11.83,11.83,0,0,1,10.89-10.25c.79-.06,1.58,0,2.48,0a20.72,20.72,0,0,1,1-3.66c.29-.61,1.16-.95,1.78-1.4a5.56,5.56,0,0,1,.73,2,17.67,17.67,0,0,1-.79,3.26l2.38,1c.4-1.43.8-2.7,1.12-4,.25-1,.57-2,1.82-1.75s1.11,1.35.75,2.34c0,.11,0,.23-.07.33a7,7,0,0,0,1.09,7.5c4.77,6.21,4.38,17-.21,23.29a12.21,12.21,0,0,1-9,5.21,1.66,1.66,0,0,0-1.78,1.58,3.81,3.81,0,0,1-.44,1.62A7.45,7.45,0,0,1,620.8,263c-.34-.62-.92-1.23-1-1.87A9,9,0,0,1,620.48,258.55Zm4.78-28.42q-3,11.18-5.85,22.17c2.15,1.32,2.41,1.24,3-.9,1.62-6.14,3.17-12.3,4.88-18.41C627.77,231.17,627.15,230.47,625.26,230.13Zm4.26,4.54-4.8,18.26C630.12,251.47,632.39,243,629.52,234.67Z"/><path class="cls-3" d="M759.85,238.45H748.49c-2.47,0-3.58-.7-3.53-2.2s1.12-2.16,3.64-2.16c4.89,0,9.79-.05,14.69,0a2,2,0,0,0,2.23-1.55c1.63-4.5-1.17-8.84-5.93-8.81a34.68,34.68,0,0,0-6.32,1.08c-.61.12-1.3.68-1.75.5a4.39,4.39,0,0,1-2.24-1.64,2.23,2.23,0,0,1,.75-2.07c4.45-2.21,9.1-3.36,14-1.39s7.18,7,6,12.24l-.37,1.61c1.35,0,2.57,0,3.79,0,1.79.07,2.74.84,2.77,2.15s-1,2.17-2.85,2.19h-1.88c-4.58,0-4.58,0-8.27,3.53a13.49,13.49,0,0,0,1.35.14h8.88c1.74,0,2.74.79,2.77,2.1s-.94,2.19-2.69,2.21c-4.56.05-9.11,0-13.67,0-3,0-4.88,1.58-5.67,4.68a5.79,5.79,0,0,0,3.09,6.57c2.9,1.42,5.84,1.12,8.76,0,.8-.29,1.63-.88,2.38-.8a3.16,3.16,0,0,1,2.24,1.31,2.42,2.42,0,0,1-.62,2.31c-4.17,2.55-10.83,3.7-15.54.61s-6.09-8.3-3.6-13.42c.17-.34.31-.69.56-1.28-1.37,0-2.55,0-3.73,0-1.77-.07-2.73-.88-2.72-2.19s1-2.11,2.74-2.13a29.19,29.19,0,0,1,4.95,0C756,242.71,757.69,240.28,759.85,238.45Z"/><path class="cls-3" d="M702.82,367.8c.39,2.15.79,4,1.06,5.92,1,7.16-3.25,12.1-9.1,13.27-5.08,1-9.89.54-13.7-3.51a11.14,11.14,0,0,1-2.8-7,2.48,2.48,0,0,1,2.21-2.79,2.54,2.54,0,0,1,3.07,1.79,9.48,9.48,0,0,1,.4,1.83c.62,4.11,3.56,6.37,7.7,5.91s7.17-3.65,6.79-7.65c-.21-2.2-.76-4.35-1.13-6.53-.15-1-.62-1.31-1.61-1.29-2.39.07-4.78,0-7.17,0-1.42,0-2.49-.45-2.56-2.08-.05-1.31.88-2.1,2.53-2.13,2.39,0,4.77,0,7.34,0-.86-5,.19-9.34,4.47-13.06-5.81.77-10.78-1.18-15.93-1.52-1.73-.12-3.53.66-5.29,1.06-.49.11-1,.4-1.44.52a2.56,2.56,0,0,1-1.71-4.82c3.95-1.72,8-2.62,12.25-1.27,1,.31,2,.44,3,.76,5.13,1.72,10.06,1.1,14.93-1a3.55,3.55,0,0,1,2.54-.13,2.14,2.14,0,0,1,.41,3.83,4.74,4.74,0,0,1-1.18.67c-5.6,2.31-8,7.78-6.29,15,1.66,0,3.36-.05,5,0,1.9.07,3.08,1.44,2.32,2.81a3.27,3.27,0,0,1-2.09,1.36A24.33,24.33,0,0,1,702.82,367.8Z"/><path class="cls-3" d="M757.25,366.42c-3.32-1.79-4.32-5.08-5.25-8.46-1-3.6-2.24-7.13-3.15-10.75a3.71,3.71,0,0,1,.81-2.84,2,2,0,0,1,3.06-.09,8.24,8.24,0,0,1,2,3.05c1.14,3.57,2.09,7.19,3,10.81,1.26,4.77,3.32,6.4,8.25,6.41h5.29c1.42,0,2.46.54,2.56,2.12.09,1.39-.87,2.23-2.58,2.3-3.12.12-6.27,0-9.37.38a6.14,6.14,0,0,0-5.21,4.13h7.82c2.9,0,5.81,0,8.71,0,1.67,0,2.67,1,2.67,2.28s-.89,2.19-2.66,2.21c-4.9,0-9.8,0-14.7,0h-2a4.59,4.59,0,0,0,3,3.91,16.29,16.29,0,0,0,4.76,1.08c2.67.18,5.35,0,8,0a9.61,9.61,0,0,1,1.2,0c1.3.15,2.32.69,2.38,2.17.06,1.29-.93,2.18-2.49,2.21-2.11,0-4.22,0-6.33,0h-19.3c-1.43,0-2.46-.56-2.61-2.1-.12-1.32.92-2.24,2.6-2.3,1.47-.05,2.94,0,4.46,0L750.42,378c-1,0-2,0-3.11,0a2,2,0,0,1-2.1-2c-.1-1.28.73-2.39,1.82-2.24,3.3.46,4.67-1.5,6.18-3.89C754.06,368.43,755.76,367.62,757.25,366.42Z"/><path class="cls-3" d="M623.56,371.32c-1.43,2-2.79,3.87-4.13,5.76-2.07,2.93-4.09,5.89-6.2,8.78-1.33,1.84-3.25,2-4.42.44-1-1.34-.48-2.57.36-3.75l8.09-11.41c.35-.49.64-1,1.11-1.77h-7.73c-1.23,0-2.65.08-2.68-1.58s1.49-1.69,2.76-1.7h10v-4.73h-9.38a4,4,0,0,1-1.84-.12,7.67,7.67,0,0,1-1.57-1.68c.59-.51,1.15-1.42,1.76-1.45,3-.16,5.91-.07,8.88-.08h2.26c0-3.24,0-6.34,0-9.45a18.07,18.07,0,0,1,.12-2.55,2.44,2.44,0,0,1,2.54-2.29A2.37,2.37,0,0,1,626,346c.15,1.58.12,3.18.14,4.77,0,2.33,0,4.66,0,7.22h8.27a15.41,15.41,0,0,1,3.4.07,2.74,2.74,0,0,1,1.85,1.48c.27,1.13-.69,1.71-1.78,1.75-1.59.06-3.19,0-4.78,0h-6.81v4.73c3.47,0,6.87,0,10.28,0,1.31,0,3.13-.35,3.12,1.65s-1.83,1.6-3.14,1.61c-2.48,0-5,0-7.8,0,.51.76.81,1.26,1.16,1.74l8.25,11.09a8.06,8.06,0,0,1,.93,1.42,2.46,2.46,0,0,1-.82,3.32,2.26,2.26,0,0,1-3.23-.34c-1.13-1.27-2.11-2.67-3.13-4C629.15,378.87,626.42,375.18,623.56,371.32Z"/><path class="cls-3" d="M482.18,308.86h-6.73c-.45,1.95-.9,3.87-1.35,5.8a8,8,0,0,1-.49,1.62,2,2,0,0,1-2.45,1.31,1.92,1.92,0,0,1-1.54-2.31c.37-2.12.82-4.22,1.26-6.48a23.26,23.26,0,0,1-3.24,0c-.81-.11-2.26-.62-2.24-.82.17-1.43,1.43-.78,2.29-.93a3.08,3.08,0,0,1,.68,0c3.45,0,3.45,0,3.78-3.65-1.82,0-3.64.07-5.45,0-.49,0-.95-.55-1.42-.84.48-.28,1-.77,1.46-.8a42.34,42.34,0,0,1,4.78,0c1,.05,1.37-.33,1.59-1.28.68-2.93,1.48-5.83,2.22-8.75.39-1.54,1.24-2.58,2.92-2.58a3,3,0,0,1,3,2.54c.94,3.33,1.87,6.65,2.82,10.05,1.57,0,3.05-.09,4.52,0,1.19.09,1.68-.32,2-1.48.7-2.8,1.55-5.57,2.35-8.35a8.52,8.52,0,0,1,.33-1A2.79,2.79,0,0,1,496,289a2.48,2.48,0,0,1,2.55,1.89c.87,3.11,1.73,6.23,2.47,9.37.25,1.05.68,1.4,1.73,1.34a44.83,44.83,0,0,1,4.78,0c.45,0,.88.49,1.33.75-.45.31-.88.88-1.34.91-1.81.1-3.63,0-5.41,0-.08.21-.16.31-.14.4.51,3.26.51,3.26,3.74,3.26a7.76,7.76,0,0,1,1.87,0,4.52,4.52,0,0,1,1.28.81c-.41.31-.81.85-1.25.88-1.41.12-2.83.05-4.41.05.4,1.73.79,3.3,1.11,4.89a4,4,0,0,1,.16,2.17,3.15,3.15,0,0,1-1.76,1.7,2.31,2.31,0,0,1-2-1.06,45.41,45.41,0,0,1-1.68-6.23c-.22-1.08-.58-1.56-1.75-1.49-1.75.09-3.51,0-5.28,0-.65,2.19-1.27,4.24-1.85,6.31a3.1,3.1,0,0,1-3.18,2.55c-1.73,0-2.66-1-3.09-2.65C483.41,313,482.79,311,482.18,308.86Zm-.69-1.95c-.38-3.49-.75-3.92-3.92-3.51-2.17.28-.88,2.32-1.87,3.51Zm11.17-.08h5.65c-.29-1.26-.54-2.33-.77-3.36C492.68,303.3,493.6,302.7,492.66,306.83Zm-3.16-3.38h-4.77c.21,2.89.55,3.5,1.95,3.55C488.86,307.08,488.94,307,489.5,303.45Zm-10.84-7.61-.33,0c-.41,1.84-.81,3.69-1.24,5.65h3.14C479.69,299.57,479.18,297.71,478.66,295.84ZM494,301.52h3.13c-.44-2-.84-3.81-1.25-5.65l-.34,0C495,297.71,494.51,299.58,494,301.52Zm-7.12,10.59.37,0c.3-1,.59-2.09.92-3.23H486C486.32,310.06,486.59,311.08,486.86,312.11Z"/><path class="cls-3" d="M492.07,371c-.66,2.27-1.27,4.34-1.87,6.41a3.09,3.09,0,0,1-3.1,2.45,3,3,0,0,1-3.08-2.44c-.6-2.07-1.2-4.14-1.85-6.42-2,0-4,0-6,.05-.34,0-.83.67-.95,1.11-.47,1.75-.78,3.54-1.24,5.3s-1.43,2.67-2.73,2.35-1.86-1.35-1.5-3.3c.33-1.79.8-3.54,1.25-5.51a40.05,40.05,0,0,1-4.12,0c-.54-.05-1-.61-1.54-.93a7.05,7.05,0,0,1,1.48-.79,5.57,5.57,0,0,1,1.53,0c3.43,0,3.43,0,3.87-3.64-1.71,0-3.4.07-5.08,0a5.89,5.89,0,0,1-1.82-.79,5.64,5.64,0,0,1,1.74-.86,28.06,28.06,0,0,1,4.1,0c1.2.08,1.79-.22,2.06-1.56.55-2.77,1.36-5.5,2.07-8.25.39-1.55,1.15-2.78,2.95-2.79s2.68,1.16,3.12,2.81c.75,2.86,1.6,5.68,2.35,8.54.23.9.61,1.32,1.62,1.26,1.53-.1,3.07,0,4.8,0,.71-2.49,1.4-5,2.11-7.46.29-1,.6-2.07.95-3.09a2.8,2.8,0,0,1,2.84-2,2.56,2.56,0,0,1,2.65,2c.85,3.05,1.71,6.12,2.41,9.21.26,1.15.76,1.46,1.84,1.4a39.38,39.38,0,0,1,4.61,0c.49,0,.94.54,1.41.84-.48.28-1,.78-1.46.8-1.76.1-3.52,0-5.51,0a13.73,13.73,0,0,0,.6,2.66,1.88,1.88,0,0,0,1.28.95c1.24.14,2.51,0,3.75.09.46,0,.88.49,1.32.75-.45.33-.87.9-1.35,1-1.35.13-2.72,0-4.3,0,.39,1.7.77,3.26,1.1,4.84a3.72,3.72,0,0,1,.19,2,3.4,3.4,0,0,1-1.73,1.9,2.35,2.35,0,0,1-2.05-1.13,43.44,43.44,0,0,1-1.65-6.24c-.22-1-.59-1.44-1.68-1.39C495.67,371.08,493.9,371,492.07,371Zm5.49-5.29c-4.77-.3-4.07-.76-4.85,3.35h5.59Zm-20.94,0c-.23,1.05-.46,2.13-.72,3.35h5.61C480.69,365,481.47,365.41,476.62,365.74Zm8.15-.11c.07,3,.54,3.66,2.68,3.58,1.36,0,2-1.2,1.88-3.58Zm12.36-1.86c-.46-2-.87-3.83-1.29-5.65l-.38.05c-.48,1.83-1,3.67-1.48,5.6ZM478.34,358c-.42,2-.82,3.84-1.23,5.77h3.1c-.5-1.88-1-3.63-1.44-5.37C478.75,358.27,478.62,358.21,478.34,358ZM486,371.12c.33,1.16.61,2.2.9,3.24h.34c.3-1.05.59-2.09.93-3.25Z"/><path class="cls-3" d="M625.91,286.22c2.84.38,5.47.75,8.12,1.07,1.29.15,1.83.7,1.47,2a20.29,20.29,0,0,0-.66,3.17c-.18,1.57-1,1.53-2.26,1.27-2.77-.55-5.57-1-8.37-1.27a7.24,7.24,0,0,0-3.34.54c-.81.31-1.9,1-2,1.72a3.61,3.61,0,0,0,1.08,2.66,11.48,11.48,0,0,0,3.06,1.8c2.39,1.18,4.89,2.17,7.18,3.5,3.77,2.19,5.35,5.57,4.54,9.63a9,9,0,0,1-7.23,7.32c-1.39.33-1.81.88-1.61,2.15a1,1,0,0,1,0,.17c0,3.31-.61,3.86-3.92,3.17a2.13,2.13,0,0,1-1.15-1.5,18.29,18.29,0,0,1-.06-3.23c-2.13-.33-4.13-.71-6.14-.93-1.34-.16-1.59-.88-1.36-2s.49-2.1.66-3.17c.23-1.36.89-1.62,2.17-1.21a18,18,0,0,0,9.23.87c1.19-.24,2.42-.46,2.67-1.95a2.75,2.75,0,0,0-1.83-3.12c-2.42-1.12-4.9-2.12-7.28-3.31-3.23-1.62-6.11-3.6-6.72-7.57-.8-5.34,1.77-9.51,7-10.89,1.46-.38,1.83-1,1.64-2.32a4.51,4.51,0,0,1,0-.52c0-2.83,0-2.83,2.82-2.83,2.32,0,2.32,0,2.33,2.4Z"/><path class="cls-3" d="M836.61,245c1.26-1.16,2.36-2.14,3.45-3.15s2.09-1.74,3.41-.57c.93.83.62,2-.79,3.32-1.77,1.61-3.6,3.15-5.31,4.82a3.27,3.27,0,0,0-.91,2c-.1,3,0,5.92-.05,8.88,0,1.31-.43,2.37-1.88,2.64a2.08,2.08,0,0,1-2.52-2.25c0-2,0-4,0-6.38-2,1.82-3.79,3.4-5.57,4.93-.46.4-1.08.92-1.58.88s-1.57-.54-1.7-1a2.67,2.67,0,0,1,.47-2.22,50.16,50.16,0,0,1,6.06-5.52c2.26-1.66,2.73-3.65,2.11-6.4l-6,5.35c-.87.78-1.81,1.07-2.72.17s-.75-2.05.24-2.95c2.52-2.3,5.11-4.54,7.56-6.92A3.85,3.85,0,0,0,832,238.2c.1-4.43,0-8.86,0-13.53a27.63,27.63,0,0,0-9.15,6.92c-3.18,3.51-5.26,7.39-4.4,12.37.26,1.44-.64,2.23-2,2.42s-2-.65-2.24-1.94c-1-4.92.44-9.27,3.28-13.16a32,32,0,0,1,15.22-11.63c2.27-.82,3.7.11,3.72,2.53,0,4.32,0,8.64,0,13.37l2.46-2.14c.51-.45,1-.94,1.53-1.35a1.82,1.82,0,0,1,2.73.16,1.72,1.72,0,0,1-.21,2.59c-1.4,1.33-2.85,2.61-4.28,3.92C836.08,241.08,836.08,241.09,836.61,245Z"/><path class="cls-3" d="M764.12,319.35c0,1.23,0,2.58,0,3.93,0,1-.3,1.91-1.47,1.9s-1.44-.9-1.42-1.92c0-1.31,0-2.61,0-4l-4.43-.43a7.1,7.1,0,0,1-6.48-5.38c-.67-3.27.5-5.77,3.55-7.56.54-.31,1.09-.6,1.77-1l-2.41-1c-3.21-1.44-4.79-3.75-4.6-6.67.24-3.64,2.27-6.58,5.52-7.41a66.62,66.62,0,0,1,7.08-1c0-1.72,0-3.52,0-5.33,0-1,.27-1.9,1.44-1.9s1.45.92,1.45,1.92c0,1.8,0,3.61,0,5.56,1.74,0,3.27,0,4.8,0,2.72,0,3.57.83,3.58,3.59,0,6.09,0,12.18,0,18.28,0,1.65,0,3.3,0,4.95-.09,2.34-.93,3.16-3.25,3.23-1.59.06-3.18.06-4.78.09C764.42,319.15,764.37,319.2,764.12,319.35Zm-3-26.74c-5,0-7.4,1.81-7.31,5.39.08,3.29,2.75,5,7.31,4.68Zm3,10.33a24.34,24.34,0,0,1,2.6,0c1.29.14,1.7-.36,1.64-1.63-.1-2,0-4,0-5.95,0-3.14-.11-3.27-3.21-2.85a1.44,1.44,0,0,0-1,1C764.1,296.55,764.13,299.6,764.13,302.94Zm-3,12.37v-8.88c-3.77-.18-6,1.53-6,4.57S757,315.38,761.11,315.31Zm3.15-8.91v9.18c1,0,1.83-.06,2.67,0,1.15.1,1.48-.41,1.43-1.49-.07-1.53,0-3.07,0-4.6,0-3.62,0-3.62-3.66-3.28A1.86,1.86,0,0,0,764.26,306.4Z"/><path class="cls-3" d="M572.31,315.9V304.22q0-7.26,0-14.52c0-.46,0-.92,0-1.37a2.7,2.7,0,0,1,2.53-2.71c1.44,0,2.45,1.17,2.46,2.92q0,14.79,0,29.56c0,1.87-.86,3-2.57,3-5.85,0-11.73.12-17.57-.32s-11-6-11.27-12c-.19-4.49-.15-9-.13-13.49,0-2,1-2.94,2.59-2.87s2.31,1.07,2.32,3c0,3.82,0,7.64,0,11.45,0,5.72,3.55,9.25,9.26,9.29,3.87,0,7.74,0,11.62,0A4.56,4.56,0,0,0,572.31,315.9Z"/><path class="cls-3" d="M538.61,290.87v14c0,4.1,0,8.2,0,12.3,0,.67.11,1.53-.24,2-.6.77-1.54,1.79-2.31,1.77s-1.68-1.05-2.32-1.81c-.29-.35-.13-1.1-.13-1.66q0-14.1,0-28.19c0-2.86.82-3.72,3.62-3.69,5.52.07,11.06-.08,16.55.35,6,.46,11,6,11.26,12.05.19,4.49.14,9,.13,13.49,0,1.93-.89,2.85-2.43,2.86s-2.47-1-2.48-3c0-3.81,0-7.63,0-11.44a8.81,8.81,0,0,0-9.29-9.31c-3.92.14-7.85,0-11.78.06A2.84,2.84,0,0,0,538.61,290.87Z"/><path class="cls-3" d="M557.15,353.74c0,3.24,0,6.48.05,9.72a2,2,0,0,0,.88,1.24c.92.65,1.95,1.17,2.91,1.78a9,9,0,0,1-2.17,16.16c-1.63.52-2.2,1.26-2,2.86a11.91,11.91,0,0,1,0,1.81h-3.12v-3.84c-1.58-.29-3-.56-4.37-.8a2,2,0,0,1-1.92-2.61,17.68,17.68,0,0,0,0-2.42l6.37,2.08c0-4.21,0-8,0-11.69,0-.36-.55-.78-.94-1-1.27-.85-2.64-1.57-3.87-2.47a7.89,7.89,0,0,1,2.06-14c1.77-.55,2.32-1.45,2.07-3.13a6.76,6.76,0,0,1,0-1.19c0-2.37,1.13-3.23,3.32-2.41.44.16.83,1,.88,1.59.22,3,.18,3,3,3.61.55.12,1.1.27,1.64.44,3.43,1.08,4.18,2.39,3.35,5.82-.29,1.21-.92.89-1.77.48-1.95-1-4-1.74-6-2.59Zm-3.91,0c-2.21.56-3.23,1.71-3.31,3.77a4.87,4.87,0,0,0,3.31,4.85Zm4.09,15.6v9.24a4,4,0,0,0,3.1-3.8C560.61,372.54,559.73,370.77,557.33,369.38Z"/><path class="cls-3" d="M708.94,306.42c0-3.64.07-7.1,0-10.55,0-1.62.39-2.2,2.08-2.13,3.51.15,3.08-.35,3.08,3.14,0,8.54,0,17.08,0,25.62,0,1.53-.35,2.17-2,2.07-3.23-.2-6.48-.08-9.7-.4s-6-1.9-7.12-5.24a9.27,9.27,0,0,1,2-9.82,2.6,2.6,0,0,0,.65-3.25c-1.36-3.36-2.59-6.78-3.85-10.18-.61-1.68-.45-1.88,1.31-1.91,3.34,0,3.34,0,4.48,3.09,1,2.72,2,5.42,2.92,8.17a1.74,1.74,0,0,0,2.09,1.42C706.17,306.34,707.47,306.42,708.94,306.42Zm-.07,3.9a47.17,47.17,0,0,0-6.21,1c-2,.58-2.91,2.5-2.74,4.61a3.91,3.91,0,0,0,3.36,3.94,52.7,52.7,0,0,0,5.59.45Z"/><path class="cls-3" d="M687,292.86c0-3.19.05-6.07,0-8.95,0-1.28.24-1.83,1.68-1.78,3.23.14,2.8-.26,2.8,2.87q0,13.32,0,26.62c0,1,.34,2.12-1.39,2.05-3-.11-3.18.23-3.05-2,0-.08-.09-.16-.22-.37a8.64,8.64,0,0,1-7.18,2.78,9.09,9.09,0,0,1-8.32-6.3,13.72,13.72,0,0,1,1.49-13.3A9.91,9.91,0,0,1,687,292.86Zm.46,9.36c-.65-1.65-1-3.48-2-4.91-2.45-3.62-7.23-3.44-9.67.19a8.89,8.89,0,0,0,.06,9.77,5.67,5.67,0,0,0,9.17.71A10.42,10.42,0,0,0,687.5,302.22Z"/><path class="cls-3" d="M680.18,247.69c-4.08,1.38-6.85.7-8.6-2-1.93-3-1.6-8.05.7-10.55a6.67,6.67,0,0,1,11,1.67,14.77,14.77,0,0,1-.29,13c-1.37,2.79-3.85,4.06-6.77,4.63-.83.16-1.68.29-2.51.45s-1.74.81-1.92-.41c-.14-1-.68-2.5,1.2-2.84,1.28-.24,2.55-.55,3.8-.9A4.7,4.7,0,0,0,680.18,247.69Zm-6-7c.18.9.29,1.62.48,2.33a2.69,2.69,0,0,0,2.83,2.19A2.45,2.45,0,0,0,680.1,243a14.17,14.17,0,0,0-.57-5.06,3,3,0,0,0-2.34-1.43,3.23,3.23,0,0,0-2.21,1.47A9.09,9.09,0,0,0,674.22,240.69Z"/><path class="cls-3" d="M710.13,247.62c-2.61,1.46-5.2,1.76-7.6-.07-2.89-2.2-3.24-5.37-2.65-8.65.75-4.23,4.86-7.42,10.32-4.88,0-1.58.1-3,0-4.45-.14-1.61.62-1.85,2-1.88s1.94.5,1.92,2c-.08,5.58,0,11.16-.06,16.74,0,.66-.25,1.79-.6,1.87a7.72,7.72,0,0,1-2.78-.11C710.46,248.15,710.29,247.8,710.13,247.62Zm.07-6.92c0-2.66-1.12-4.21-3.1-4.31s-3.11,1.29-3.49,3.88c0,.17-.06.34-.07.51-.13,3,1.79,5,4.17,4.46C709.35,244.85,710.21,243.28,710.2,240.7Z"/><path class="cls-3" d="M692.09,239.57c-.91,2.62-1.73,5-2.55,7.37-.49,1.41-2.62,2.24-3.8,1.39a1.43,1.43,0,0,1-.31-1.3c2-5.1,4-10.22,6.23-15.25a8.13,8.13,0,0,1,4.73-4.44c.76-.27,1.56-.5,1.77.53s1.32,2-.25,2.8a9.4,9.4,0,0,0-1.45.89c-2.11,1.65-2.36,2.6-1.37,5.05,1.29,3.2,2.63,6.39,3.83,9.63.24.63.23,1.84-.15,2.11-1,.73-3.15.12-3.52-.83-.93-2.37-1.8-4.77-2.7-7.16A7.54,7.54,0,0,0,692.09,239.57Z"/></g></g></g></svg>