<svg xmlns="http://www.w3.org/2000/svg" xmlns:xlink="http://www.w3.org/1999/xlink" viewBox="0 0 242.14 242.14"><defs><style>.cls-1{fill:url(#radial-gradient);}.cls-2{fill:#fff;}</style><radialGradient id="radial-gradient" cx="121.07" cy="121.07" r="121.07" gradientUnits="userSpaceOnUse"><stop offset="0" stop-color="#3653a4"/><stop offset="1" stop-color="#243870"/></radialGradient></defs><title>instagram</title><g id="Layer_2" data-name="Layer 2"><g id="Layer_1-2" data-name="Layer 1"><circle class="cls-1" cx="121.07" cy="121.07" r="121.07"/><path class="cls-2" d="M143.35,194.76H99c-.9-.08-1.8-.2-2.7-.23-5.9-.15-11.79-.38-17.55-1.79-12.12-3-21.15-9.87-26.52-21.23-3.36-7.11-4.36-14.76-4.44-22.53-.16-15.82-.34-31.64-.21-47.46A148.19,148.19,0,0,1,49,81.33,37.35,37.35,0,0,1,64,56.16c7.23-5.41,15.59-7.57,24.44-8.19,3.53-.25,7.07-.4,10.6-.59h44c3.44.19,6.88.37,10.31.58a49,49,0,0,1,17.43,3.87c13.55,6.1,20.69,17,22.91,31.34.39,2.55.59,5.12.88,7.68v59.29c-.08.52-.19,1-.24,1.55-.31,2.9-.46,5.83-.94,8.7-1.57,9.24-5.52,17.26-12.62,23.56-7.7,6.83-17,9.55-27,10.23C150.32,194.42,146.83,194.57,143.35,194.76Zm-22.19-13v-.23c3.89,0,7.78.12,11.66,0,8.38-.3,16.82-.2,25.12-1.25,11.33-1.43,19-8,21.76-19.25a63.43,63.43,0,0,0,1.57-14q.38-22.31.22-44.61a148.89,148.89,0,0,0-1.07-17.79c-1.49-11.88-8.87-19.9-20.64-22.26A85.63,85.63,0,0,0,144.35,61q-20.73-.3-41.45-.07a133.64,133.64,0,0,0-19.2,1.25c-11.14,1.76-18.55,8.32-21.07,19.46a77.83,77.83,0,0,0-1.54,15.26q-.41,17.83-.22,35.69c.09,8.24.32,16.51,1.1,24.7s4.6,14.88,11.77,19.3a31.33,31.33,0,0,0,15.63,4.34C100,181.3,110.56,181.48,121.16,181.74Z"/><path class="cls-2" d="M121,159c-21-.22-38-17.31-37.72-38,.25-21,17.32-37.91,38.09-37.66,21.06.27,37.92,17.34,37.62,38.1C158.7,142.36,141.74,159.15,121,159Zm0-13.34a24.53,24.53,0,1,0-24.43-24.55A24.46,24.46,0,0,0,121.07,145.61Z"/><path class="cls-2" d="M160.68,72.93a8.82,8.82,0,0,1-.31,17.63,8.82,8.82,0,1,1,.31-17.63Z"/></g></g></svg>