<svg xmlns="http://www.w3.org/2000/svg" viewBox="0 0 507.79 507.67"><defs><style>.cls-1{fill:#3253a4;}.cls-2{fill:#a4d6b6;}</style></defs><title>rocket_1</title><g id="Layer_2" data-name="Layer 2"><g id="Layer_1-2" data-name="Layer 1"><path class="cls-1" d="M507.79,53.52c-.76,7.22-1.42,14.45-2.3,21.66a300.21,300.21,0,0,1-9.72,47.39c-44.63-2-103.36-47-111.17-108.9a21.51,21.51,0,0,1,2.51-1C408.9,6.43,431,1.73,453.69.68A14,14,0,0,0,456.5,0h32A29.22,29.22,0,0,0,492,.68c9.11.58,14.66,6.3,15,15.44.08,1.82.49,3.62.74,5.44Z"/><path class="cls-2" d="M255.78,395.45c-9.08-9.19-17.82-18.68-27.3-27.36-5.44-5-7.09-9.09-4.28-16.59,4.86-13,6.07-26.73,2.07-40.43a43.67,43.67,0,0,0-40.42-31.68,88,88,0,0,0-36.3,6.06,3.52,3.52,0,0,1-4.48-1q-14.73-15-29.68-29.7c-1.72-1.7-1.57-2.85-.43-4.73C153.35,186.83,199.22,130,257,83.23a405.31,405.31,0,0,1,94.38-57.62c1.35-.58,2.73-1.1,3.74-1.5C373,92.93,416,135.84,485.65,152.73c-1.51,3.59-3.19,7.79-5,11.93-19.81,44.64-48.09,83.46-81.75,118.55-39.06,40.71-83.37,74.85-131.09,104.71ZM401,180.69A74.16,74.16,0,1,0,326.49,255C368.09,255,401,222.19,401,180.69Z"/><path class="cls-1" d="M178.58,308.54c14.18,0,20.89,6.51,20.51,18.77a60,60,0,0,1-17.89,41.23c-23.63,23.9-48.55,46.36-76.7,64.92-7.42,4.88-15.27,9.13-23.09,13.38-6.48,3.52-12.83,2.51-17.76-2.27-4.65-4.49-6.24-11.18-2.78-17.37,6.39-11.42,12.91-22.84,20.35-33.58,17.18-24.82,37.39-47.15,59-68.14A60.92,60.92,0,0,1,178.58,308.54Z"/><path class="cls-1" d="M136.51,165.66c-6.76,9.4-13.65,18.17-19.66,27.49-13.6,21.08-26.77,42.43-40.1,63.68-.89,1.41-1.21,3.09-3.71,2.67-16.46-2.74-32.46.46-48.4,4.12-3.12.71-6.27,1.65-9.44,1.78a13.61,13.61,0,0,1-13.5-8.06,14.29,14.29,0,0,1,1.45-15.71,35.16,35.16,0,0,1,3.5-3.83c13.65-13.66,27.19-27.44,41-40.92C65.5,179.5,86.12,167.1,111.1,163.15,119.54,161.82,128.06,161.4,136.51,165.66Z"/><path class="cls-1" d="M342.12,373.41c3.25,7,3.36,14.07,2.48,21.19-3.2,26.06-15.19,47.82-33.25,66.41-13.63,14-27.66,27.69-41.37,41.65-9,9.2-23.35,4.85-25.65-5.94-1-4.65.09-9.8.61-14.69,1.19-11.18,2.74-22.33,3.86-33.52a44.34,44.34,0,0,0-.42-10.35c-.4-2.89.56-4.28,3-5.81,21.36-13.17,42.69-26.38,63.82-39.92,8.53-5.46,16.53-11.76,24.77-17.67C340.59,374.34,341.21,374,342.12,373.41Z"/><path class="cls-2" d="M204.91,387.3l24.06,24c-8.86,4.75-17.85,9.62-26.9,14.39-5.46,2.88-11,5.62-16.53,8.36-8.14,4-13.91,3-20.48-3.36-1.05-1-2.21-1.94-3.42-3Z"/><path class="cls-2" d="M97.48,279.42,120.4,302.8,80.51,345.58c-6.94-4.59-10.1-11.73-6.77-18.73C81.31,311,89.46,295.34,97.48,279.42Z"/><path class="cls-1" d="M326.43,225.34c-24.88-.55-44.78-20.88-44.13-45.08.69-25.3,20.82-44.68,45.86-44.14,24.2.53,44.09,21.35,43.45,45.47C371,206.11,350.55,225.87,326.43,225.34Z"/></g></g></svg>