<svg xmlns="http://www.w3.org/2000/svg" xmlns:xlink="http://www.w3.org/1999/xlink" viewBox="0 0 851.49 244.14"><defs><style>.cls-1{fill:url(#radial-gradient);}.cls-2{fill:url(#radial-gradient-2);}.cls-3{fill:url(#radial-gradient-3);}.cls-4{fill:#fff;}</style><radialGradient id="radial-gradient" cx="121.07" cy="121.07" r="121.07" gradientUnits="userSpaceOnUse"><stop offset="0" stop-color="#3653a4"/><stop offset="1" stop-color="#243870"/></radialGradient><radialGradient id="radial-gradient-2" cx="431.73" cy="123.06" r="121.07" xlink:href="#radial-gradient"/><radialGradient id="radial-gradient-3" cx="730.42" cy="121.07" r="121.07" xlink:href="#radial-gradient"/></defs><title>socmed</title><g id="Layer_2" data-name="Layer 2"><g id="Layer_1-2" data-name="Layer 1"><circle class="cls-1" cx="121.07" cy="121.07" r="121.07"/><circle class="cls-2" cx="431.73" cy="123.06" r="121.07"/><circle class="cls-3" cx="730.42" cy="121.07" r="121.07"/><path class="cls-4" d="M143.35,194.76H99c-.9-.08-1.8-.2-2.7-.23-5.9-.15-11.79-.38-17.55-1.79-12.12-3-21.15-9.87-26.52-21.23-3.36-7.11-4.36-14.76-4.44-22.53-.16-15.82-.34-31.64-.21-47.46A148.19,148.19,0,0,1,49,81.33,37.35,37.35,0,0,1,64,56.16c7.23-5.41,15.59-7.57,24.44-8.19,3.53-.25,7.07-.4,10.6-.59h44c3.44.19,6.88.37,10.31.58a49,49,0,0,1,17.43,3.87c13.55,6.1,20.69,17,22.91,31.34.39,2.55.59,5.12.88,7.68v59.29c-.08.52-.19,1-.24,1.55-.31,2.9-.46,5.83-.94,8.7-1.57,9.24-5.52,17.26-12.62,23.56-7.7,6.83-17,9.55-27,10.23C150.32,194.42,146.83,194.57,143.35,194.76Zm-22.19-13v-.23c3.89,0,7.78.12,11.66,0,8.38-.3,16.82-.2,25.12-1.25,11.33-1.43,19-8,21.76-19.25a63.43,63.43,0,0,0,1.57-14q.38-22.31.22-44.61a148.89,148.89,0,0,0-1.07-17.79c-1.49-11.88-8.87-19.9-20.64-22.26A85.63,85.63,0,0,0,144.35,61q-20.73-.3-41.45-.07a133.64,133.64,0,0,0-19.2,1.25c-11.14,1.76-18.55,8.32-21.07,19.46a77.83,77.83,0,0,0-1.54,15.26q-.41,17.83-.22,35.69c.09,8.24.32,16.51,1.1,24.7s4.6,14.88,11.77,19.3a31.33,31.33,0,0,0,15.63,4.34C100,181.3,110.56,181.48,121.16,181.74Z"/><path class="cls-4" d="M121,159c-21-.22-38-17.31-37.72-38,.25-21,17.32-37.91,38.09-37.66,21.06.27,37.92,17.34,37.62,38.1C158.7,142.36,141.74,159.15,121,159Zm0-13.34a24.53,24.53,0,1,0-24.43-24.55A24.46,24.46,0,0,0,121.07,145.61Z"/><path class="cls-4" d="M160.68,72.93a8.82,8.82,0,0,1-.31,17.63,8.82,8.82,0,1,1,.31-17.63Z"/><path class="cls-4" d="M413.21,186.28V101.92h25.15V113.2l.42.28a3.37,3.37,0,0,1,.25-.65c4.32-7.29,10.94-11.22,19.08-12.65A38.09,38.09,0,0,1,476,101.42c8.33,2.55,13.52,8.25,16.17,16.41a56.56,56.56,0,0,1,2.5,14.78c0,.69.17,1.37.25,2.06v51.61H468.77c0-13.37.08-26.74,0-40.12a86.94,86.94,0,0,0-1-13c-.76-4.74-3.26-8.53-8.26-9.72a22.92,22.92,0,0,0-7.07-.37,12.25,12.25,0,0,0-11,8.05c-1.71,4.19-2,8.61-2,13.07v42.09Z"/><path class="cls-4" d="M370.49,186.28c0-.53.05-1.06.05-1.6V101.93h26.32v82.75c0,.54,0,1.07.05,1.6Z"/><path class="cls-4" d="M385.8,59.84a40.67,40.67,0,0,1,5.25,1.95,15,15,0,0,1,7.42,16.74,15.15,15.15,0,0,1-29.43.59c-.18-.66-.35-1.33-.53-2v-4.2a1.5,1.5,0,0,0,.21-.42A14.72,14.72,0,0,1,377,61.43a35.66,35.66,0,0,1,4.6-1.59Z"/><path class="cls-4" d="M714.84,190.48H694.52c-3.86-.95-7.75-1.78-11.57-2.87a70,70,0,0,1-20.73-9.54c21.48-1.29,34-5.11,39.42-12-12-1.76-20.28-8-24.91-19.91h11.1c-15.9-9.3-21.66-17.34-20.68-28.09l10.06,2.68c-11.3-13.9-13.66-27.63-5.93-37.1,15.28,17.29,34,27.59,57.52,28.79,0-1.6,0-2.51,0-3.42-.72-12.39,4-22.1,15.07-27.83,11.32-5.87,22.21-4.38,32.3,3.6,1.34,1.06,4,1.29,5.77.8,4.46-1.26,8.73-3.15,13.08-4.79l1,1L785.65,95.3l13-3.31a53.31,53.31,0,0,1-9.49,11.06c-2.27,2-3.36,3.8-3.38,6.92a81.25,81.25,0,0,1-51.11,75C728.31,187.49,721.45,188.67,714.84,190.48Z"/></g></g></svg>