<svg xmlns="http://www.w3.org/2000/svg" viewBox="0 0 628.3 724.21"><defs><style>.cls-1,.cls-2,.cls-3,.cls-4,.cls-5,.cls-6,.cls-7{fill:none;stroke-miterlimit:10;stroke-width:5px;}.cls-1,.cls-2,.cls-3,.cls-4{stroke:#4664ae;}.cls-2{stroke-dasharray:12.42 12.42;}.cls-3{stroke-dasharray:11.64 11.64;}.cls-4{stroke-dasharray:11.91 11.91;}.cls-5,.cls-6,.cls-7{stroke:#a8c566;}.cls-6{stroke-dasharray:12.09 12.09;}.cls-7{stroke-dasharray:12.11 12.11;}</style></defs><title>tracelines</title><g id="Layer_2" data-name="Layer 2"><g id="Layer_1-2" data-name="Layer 1"><line class="cls-1" x1="2.5" y1="534.78" x2="2.5" y2="528.78"/><line class="cls-2" x1="2.5" y1="516.36" x2="2.5" y2="274.27"/><polyline class="cls-1" points="2.5 268.06 2.5 262.06 8.5 262.06"/><line class="cls-3" x1="20.14" y1="262.06" x2="386.65" y2="262.06"/><polyline class="cls-1" points="392.47 262.06 398.47 262.06 398.47 256.06"/><line class="cls-4" x1="398.47" y1="244.15" x2="398.47" y2="11.95"/><line class="cls-1" x1="398.47" y1="6" x2="398.47"/><polyline class="cls-1" points="18.46 243.13 36.19 260.85 18.13 278.91"/><polyline class="cls-1" points="36.52 243.13 54.25 260.85 36.19 278.91"/><polyline class="cls-1" points="54.57 243.13 72.3 260.85 54.25 278.91"/><polyline class="cls-1" points="72.63 243.13 90.36 260.85 72.3 278.91"/><line class="cls-5" x1="608.64" y1="4.01" x2="608.64" y2="10.01"/><line class="cls-6" x1="608.64" y1="22.1" x2="608.64" y2="693.03"/><polyline class="cls-5" points="608.64 699.07 608.64 705.07 602.64 705.07"/><line class="cls-7" x1="590.53" y1="705.07" x2="209.1" y2="705.07"/><line class="cls-5" x1="203.05" y1="705.07" x2="197.05" y2="705.07"/><polyline class="cls-5" points="626.53 225.23 608.8 242.96 590.75 224.91"/><polyline class="cls-5" points="626.53 243.29 608.8 261.02 590.75 242.96"/><polyline class="cls-5" points="626.53 261.35 608.8 279.07 590.75 261.02"/><polyline class="cls-5" points="626.53 279.4 608.8 297.13 590.75 279.07"/><polyline class="cls-5" points="452.05 722.45 434.32 704.72 452.38 686.66"/><polyline class="cls-5" points="433.99 722.45 416.26 704.72 434.32 686.66"/><polyline class="cls-5" points="415.94 722.45 398.21 704.72 416.26 686.66"/><polyline class="cls-5" points="397.88 722.45 380.15 704.72 398.21 686.66"/></g></g></svg>